<?xml version="1.0" encoding="UTF-8" standalone="no"?>
<!-- Created with Inkscape (http://www.inkscape.org/) -->

<svg
   xmlns:dc="http://purl.org/dc/elements/1.1/"
   xmlns:cc="http://creativecommons.org/ns#"
   xmlns:rdf="http://www.w3.org/1999/02/22-rdf-syntax-ns#"
   xmlns:svg="http://www.w3.org/2000/svg"
   xmlns="http://www.w3.org/2000/svg"
   xmlns:sodipodi="http://sodipodi.sourceforge.net/DTD/sodipodi-0.dtd"
   xmlns:inkscape="http://www.inkscape.org/namespaces/inkscape"
   width="100"
   height="20"
   id="svg4051"
   version="1.1"
   inkscape:version="0.91pre4 r13712"
   sodipodi:docname="3stars.svg">
  <defs
     id="defs4053" />
  <sodipodi:namedview
     id="base"
     pagecolor="#ffffff"
     bordercolor="#666666"
     borderopacity="1.0"
     inkscape:pageopacity="0.0"
     inkscape:pageshadow="2"
     inkscape:zoom="0.35"
     inkscape:cx="375"
     inkscape:cy="520"
     inkscape:document-units="px"
     inkscape:current-layer="layer1"
     showgrid="false"
     inkscape:window-width="1920"
     inkscape:window-height="1017"
     inkscape:window-x="-8"
     inkscape:window-y="-8"
     inkscape:window-maximized="1"
     units="px" />
  <metadata
     id="metadata4056">
    <rdf:RDF>
      <cc:Work
         rdf:about="">
        <dc:format>image/svg+xml</dc:format>
        <dc:type
           rdf:resource="http://purl.org/dc/dcmitype/StillImage" />
        <dc:title></dc:title>
      </cc:Work>
    </rdf:RDF>
  </metadata>
  <g
     inkscape:label="Calque 1"
     inkscape:groupmode="layer"
     id="layer1"
     transform="translate(0,-1032.3622)">
    <g
       id="g13940"
       transform="translate(-370,424.28573)">
      <path
         inkscape:export-ydpi="75.965759"
         inkscape:export-xdpi="75.965759"
         inkscape:export-filename="C:\Users\urien\Desktop\Test-Grottocenter3\Test-Grottocenter3\img\icon\3stars.png"
         sodipodi:type="star"
         style="display:inline;fill:#6c5353;fill-opacity:1;stroke:none"
         id="path3793-4-7"
         sodipodi:sides="5"
         sodipodi:cx="340"
         sodipodi:cy="172.36218"
         sodipodi:r1="48.655392"
         sodipodi:r2="24.327696"
         sodipodi:arg1="0.8685394"
         sodipodi:arg2="1.4968579"
         inkscape:flatsided="false"
         inkscape:rounded="0"
         inkscape:randomized="0"
         d="m 371.42857,209.50504 -29.63146,-12.88163 -27.4101,17.1069 3.09453,-32.16184 -24.73981,-20.78224 31.54398,-6.99548 12.12007,-29.95102 16.40072,27.83839 32.23042,2.27149 -21.40778,24.20055 z"
         transform="matrix(0.21126613,-1.7995618e-4,2.1000728e-4,0.18512972,308.11982,586.8879)" />
      <path
         inkscape:export-ydpi="75.965759"
         inkscape:export-xdpi="75.965759"
         inkscape:export-filename="C:\Users\urien\Desktop\Test-Grottocenter3\Test-Grottocenter3\img\icon\3stars.png"
         sodipodi:type="star"
         style="display:inline;fill:#6c5353;fill-opacity:1;stroke:none"
         id="path3793-8-6-5"
         sodipodi:sides="5"
         sodipodi:cx="340"
         sodipodi:cy="172.36218"
         sodipodi:r1="48.655392"
         sodipodi:r2="24.327696"
         sodipodi:arg1="0.8685394"
         sodipodi:arg2="1.4968579"
         inkscape:flatsided="false"
         inkscape:rounded="0"
         inkscape:randomized="0"
         d="m 371.42857,209.50504 -29.63146,-12.88163 -27.4101,17.1069 3.09453,-32.16184 -24.73981,-20.78224 31.54398,-6.99548 12.12007,-29.95102 16.40072,27.83839 32.23042,2.27149 -21.40778,24.20055 z"
         transform="matrix(0.21126613,-1.7995618e-4,2.1000728e-4,0.18512972,328.00299,586.8879)" />
      <path
         inkscape:export-ydpi="75.965759"
         inkscape:export-xdpi="75.965759"
         inkscape:export-filename="C:\Users\urien\Desktop\Test-Grottocenter3\Test-Grottocenter3\img\icon\3stars.png"
         transform="matrix(0.18102959,-1.6756141e-4,1.6195108e-4,0.15513917,338.28235,591.73822)"
         d="m 371.42857,209.50504 -29.63146,-12.88163 -27.4101,17.1069 3.09453,-32.16184 -24.73981,-20.78224 31.54398,-6.99548 12.12007,-29.95102 16.40072,27.83839 32.23042,2.27149 -21.40778,24.20055 z"
         inkscape:randomized="0"
         inkscape:rounded="0"
         inkscape:flatsided="false"
         sodipodi:arg2="1.4968579"
         sodipodi:arg1="0.8685394"
         sodipodi:r2="24.327696"
         sodipodi:r1="48.655392"
         sodipodi:cy="172.36218"
         sodipodi:cx="340"
         sodipodi:sides="5"
         id="path3744-2-9-7-1"
         style="display:inline;fill:#ffcf00;fill-opacity:1;stroke:none"
         sodipodi:type="star" />
      <path
         inkscape:export-ydpi="75.965759"
         inkscape:export-xdpi="75.965759"
         inkscape:export-filename="C:\Users\urien\Desktop\Test-Grottocenter3\Test-Grottocenter3\img\icon\3stars.png"
         sodipodi:nodetypes="ccccccccc"
         id="path4935-0-6-7"
         d="m 391.30346,616.63794 4.56499,3.31066 -0.19959,1.3345 c 6.85351,-3.32117 8.86118,-5.92944 8.72859,-5.96067 l -2.18393,-0.13224 -3.0675,-4.2733 -2.18559,4.67221 -5.65697,1.04887 0,0 z"
         style="display:inline;fill:#ffffff;fill-opacity:0.60792954;stroke:none"
         inkscape:connector-curvature="0" />
      <path
         inkscape:export-ydpi="75.965759"
         inkscape:export-xdpi="75.965759"
         inkscape:export-filename="C:\Users\urien\Desktop\Test-Grottocenter3\Test-Grottocenter3\img\icon\3stars.png"
         sodipodi:type="star"
         style="display:inline;fill:#6c5353;fill-opacity:1;stroke:none"
         id="path3793-8-9-0-4"
         sodipodi:sides="5"
         sodipodi:cx="340"
         sodipodi:cy="172.36218"
         sodipodi:r1="48.655392"
         sodipodi:r2="24.327696"
         sodipodi:arg1="0.8685394"
         sodipodi:arg2="1.4968579"
         inkscape:flatsided="false"
         inkscape:rounded="0"
         inkscape:randomized="0"
         d="m 371.42857,209.50504 -29.63146,-12.88163 -27.4101,17.1069 3.09453,-32.16184 -24.73981,-20.78224 31.54398,-6.99548 12.12007,-29.95102 16.40072,27.83839 32.23042,2.27149 -21.40778,24.20055 z"
         transform="matrix(0.21126613,-1.7995618e-4,2.1000728e-4,0.18512972,347.88616,586.8879)" />
      <path
         inkscape:export-ydpi="75.965759"
         inkscape:export-xdpi="75.965759"
         inkscape:export-filename="C:\Users\urien\Desktop\Test-Grottocenter3\Test-Grottocenter3\img\icon\3stars.png"
         transform="matrix(0.18102959,-1.6756141e-4,1.6195108e-4,0.15513917,358.16551,591.73822)"
         d="m 371.42857,209.50504 -29.63146,-12.88163 -27.4101,17.1069 3.09453,-32.16184 -24.73981,-20.78224 31.54398,-6.99548 12.12007,-29.95102 16.40072,27.83839 32.23042,2.27149 -21.40778,24.20055 z"
         inkscape:randomized="0"
         inkscape:rounded="0"
         inkscape:flatsided="false"
         sodipodi:arg2="1.4968579"
         sodipodi:arg1="0.8685394"
         sodipodi:r2="24.327696"
         sodipodi:r1="48.655392"
         sodipodi:cy="172.36218"
         sodipodi:cx="340"
         sodipodi:sides="5"
         id="path3744-2-9-2-9-1"
         style="display:inline;fill:#ffcf00;fill-opacity:1;stroke:none"
         sodipodi:type="star" />
      <path
         inkscape:export-ydpi="75.965759"
         inkscape:export-xdpi="75.965759"
         inkscape:export-filename="C:\Users\urien\Desktop\Test-Grottocenter3\Test-Grottocenter3\img\icon\3stars.png"
         sodipodi:nodetypes="ccccccccc"
         id="path4935-0-5-7-7"
         d="m 411.18662,616.63794 4.56499,3.31066 -0.19959,1.3345 c 6.85353,-3.32117 8.86118,-5.92944 8.72859,-5.96067 l -2.18393,-0.13224 -3.06751,-4.2733 -2.18558,4.67221 -5.65697,1.04887 0,0 z"
         style="display:inline;fill:#ffffff;fill-opacity:0.60792954;stroke:none"
         inkscape:connector-curvature="0" />
      <path
         inkscape:export-ydpi="75.965759"
         inkscape:export-xdpi="75.965759"
         inkscape:export-filename="C:\Users\urien\Desktop\Test-Grottocenter3\Test-Grottocenter3\img\icon\3stars.png"
         sodipodi:type="star"
         style="display:inline;fill:#6c5353;fill-opacity:1;stroke:none"
         id="path3793-8-4-5-1"
         sodipodi:sides="5"
         sodipodi:cx="340"
         sodipodi:cy="172.36218"
         sodipodi:r1="48.655392"
         sodipodi:r2="24.327696"
         sodipodi:arg1="0.8685394"
         sodipodi:arg2="1.4968579"
         inkscape:flatsided="false"
         inkscape:rounded="0"
         inkscape:randomized="0"
         d="m 371.42857,209.50504 -29.63146,-12.88163 -27.4101,17.1069 3.09453,-32.16184 -24.73981,-20.78224 31.54398,-6.99548 12.12007,-29.95102 16.40072,27.83839 32.23042,2.27149 -21.40778,24.20055 z"
         transform="matrix(0.21126613,-1.7995618e-4,2.1000728e-4,0.18512972,368.25428,586.8879)" />
      <path
         inkscape:export-ydpi="75.965759"
         inkscape:export-xdpi="75.965759"
         inkscape:export-filename="C:\Users\urien\Desktop\Test-Grottocenter3\Test-Grottocenter3\img\icon\3stars.png"
         sodipodi:type="star"
         style="display:inline;fill:#6c5353;fill-opacity:1;stroke:none"
         id="path3793-8-2-8-7"
         sodipodi:sides="5"
         sodipodi:cx="340"
         sodipodi:cy="172.36218"
         sodipodi:r1="48.655392"
         sodipodi:r2="24.327696"
         sodipodi:arg1="0.8685394"
         sodipodi:arg2="1.4968579"
         inkscape:flatsided="false"
         inkscape:rounded="0"
         inkscape:randomized="0"
         d="m 371.42857,209.50504 -29.63146,-12.88163 -27.4101,17.1069 3.09453,-32.16184 -24.73981,-20.78224 31.54398,-6.99548 12.12007,-29.95102 16.40072,27.83839 32.23042,2.27149 -21.40778,24.20055 z"
         transform="matrix(0.21126613,-1.7995618e-4,2.1000728e-4,0.18512972,388.62241,586.8879)" />
      <path
         inkscape:export-ydpi="75.965759"
         inkscape:export-xdpi="75.965759"
         inkscape:export-filename="C:\Users\urien\Desktop\Test-Grottocenter3\Test-Grottocenter3\img\icon\3stars.png"
         transform="matrix(0.18102959,-1.6756141e-4,1.6195108e-4,0.15513917,318.39918,591.73822)"
         d="m 371.42857,209.50504 -29.63146,-12.88163 -27.4101,17.1069 3.09453,-32.16184 -24.73981,-20.78224 31.54398,-6.99548 12.12007,-29.95102 16.40072,27.83839 32.23042,2.27149 -21.40778,24.20055 z"
         inkscape:randomized="0"
         inkscape:rounded="0"
         inkscape:flatsided="false"
         sodipodi:arg2="1.4968579"
         sodipodi:arg1="0.8685394"
         sodipodi:r2="24.327696"
         sodipodi:r1="48.655392"
         sodipodi:cy="172.36218"
         sodipodi:cx="340"
         sodipodi:sides="5"
         id="path3744-2-3-0"
         style="display:inline;fill:#ffcf00;fill-opacity:1;stroke:none"
         sodipodi:type="star" />
      <path
         inkscape:export-ydpi="75.965759"
         inkscape:export-xdpi="75.965759"
         inkscape:export-filename="C:\Users\urien\Desktop\Test-Grottocenter3\Test-Grottocenter3\img\icon\3stars.png"
         sodipodi:nodetypes="ccccccccc"
         id="path4935-8-4"
         d="m 371.42029,616.63794 4.56499,3.31066 -0.19959,1.3345 c 6.85351,-3.32117 8.86119,-5.92944 8.7286,-5.96067 l -2.18393,-0.13224 -3.06751,-4.2733 -2.18559,4.67221 -5.65697,1.04887 0,0 z"
         style="display:inline;fill:#ffffff;fill-opacity:0.60792954;stroke:none"
         inkscape:connector-curvature="0" />
    </g>
  </g>
</svg>
