<?xml version="1.0" encoding="UTF-8" standalone="no"?>
<!-- Created with Inkscape (http://www.inkscape.org/) -->

<svg
   xmlns:dc="http://purl.org/dc/elements/1.1/"
   xmlns:cc="http://creativecommons.org/ns#"
   xmlns:rdf="http://www.w3.org/1999/02/22-rdf-syntax-ns#"
   xmlns:svg="http://www.w3.org/2000/svg"
   xmlns="http://www.w3.org/2000/svg"
   xmlns:sodipodi="http://sodipodi.sourceforge.net/DTD/sodipodi-0.dtd"
   xmlns:inkscape="http://www.inkscape.org/namespaces/inkscape"
   width="100"
   height="20"
   id="svg3925"
   version="1.1"
   inkscape:version="0.91pre4 r13712"
   sodipodi:docname="5stars.svg">
  <defs
     id="defs3927" />
  <sodipodi:namedview
     id="base"
     pagecolor="#ffffff"
     bordercolor="#666666"
     borderopacity="1.0"
     inkscape:pageopacity="0.0"
     inkscape:pageshadow="2"
     inkscape:zoom="0.35"
     inkscape:cx="375"
     inkscape:cy="520"
     inkscape:document-units="px"
     inkscape:current-layer="layer1"
     showgrid="false"
     inkscape:window-width="1920"
     inkscape:window-height="1017"
     inkscape:window-x="-8"
     inkscape:window-y="-8"
     inkscape:window-maximized="1"
     units="px" />
  <metadata
     id="metadata3930">
    <rdf:RDF>
      <cc:Work
         rdf:about="">
        <dc:format>image/svg+xml</dc:format>
        <dc:type
           rdf:resource="http://purl.org/dc/dcmitype/StillImage" />
        <dc:title></dc:title>
      </cc:Work>
    </rdf:RDF>
  </metadata>
  <g
     inkscape:label="Calque 1"
     inkscape:groupmode="layer"
     id="layer1"
     transform="translate(0,-1032.3622)">
    <g
       id="g15086"
       transform="translate(-424.28572,578.57145)">
      <path
         inkscape:export-ydpi="75.337944"
         inkscape:export-xdpi="75.337944"
         inkscape:export-filename="C:\Users\urien\Desktop\Test-Grottocenter3\Test-Grottocenter3\img\icon\5stars.png"
         sodipodi:type="star"
         style="display:inline;fill:#6c5353;fill-opacity:1;stroke:none"
         id="path3793"
         sodipodi:sides="5"
         sodipodi:cx="340"
         sodipodi:cy="172.36218"
         sodipodi:r1="48.655392"
         sodipodi:r2="24.327696"
         sodipodi:arg1="0.8685394"
         sodipodi:arg2="1.4968579"
         inkscape:flatsided="false"
         inkscape:rounded="0"
         inkscape:randomized="0"
         d="m 371.42857,209.50504 -29.63146,-12.88163 -27.4101,17.1069 3.09453,-32.16184 -24.73981,-20.78224 31.54398,-6.99548 12.12007,-29.95102 16.40072,27.83839 32.23042,2.27149 -21.40778,24.20055 z"
         transform="matrix(0.2112613,-1.7995206e-4,2.1000248e-4,0.18512549,362.4081,432.6029)" />
      <path
         inkscape:export-ydpi="75.337944"
         inkscape:export-xdpi="75.337944"
         inkscape:export-filename="C:\Users\urien\Desktop\Test-Grottocenter3\Test-Grottocenter3\img\icon\5stars.png"
         sodipodi:type="star"
         style="display:inline;fill:#6c5353;fill-opacity:1;stroke:none"
         id="path3793-8"
         sodipodi:sides="5"
         sodipodi:cx="340"
         sodipodi:cy="172.36218"
         sodipodi:r1="48.655392"
         sodipodi:r2="24.327696"
         sodipodi:arg1="0.8685394"
         sodipodi:arg2="1.4968579"
         inkscape:flatsided="false"
         inkscape:rounded="0"
         inkscape:randomized="0"
         d="m 371.42857,209.50504 -29.63146,-12.88163 -27.4101,17.1069 3.09453,-32.16184 -24.73981,-20.78224 31.54398,-6.99548 12.12007,-29.95102 16.40072,27.83839 32.23042,2.27149 -21.40778,24.20055 z"
         transform="matrix(0.2112613,-1.7995206e-4,2.1000248e-4,0.18512549,382.29081,432.6029)" />
      <path
         inkscape:export-ydpi="75.337944"
         inkscape:export-xdpi="75.337944"
         inkscape:export-filename="C:\Users\urien\Desktop\Test-Grottocenter3\Test-Grottocenter3\img\icon\5stars.png"
         transform="matrix(0.18102545,-1.6755758e-4,1.6194737e-4,0.15513563,392.56993,437.45312)"
         d="m 371.42857,209.50504 -29.63146,-12.88163 -27.4101,17.1069 3.09453,-32.16184 -24.73981,-20.78224 31.54398,-6.99548 12.12007,-29.95102 16.40072,27.83839 32.23042,2.27149 -21.40778,24.20055 z"
         inkscape:randomized="0"
         inkscape:rounded="0"
         inkscape:flatsided="false"
         sodipodi:arg2="1.4968579"
         sodipodi:arg1="0.8685394"
         sodipodi:r2="24.327696"
         sodipodi:r1="48.655392"
         sodipodi:cy="172.36218"
         sodipodi:cx="340"
         sodipodi:sides="5"
         id="path3744-2-9"
         style="display:inline;fill:#ffcf00;fill-opacity:1;stroke:none"
         sodipodi:type="star" />
      <path
         inkscape:export-ydpi="75.337944"
         inkscape:export-xdpi="75.337944"
         inkscape:export-filename="C:\Users\urien\Desktop\Test-Grottocenter3\Test-Grottocenter3\img\icon\5stars.png"
         sodipodi:nodetypes="ccccccccc"
         id="path4935-0"
         d="m 445.58984,462.35228 4.56488,3.31056 -0.19959,1.33447 c 6.85337,-3.32109 8.86099,-5.92932 8.7284,-5.96053 l -2.18388,-0.13222 -3.06743,-4.27322 -2.18555,4.67211 -5.65683,1.04884 0,0 z"
         style="display:inline;fill:#ffffff;fill-opacity:0.60792954;stroke:none"
         inkscape:connector-curvature="0" />
      <path
         inkscape:export-ydpi="75.337944"
         inkscape:export-xdpi="75.337944"
         inkscape:export-filename="C:\Users\urien\Desktop\Test-Grottocenter3\Test-Grottocenter3\img\icon\5stars.png"
         sodipodi:type="star"
         style="display:inline;fill:#6c5353;fill-opacity:1;stroke:none"
         id="path3793-8-9"
         sodipodi:sides="5"
         sodipodi:cx="340"
         sodipodi:cy="172.36218"
         sodipodi:r1="48.655392"
         sodipodi:r2="24.327696"
         sodipodi:arg1="0.8685394"
         sodipodi:arg2="1.4968579"
         inkscape:flatsided="false"
         inkscape:rounded="0"
         inkscape:randomized="0"
         d="m 371.42857,209.50504 -29.63146,-12.88163 -27.4101,17.1069 3.09453,-32.16184 -24.73981,-20.78224 31.54398,-6.99548 12.12007,-29.95102 16.40072,27.83839 32.23042,2.27149 -21.40778,24.20055 z"
         transform="matrix(0.2112613,-1.7995206e-4,2.1000248e-4,0.18512549,402.17352,432.6029)" />
      <path
         inkscape:export-ydpi="75.337944"
         inkscape:export-xdpi="75.337944"
         inkscape:export-filename="C:\Users\urien\Desktop\Test-Grottocenter3\Test-Grottocenter3\img\icon\5stars.png"
         transform="matrix(0.18102545,-1.6755758e-4,1.6194737e-4,0.15513563,412.45265,437.45312)"
         d="m 371.42857,209.50504 -29.63146,-12.88163 -27.4101,17.1069 3.09453,-32.16184 -24.73981,-20.78224 31.54398,-6.99548 12.12007,-29.95102 16.40072,27.83839 32.23042,2.27149 -21.40778,24.20055 z"
         inkscape:randomized="0"
         inkscape:rounded="0"
         inkscape:flatsided="false"
         sodipodi:arg2="1.4968579"
         sodipodi:arg1="0.8685394"
         sodipodi:r2="24.327696"
         sodipodi:r1="48.655392"
         sodipodi:cy="172.36218"
         sodipodi:cx="340"
         sodipodi:sides="5"
         id="path3744-2-9-2"
         style="display:inline;fill:#ffcf00;fill-opacity:1;stroke:none"
         sodipodi:type="star" />
      <path
         inkscape:export-ydpi="75.337944"
         inkscape:export-xdpi="75.337944"
         inkscape:export-filename="C:\Users\urien\Desktop\Test-Grottocenter3\Test-Grottocenter3\img\icon\5stars.png"
         sodipodi:nodetypes="ccccccccc"
         id="path4935-0-5"
         d="m 465.47255,462.35228 4.56488,3.31056 -0.19959,1.33447 c 6.85337,-3.32109 8.86099,-5.92932 8.72841,-5.96053 l -2.1839,-0.13222 -3.06742,-4.27322 -2.18555,4.67211 -5.65683,1.04884 0,0 z"
         style="display:inline;fill:#ffffff;fill-opacity:0.60792954;stroke:none"
         inkscape:connector-curvature="0" />
      <path
         inkscape:export-ydpi="75.337944"
         inkscape:export-xdpi="75.337944"
         inkscape:export-filename="C:\Users\urien\Desktop\Test-Grottocenter3\Test-Grottocenter3\img\icon\5stars.png"
         sodipodi:type="star"
         style="display:inline;fill:#6c5353;fill-opacity:1;stroke:none"
         id="path3793-8-4"
         sodipodi:sides="5"
         sodipodi:cx="340"
         sodipodi:cy="172.36218"
         sodipodi:r1="48.655392"
         sodipodi:r2="24.327696"
         sodipodi:arg1="0.8685394"
         sodipodi:arg2="1.4968579"
         inkscape:flatsided="false"
         inkscape:rounded="0"
         inkscape:randomized="0"
         d="m 371.42857,209.50504 -29.63146,-12.88163 -27.4101,17.1069 3.09453,-32.16184 -24.73981,-20.78224 31.54398,-6.99548 12.12007,-29.95102 16.40072,27.83839 32.23042,2.27149 -21.40778,24.20055 z"
         transform="matrix(0.2112613,-1.7995206e-4,2.1000248e-4,0.18512549,422.54118,432.6029)" />
      <path
         inkscape:export-ydpi="75.337944"
         inkscape:export-xdpi="75.337944"
         inkscape:export-filename="C:\Users\urien\Desktop\Test-Grottocenter3\Test-Grottocenter3\img\icon\5stars.png"
         transform="matrix(0.18102545,-1.6755758e-4,1.6194737e-4,0.15513563,432.82031,437.45312)"
         d="m 371.42857,209.50504 -29.63146,-12.88163 -27.4101,17.1069 3.09453,-32.16184 -24.73981,-20.78224 31.54398,-6.99548 12.12007,-29.95102 16.40072,27.83839 32.23042,2.27149 -21.40778,24.20055 z"
         inkscape:randomized="0"
         inkscape:rounded="0"
         inkscape:flatsided="false"
         sodipodi:arg2="1.4968579"
         sodipodi:arg1="0.8685394"
         sodipodi:r2="24.327696"
         sodipodi:r1="48.655392"
         sodipodi:cy="172.36218"
         sodipodi:cx="340"
         sodipodi:sides="5"
         id="path3744-2-9-5"
         style="display:inline;fill:#ffcf00;fill-opacity:1;stroke:none"
         sodipodi:type="star" />
      <path
         inkscape:export-ydpi="75.337944"
         inkscape:export-xdpi="75.337944"
         inkscape:export-filename="C:\Users\urien\Desktop\Test-Grottocenter3\Test-Grottocenter3\img\icon\5stars.png"
         sodipodi:nodetypes="ccccccccc"
         id="path4935-0-9"
         d="m 485.8402,462.35228 4.5649,3.31056 -0.19959,1.33447 c 6.85335,-3.32109 8.86098,-5.92932 8.72841,-5.96053 l -2.1839,-0.13222 -3.06743,-4.27322 -2.18555,4.67211 -5.65684,1.04884 0,0 z"
         style="display:inline;fill:#ffffff;fill-opacity:0.60792954;stroke:none"
         inkscape:connector-curvature="0" />
      <path
         inkscape:export-ydpi="75.337944"
         inkscape:export-xdpi="75.337944"
         inkscape:export-filename="C:\Users\urien\Desktop\Test-Grottocenter3\Test-Grottocenter3\img\icon\5stars.png"
         sodipodi:type="star"
         style="display:inline;fill:#6c5353;fill-opacity:1;stroke:none"
         id="path3793-8-2"
         sodipodi:sides="5"
         sodipodi:cx="340"
         sodipodi:cy="172.36218"
         sodipodi:r1="48.655392"
         sodipodi:r2="24.327696"
         sodipodi:arg1="0.8685394"
         sodipodi:arg2="1.4968579"
         inkscape:flatsided="false"
         inkscape:rounded="0"
         inkscape:randomized="0"
         d="m 371.42857,209.50504 -29.63146,-12.88163 -27.4101,17.1069 3.09453,-32.16184 -24.73981,-20.78224 31.54398,-6.99548 12.12007,-29.95102 16.40072,27.83839 32.23042,2.27149 -21.40778,24.20055 z"
         transform="matrix(0.2112613,-1.7995206e-4,2.1000248e-4,0.18512549,442.90884,432.6029)" />
      <path
         inkscape:export-ydpi="75.337944"
         inkscape:export-xdpi="75.337944"
         inkscape:export-filename="C:\Users\urien\Desktop\Test-Grottocenter3\Test-Grottocenter3\img\icon\5stars.png"
         transform="matrix(0.18102545,-1.6755758e-4,1.6194737e-4,0.15513563,453.18797,437.45312)"
         d="m 371.42857,209.50504 -29.63146,-12.88163 -27.4101,17.1069 3.09453,-32.16184 -24.73981,-20.78224 31.54398,-6.99548 12.12007,-29.95102 16.40072,27.83839 32.23042,2.27149 -21.40778,24.20055 z"
         inkscape:randomized="0"
         inkscape:rounded="0"
         inkscape:flatsided="false"
         sodipodi:arg2="1.4968579"
         sodipodi:arg1="0.8685394"
         sodipodi:r2="24.327696"
         sodipodi:r1="48.655392"
         sodipodi:cy="172.36218"
         sodipodi:cx="340"
         sodipodi:sides="5"
         id="path3744-2-9-0"
         style="display:inline;fill:#ffcf00;fill-opacity:1;stroke:none"
         sodipodi:type="star" />
      <path
         inkscape:export-ydpi="75.337944"
         inkscape:export-xdpi="75.337944"
         inkscape:export-filename="C:\Users\urien\Desktop\Test-Grottocenter3\Test-Grottocenter3\img\icon\5stars.png"
         sodipodi:nodetypes="ccccccccc"
         id="path4935-0-1"
         d="m 506.20787,462.35228 4.56487,3.31056 -0.19956,1.33447 c 6.85334,-3.32109 8.86099,-5.92932 8.72838,-5.96053 l -2.1839,-0.13222 -3.06742,-4.27322 -2.18553,4.67211 -5.65684,1.04884 0,0 z"
         style="display:inline;fill:#ffffff;fill-opacity:0.60792954;stroke:none"
         inkscape:connector-curvature="0" />
      <path
         inkscape:export-ydpi="75.337944"
         inkscape:export-xdpi="75.337944"
         inkscape:export-filename="C:\Users\urien\Desktop\Test-Grottocenter3\Test-Grottocenter3\img\icon\5stars.png"
         transform="matrix(0.18102545,-1.6755758e-4,1.6194737e-4,0.15513563,372.68722,437.45312)"
         d="m 371.42857,209.50504 -29.63146,-12.88163 -27.4101,17.1069 3.09453,-32.16184 -24.73981,-20.78224 31.54398,-6.99548 12.12007,-29.95102 16.40072,27.83839 32.23042,2.27149 -21.40778,24.20055 z"
         inkscape:randomized="0"
         inkscape:rounded="0"
         inkscape:flatsided="false"
         sodipodi:arg2="1.4968579"
         sodipodi:arg1="0.8685394"
         sodipodi:r2="24.327696"
         sodipodi:r1="48.655392"
         sodipodi:cy="172.36218"
         sodipodi:cx="340"
         sodipodi:sides="5"
         id="path3744-2"
         style="display:inline;fill:#ffcf00;fill-opacity:1;stroke:none"
         sodipodi:type="star" />
      <path
         inkscape:export-ydpi="75.337944"
         inkscape:export-xdpi="75.337944"
         inkscape:export-filename="C:\Users\urien\Desktop\Test-Grottocenter3\Test-Grottocenter3\img\icon\5stars.png"
         sodipodi:nodetypes="ccccccccc"
         id="path4935"
         d="m 425.70711,462.35228 4.56489,3.31056 -0.19959,1.33447 c 6.85336,-3.32109 8.86099,-5.92932 8.72841,-5.96053 l -2.18389,-0.13222 -3.06743,-4.27322 -2.18554,4.67211 -5.65685,1.04884 0,0 z"
         style="display:inline;fill:#ffffff;fill-opacity:0.60792954;stroke:none"
         inkscape:connector-curvature="0" />
    </g>
  </g>
</svg>
