<?xml version="1.0" encoding="UTF-8" standalone="no"?>
<!-- Generator: Adobe Illustrator 16.0.0, SVG Export Plug-In . SVG Version: 6.00 Build 0)  -->

<svg
   xmlns:dc="http://purl.org/dc/elements/1.1/"
   xmlns:cc="http://creativecommons.org/ns#"
   xmlns:rdf="http://www.w3.org/1999/02/22-rdf-syntax-ns#"
   xmlns:svg="http://www.w3.org/2000/svg"
   xmlns="http://www.w3.org/2000/svg"
   xmlns:sodipodi="http://sodipodi.sourceforge.net/DTD/sodipodi-0.dtd"
   xmlns:inkscape="http://www.inkscape.org/namespaces/inkscape"
   version="1.1"
   id="Layer_1"
   x="0px"
   y="0px"
   width="100"
   height="100"
   viewBox="0 0 99.999998 100"
   xml:space="preserve"
   inkscape:version="0.91pre4 r13712"
   sodipodi:docname="bats.svg"><metadata
   id="metadata26785"><rdf:RDF><cc:Work
       rdf:about=""><dc:format>image/svg+xml</dc:format><dc:type
         rdf:resource="http://purl.org/dc/dcmitype/StillImage" /><dc:title></dc:title></cc:Work></rdf:RDF></metadata><defs
   id="defs26783" /><sodipodi:namedview
   pagecolor="#ffffff"
   bordercolor="#666666"
   borderopacity="1"
   objecttolerance="10"
   gridtolerance="10"
   guidetolerance="10"
   inkscape:pageopacity="0"
   inkscape:pageshadow="2"
   inkscape:window-width="1920"
   inkscape:window-height="1017"
   id="namedview26781"
   showgrid="false"
   inkscape:zoom="1.89"
   inkscape:cx="-72.944753"
   inkscape:cy="133.44749"
   inkscape:window-x="-8"
   inkscape:window-y="-8"
   inkscape:window-maximized="1"
   inkscape:current-layer="g27327" />

<g
   id="g27327"
   transform="matrix(0.37468199,0,0,0.37467918,-1.7853499e-7,62.532078)"><path
     inkscape:connector-curvature="0"
     d="m 252.164,100.00001 c 8.134,0 14.729,-6.595999 14.729,-14.729999 l 0,-237.435001 c 0,-8.137 -6.596,-14.73 -14.729,-14.73 l -237.434,0 c -8.137,0 -14.73,6.594 -14.73,14.73 L 0,85.269011 c 0,8.135 6.593,14.73 14.73,14.73 l 237.434,0 z"
     style="fill:#000000"
     id="Blue_1_" /><path
     style="opacity:1;fill:#ffffff;fill-opacity:1;fill-rule:nonzero;stroke:#000000;stroke-width:0;stroke-linecap:square;stroke-miterlimit:4;stroke-dasharray:none;stroke-dashoffset:0;stroke-opacity:1"
     d="m 96.369252,-31.684099 c -0.13688,-0.431961 -0.42767,-2.383752 -0.6462,-4.337312 -0.52851,-4.724786 -3.64224,-11.043473 -8.371221,-16.987653 -11.290913,-14.192288 -35.547951,-28.673041 -50.85467,-30.358767 -4.119538,-0.453688 -5.120889,-1.510806 -2.672356,-2.821235 3.618494,-1.936573 4.742089,-9.277263 2.58188,-16.867984 -0.771864,-6.84434 -4.180309,-7.30482 -4.180309,-7.30482 -9.447333,-6.84205 -9.729553,5.94062 -6.619363,-14.08416 -1.789355,-5.60276 -3.570451,-13.7836 -8.198823,-19.20752 -1.709641,-2.0035 -2.992673,-3.75849 -2.851177,-3.89999 0.141487,-0.14149 1.778396,0.3439 3.637549,1.07864 1.85917,0.73473 8.752333,3.30377 15.31814,5.70897 17.645031,6.46373 21.11705,8.3411 26.074749,14.09901 5.345606,6.20842 11.273023,14.9258 17.214083,25.31666 5.692533,9.956155 9.403207,15.38184 11.426458,16.707529 7.22363,4.733148 16.345968,-9.796704 17.651968,-28.115649 0.53309,-7.47765 1.10714,-7.70086 3.6528,-1.42043 1.4703,3.62739 5.22912,6.83471 9.29906,7.93472 3.91342,1.0577 11.52765,0.43433 14.71376,-1.20459 4.64886,-2.39135 4.9982,-1.78509 1.75146,3.03957 -2.90935,4.32332 -4.3032,9.249924 -4.35464,15.391542 -0.0504,6.026537 1.10267,10.398089 3.3305,12.625938 3.06838,3.068387 5.73383,2.279544 26.25752,-7.770916 27.07939,-13.260787 36.54136,-16.154674 52.67815,-16.111294 10.69146,0.0287 16.47218,1.202293 24.74086,5.022693 5.3417,2.468022 5.37164,3.604471 0.11139,4.227473 -6.40529,0.75862 -14.19154,5.139783 -19.69064,11.079523 -5.43221,5.867473 -7.80589,12.301353 -7.05673,19.127469 0.39952,3.6404 0.38355,3.690472 -1.04869,3.287042 -5.29663,-1.491972 -7.56832,-1.716146 -10.66364,-1.052317 -9.85523,2.113594 -16.34149,9.864727 -16.31107,19.491864 0.008,2.411444 -0.21056,4.523147 -0.48488,4.692677 -0.27431,0.169532 -1.41867,-0.640898 -2.54304,-1.800954 -3.77597,-3.895863 -13.80715,-7.574737 -24.83706,-9.108864 -2.65322,-0.369032 -9.29036,-0.670975 -14.74919,-0.670975 -19.1821,0 -32.08162,3.716222 -39.76161,11.4549 -3.832158,3.861442 -4.156838,4.064272 -4.545058,2.83921 z"
     id="path4713"
     inkscape:connector-curvature="0"
     sodipodi:nodetypes="csssscscssssssssssssssssssssssccssssc" /><path
     style="opacity:1;fill:#ffffff;fill-opacity:1;fill-rule:nonzero;stroke:#000000;stroke-width:0;stroke-linecap:square;stroke-miterlimit:4;stroke-dasharray:none;stroke-dashoffset:0;stroke-opacity:1"
     d="m 107.09303,77.123858 c -0.27356,-0.145948 -1.34924,-0.962147 -2.3904,-1.813772 -2.51809,-2.059689 -7.063688,-3.663177 -12.220738,-4.310935 -12.31292,-1.546587 -31.109756,2.966253 -39.40739,9.46112 -2.233164,1.747988 -3.228773,1.709465 -2.657055,-0.102822 0.844897,-2.678226 -2.11557,-6.808266 -6.802769,-9.490319 -3.650791,-2.980676 -5.539174,-1.576071 -5.539174,-1.576071 -7.895702,1.16918 -1.921041,7.560307 -9.974852,-3.727671 -3.555037,-1.886439 -8.338903,-5.03861 -13.197907,-5.479849 -1.794833,-0.162989 -3.262037,-0.408365 -3.260452,-0.545278 0.0016,-0.136912 1.034845,-0.682144 2.29613,-1.211627 1.261281,-0.529478 5.863508,-2.568545 10.227162,-4.531249 11.726939,-5.274605 14.324016,-6.016147 19.503917,-5.56893 5.5852,0.482204 12.654945,1.914148 20.531649,4.158586 7.547189,2.150541 11.957902,3.031505 13.582088,2.712782 5.798865,-1.137928 3.315274,-12.61166 -4.805809,-22.201971 -3.314958,-3.914681 -3.140753,-4.298448 1.108521,-2.442017 2.454234,1.072225 5.827677,0.844442 8.345636,-0.563498 2.421137,-1.353797 5.849642,-5.300129 6.625255,-7.62591 1.13171,-3.393537 1.5926,-3.263878 2.31076,0.65007 0.64353,3.507246 2.31729,6.585013 5.22908,9.615477 2.85729,2.973637 5.512128,4.561774 7.667858,4.586759 2.96908,0.0344 3.89639,-1.626341 9.135,-16.360033 6.91192,-19.4399577 10.15897,-25.3811524 18.07747,-33.076782 5.24642,-5.098758 8.63687,-7.288824 14.51072,-9.373232 3.79458,-1.346564 4.35271,-0.80468 2.07614,2.015747 -2.77213,3.434398 -4.48782,9.302157 -4.33879,14.8389725 0.14722,5.46946068 2.06221,9.7534905 5.69318,12.7361187 1.9364,1.5906412 1.95252,1.6227898 1.05862,2.1102618 -3.30576,1.802716 -4.52479,2.779356 -5.72228,4.584476 -3.81267,5.747376 -3.28054,12.642805 1.33811,17.340022 1.157,1.176504 2.05996,2.314449 2.00678,2.528603 -0.0532,0.214143 -1.00083,0.364759 -2.10587,0.334688 -3.7111,-0.101008 -10.37987,2.895517 -16.51183,7.419352 -1.47502,1.088197 -4.86781,4.114398 -7.53949,6.724897 -9.38823,9.17318 -13.92445,17.160742 -13.98253,24.62094 -0.029,3.722483 -0.0909,3.977023 -0.86674,3.563094 z"
     id="path4713-3"
     inkscape:connector-curvature="0"
     sodipodi:nodetypes="csssscscssssssssssssssssssssssccssssc" /><path
     style="opacity:1;fill:#ffffff;fill-opacity:1;fill-rule:nonzero;stroke:#000000;stroke-width:0;stroke-linecap:square;stroke-miterlimit:4;stroke-dasharray:none;stroke-dashoffset:0;stroke-opacity:1"
     d="m 178.48727,43.24269 c 0.0637,-0.165377 0.45156,-0.832591 0.86195,-1.482696 0.99253,-1.572308 1.58467,-4.262915 1.59195,-7.233634 0.0174,-7.09286 -3.85541,-17.440705 -8.11927,-21.694156 -1.14755,-1.14474 -1.19523,-1.712218 -0.12725,-1.514471 1.57829,0.292242 3.71436,-1.6756135 4.90845,-4.5218695 1.43588,-2.279187 0.5072,-3.252328 0.5072,-3.252328 -1.21469,-4.39739801 -4.4229,-0.561742 1.41794,-5.918856 0.82183,-2.148445 2.27585,-5.082374 2.18679,-7.8695995 -0.0329,-1.02955 0.004,-1.878997 0.0816,-1.887663 0.0778,-0.0084 0.45924,0.539405 0.84769,1.217922 0.38844,0.678516 1.86657,3.1468485 3.28471,5.4851715 3.81115,6.28404599 4.41318,7.705521 4.52127,10.675197 0.11653,3.202037 -0.202,7.3125565 -0.92509,11.9375865 -0.69282,4.43155 -0.88452,6.995175 -0.59028,7.894281 1.05051,3.210089 7.38575,0.999864 12.25885,-4.276843 1.98916,-2.153909 2.21902,-2.081887 1.4627,0.458285 -0.43683,1.467115 -0.072,3.36489 0.90252,4.69494 0.93706,1.278902 3.41515,2.948202 4.78866,3.225753 2.00409,0.404985 1.96273,0.675493 -0.20738,1.356244 -1.9446,0.61001 -3.57363,1.774453 -5.08935,3.637897 -1.4873,1.828559 -2.20279,3.445508 -2.06639,4.670151 0.18784,1.686695 1.1947,2.096749 9.91854,4.03947 11.51042,2.563266 15.10745,3.990305 20.02598,7.94482 3.25879,2.620073 4.73795,4.390442 6.33059,7.576969 1.02889,2.058534 0.76048,2.412995 -0.99846,1.31853 -2.14184,-1.332705 -5.59026,-1.896166 -8.72072,-1.424926 -3.09238,0.465509 -5.38883,1.851042 -6.82718,4.11912 -0.76709,1.20957 -0.7842,1.220959 -1.12316,0.747916 -1.2535,-1.74938 -1.89266,-2.372699 -3.00028,-2.925937 -3.52659,-1.761437 -7.401,-0.977987 -9.74301,1.97013 -0.58659,0.738509 -1.16904,1.330213 -1.29424,1.315003 -0.12518,-0.01523 -0.27682,-0.542274 -0.33693,-1.171239 -0.20188,-2.112279 -2.36748,-5.686042 -5.36198,-8.848614 -0.72032,-0.760746 -2.67394,-2.474046 -4.3414,-3.80731 -5.85934,-4.685066 -10.70725,-6.700495 -14.94325,-6.212413 -2.11368,0.243532 -2.2624,0.226195 -2.08177,-0.242831 z"
     id="path4713-3-7"
     inkscape:connector-curvature="0"
     sodipodi:nodetypes="csssscscssssssssssssssssssssssccssssc" /></g>
<g
   id="g26769"
   transform="translate(0,-166.89499)">
</g>
<g
   id="g26771"
   transform="translate(0,-166.89499)">
</g>
<g
   id="g26773"
   transform="translate(0,-166.89499)">
</g>
<g
   id="g26775"
   transform="translate(0,-166.89499)">
</g>
<g
   id="g26777"
   transform="translate(0,-166.89499)">
</g>
<g
   id="g26779"
   transform="translate(0,-166.89499)">
</g>
</svg>