<?xml version="1.0" encoding="iso-8859-1"?>
<!-- Generator: Adobe Illustrator 16.0.0, SVG Export Plug-In . SVG Version: 6.00 Build 0)  -->
<!DOCTYPE svg PUBLIC "-//W3C//DTD SVG 1.1//EN" "http://www.w3.org/Graphics/SVG/1.1/DTD/svg11.dtd">
<svg version="1.1" id="Capa_1" xmlns="http://www.w3.org/2000/svg" xmlns:xlink="http://www.w3.org/1999/xlink" x="0px" y="0px"
	 width="249.892px" height="249.891px" viewBox="0 0 249.892 249.891" style="enable-background:new 0 0 249.892 249.891;"
	 xml:space="preserve">
<g>
	<g>
		<path d="M204.345,217.731c-1.661,1.059-2.735,2.598-3.026,4.332c-0.047,0.275-0.283,0.463-0.565,0.442
			c-0.281-0.019-0.521-0.242-0.563-0.521c-0.293-1.822-2.535-4.301-5.996-6.629c-3.549-2.387-7.892-4.34-11.916-5.357
			c-4.813-1.217-8.742-0.975-11.061,0.683c-0.205,0.146-0.511,0.125-0.714-0.058c-0.209-0.184-0.271-0.477-0.149-0.711
			c1.387-2.699,1.086-6.756-0.849-11.422c-2.815-6.785-8.793-14.053-12.796-15.551c-0.264-0.1-0.432-0.369-0.4-0.643
			c0.03-0.266,0.208-0.445,0.514-0.475c0,0,3.562-0.307,3.672-5.612c0.037-1.709-1.041-4.021-5.533-5.33
			c-0.229-0.065-0.4-0.261-0.438-0.493c-0.041-0.234,0.062-0.457,0.26-0.568c3.594-2.016,5.574-4.617,5.89-7.729
			c0.399-3.941-1.931-7.473-3.37-8.936c-0.214-0.219-0.24-0.551-0.059-0.774c0.177-0.216,0.51-0.259,0.759-0.084
			c6.396,4.459,10.978,10.252,13.614,17.218c2.236,5.898,2.725,11.581,3.08,15.729c0.037,0.431,0.387,4.236,1.27,5.543
			c0,0,0.542,0.849,1.52,0.761c4.234-0.388,8.541-7.255,9.263-9.569c0.092-0.294,0.403-0.445,0.71-0.337
			c0.298,0.106,0.474,0.437,0.39,0.731c-0.376,1.326-0.194,2.666,0.522,3.869c0.883,1.48,2.511,2.644,4.353,3.109
			c1.056,0.268,2.128,0.287,3.101,0.059c0.291-0.068,0.601,0.113,0.703,0.397c0.104,0.292-0.033,0.603-0.31,0.705
			c-3.874,1.444-6.222,6.558-5.912,9.298c0.115,1.023,0.739,1.664,1.909,1.961c0.499,0.125,1.091,0.186,1.764,0.176
			c1.496-0.021,3.191-0.127,4.986-0.24c5.318-0.332,11.921-0.748,18.087,0.812c1.61,0.408,3.121,0.953,4.55,1.604
			c17.678-21.555,28.29-49.125,28.29-79.176C249.892,55.94,193.951,0,124.947,0C97.88,0,72.825,8.609,52.365,23.235
			c4.321,3.024,8.375,6.45,12.141,10.286c10.602,10.799,17.156,22.803,21.943,31.57c0.496,0.908,4.938,8.932,8.135,10.948
			c0,0,2.011,1.339,4.07,0.201c8.926-4.933,11.755-24.172,11.104-29.953c-0.082-0.731,0.457-1.37,1.232-1.424
			c0.759-0.054,1.462,0.499,1.563,1.23c0.457,3.279,2.146,6.043,4.884,7.995c3.366,2.399,8.063,3.381,12.557,2.626
			c2.576-0.433,4.949-1.423,6.865-2.865c0.569-0.429,1.428-0.33,1.926,0.197c0.512,0.542,0.512,1.353,0.004,1.846
			c-7.112,6.914-7.333,20.404-4.01,26.125c1.238,2.135,3.229,2.941,6.084,2.462c1.217-0.205,2.576-0.647,4.043-1.317
			c3.266-1.485,6.886-3.357,10.721-5.336c11.354-5.864,25.457-13.149,40.501-15.676c13.185-2.214,25.503-0.409,36.618,5.369
			c0.556,0.289,0.863,0.872,0.767,1.454c-0.097,0.571-0.582,1.01-1.187,1.065c-0.698,0.066-1.407,0.157-2.108,0.275
			c-8.612,1.447-16.803,6.772-21.37,13.897c-3.23,5.042-4.236,10.471-2.828,15.289c0.149,0.51-0.021,1.047-0.438,1.367
			c-0.411,0.318-1.012,0.371-1.501,0.135c-2.856-1.38-5.894-1.813-9.021-1.289c-4.753,0.799-9.295,3.828-12.154,8.105
			c-2.623,3.929-3.5,8.346-2.465,12.434c0.166,0.652-0.178,1.291-0.813,1.521c-0.638,0.231-1.378-0.03-1.741-0.596
			c-2.402-3.718-9.715-6.999-19.564-8.772c-10.094-1.817-21.519-1.915-31.34-0.266c-11.744,1.973-20.134,6.295-23.628,12.17
			c-0.308,0.521-1,0.769-1.621,0.565c-0.637-0.204-1.054-0.788-1.015-1.417c0.439-7.268-4.138-15.885-12.888-24.264
			c-12.731-12.182-32.873-22.371-43.109-21.8c-0.672,0.038-1.303-0.393-1.498-1.021c-0.189-0.613,0.026-1.18,0.669-1.536
			c0,0,7.529-4.112,2.65-15.871c-1.572-3.788-6.168-7.826-17.298-6.364c-0.564,0.074-1.129-0.185-1.439-0.661
			c-0.312-0.474-0.301-1.063,0.026-1.499c2.671-3.548,4.506-7.041,5.516-10.459C12.657,62.276,0,92.131,0,124.946
			c0,13.012,1.991,25.557,5.681,37.351c8.738-1.864,17.471-1.699,26.059,0.513c9.603,2.471,17.344,6.988,22.997,10.287
			c0.586,0.342,5.793,3.342,8.27,3.391c0,0,1.582,0.07,2.352-1.265c3.339-5.789-1.585-17.542-3.906-20.565
			c-0.293-0.383-0.207-0.922,0.21-1.215c0.407-0.287,0.989-0.217,1.293,0.16c1.366,1.686,3.25,2.665,5.446,2.834
			c2.701,0.207,5.668-0.832,7.935-2.775c1.299-1.114,2.295-2.475,2.882-3.932c0.175-0.434,0.689-0.668,1.148-0.541
			c0.47,0.131,0.744,0.586,0.626,1.035c-1.651,6.285,2.791,13.93,6.592,16.016c1.417,0.779,2.807,0.559,4.247-0.678
			c0.613-0.525,1.227-1.234,1.823-2.107c1.329-1.938,2.727-4.213,4.209-6.621c4.386-7.133,9.834-15.993,17.421-22.504
			c6.648-5.703,14.172-8.858,22.364-9.379c0.409-0.026,0.779,0.197,0.922,0.556c0.14,0.354,0.016,0.765-0.305,1
			c-0.369,0.272-0.736,0.563-1.09,0.866c-4.344,3.73-7.137,9.488-7.288,15.031c-0.106,3.924,1.167,7.31,3.587,9.535
			c0.258,0.236,0.342,0.596,0.219,0.916c-0.123,0.318-0.442,0.551-0.797,0.584c-2.07,0.191-3.92,0.978-5.498,2.33
			c-2.396,2.057-3.919,5.293-4.077,8.66c-0.143,3.092,0.86,5.867,2.825,7.811c0.312,0.312,0.336,0.785,0.057,1.129
			c-0.278,0.347-0.783,0.449-1.178,0.257c-2.606-1.272-7.82-0.64-13.947,1.698c-6.279,2.396-12.722,6.207-17.675,10.457
			c-5.922,5.082-9.167,10.347-9.14,14.824c0.003,0.396-0.302,0.771-0.718,0.867c-0.427,0.102-0.858-0.086-1.049-0.453
			c-2.213-4.227-7.697-7.512-15.443-9.252c-11.267-2.529-26.017-1.43-31.567,2.354c-0.364,0.25-0.864,0.222-1.186-0.065
			c-0.314-0.28-0.385-0.671-0.145-1.089c0,0,2.833-4.855-3.884-9.803c-2.164-1.592-6.109-2.303-11.86,2.283
			c-0.292,0.232-0.696,0.279-1.032,0.117c-0.335-0.162-0.528-0.494-0.492-0.851c0.664-6.442-0.883-11.345-4.597-14.565
			c-1.499-1.303-3.195-2.205-4.914-2.82c17.359,48.144,63.442,82.564,117.569,82.564c32.793,0,62.631-12.641,84.922-33.308
			C208.035,216.26,206.008,216.67,204.345,217.731z"/>
	</g>
</g>
<g>
</g>
<g>
</g>
<g>
</g>
<g>
</g>
<g>
</g>
<g>
</g>
<g>
</g>
<g>
</g>
<g>
</g>
<g>
</g>
<g>
</g>
<g>
</g>
<g>
</g>
<g>
</g>
<g>
</g>
</svg>
