<?xml version="1.0" encoding="UTF-8" standalone="no"?>
<!-- Generator: Adobe Illustrator 16.0.0, SVG Export Plug-In . SVG Version: 6.00 Build 0)  -->

<svg
   xmlns:dc="http://purl.org/dc/elements/1.1/"
   xmlns:cc="http://creativecommons.org/ns#"
   xmlns:rdf="http://www.w3.org/1999/02/22-rdf-syntax-ns#"
   xmlns:svg="http://www.w3.org/2000/svg"
   xmlns="http://www.w3.org/2000/svg"
   xmlns:sodipodi="http://sodipodi.sourceforge.net/DTD/sodipodi-0.dtd"
   xmlns:inkscape="http://www.inkscape.org/namespaces/inkscape"
   version="1.1"
   id="Layer_1"
   x="0px"
   y="0px"
   width="100"
   height="100"
   viewBox="74.41 197.715 100 100"
   enable-background="new 74.41 197.715 446.46 446.46"
   xml:space="preserve"
   inkscape:version="0.91pre4 r13712"
   sodipodi:docname="blogger.svg"><metadata
   id="metadata25089"><rdf:RDF><cc:Work
       rdf:about=""><dc:format>image/svg+xml</dc:format><dc:type
         rdf:resource="http://purl.org/dc/dcmitype/StillImage" /><dc:title></dc:title></cc:Work></rdf:RDF></metadata><defs
   id="defs25087" /><sodipodi:namedview
   pagecolor="#ffffff"
   bordercolor="#666666"
   borderopacity="1"
   objecttolerance="10"
   gridtolerance="10"
   guidetolerance="10"
   inkscape:pageopacity="0"
   inkscape:pageshadow="2"
   inkscape:window-width="1920"
   inkscape:window-height="1017"
   id="namedview25085"
   showgrid="false"
   inkscape:zoom="1.06"
   inkscape:cx="223.23"
   inkscape:cy="223.23"
   inkscape:window-x="-8"
   inkscape:window-y="-8"
   inkscape:window-maximized="1"
   inkscape:current-layer="Layer_1" />
<path
   d="m 86.910004,210.215 74.999996,0 0,75 -74.999996,0 0,-75 z"
   id="path25081"
   inkscape:connector-curvature="0"
   style="fill:#ffffff" />
<path
   d="m 89.618084,197.715 c -8.54164,0 -15.20808,6.66666 -15.20808,15.2083 l 0,69.7917 c 0,8.33333 6.66667,15 15.20808,15 l 69.791696,0 c 8.33333,0 15.00022,-6.66667 15.00022,-15 l 0,-69.7917 c 0,-8.54164 -6.66689,-15.2083 -15.00022,-15.2083 l -69.791696,0 z m 37.083276,19.58316 c 8.33333,0 17.50011,10.20831 17.50011,17.0835 l 0,2.70842 c 0,1.66667 1.66644,3.33333 3.54164,3.33333 l 4.58339,0 c 1.45836,0 3.12503,1.87498 3.12503,3.74995 l 0,15.83322 c -0.41661,11.25006 -10.62514,18.54164 -18.95848,18.54164 l -22.29158,0 c -11.45814,0 -20.208296,-9.37486 -20.208296,-18.74995 l 0,-24.16655 c 0.41661,-9.58339 8.749936,-18.33333 18.958466,-18.33333 l 13.74972,0 z m -13.12481,15.83345 c -4.79169,0.2083 -5.62491,7.08327 0.41662,7.29158 l 11.25005,0 c 4.58339,-0.20831 3.95825,-7.08328 0.20831,-7.29158 l -11.87498,0 z m -0.83344,22.29158 c -4.16678,0.20853 -4.16678,6.66689 0,7.0835 l 23.12503,0 c 4.58339,-0.62514 4.58339,-7.0835 0,-7.0835 l -23.12503,0 z"
   id="path25083"
   inkscape:connector-curvature="0"
   style="fill:#f57d00" />
<text
   xml:space="preserve"
   style="font-style:normal;font-variant:normal;font-weight:normal;font-stretch:normal;font-size:27.5px;line-height:125%;font-family:'Lucida Sans Unicode';-inkscape-font-specification:'Lucida Sans Unicode';letter-spacing:0px;word-spacing:0px;fill:#000000;fill-opacity:1;stroke:none;stroke-width:1px;stroke-linecap:butt;stroke-linejoin:miter;stroke-opacity:1"
   x="149.8817"
   y="221.29991"
   id="text25631"
   sodipodi:linespacing="125%"><tspan
     sodipodi:role="line"
     id="tspan25633"
     x="149.8817"
     y="221.29991"></tspan></text>
</svg>