<?xml version="1.0" encoding="UTF-8" standalone="no"?>
<!-- Created with Inkscape (http://www.inkscape.org/) -->

<svg
   xmlns:dc="http://purl.org/dc/elements/1.1/"
   xmlns:cc="http://creativecommons.org/ns#"
   xmlns:rdf="http://www.w3.org/1999/02/22-rdf-syntax-ns#"
   xmlns:svg="http://www.w3.org/2000/svg"
   xmlns="http://www.w3.org/2000/svg"
   xmlns:sodipodi="http://sodipodi.sourceforge.net/DTD/sodipodi-0.dtd"
   xmlns:inkscape="http://www.inkscape.org/namespaces/inkscape"
   width="100"
   height="100"
   id="svg3052"
   version="1.1"
   inkscape:version="0.91pre4 r13712"
   sodipodi:docname="caver.svg"
   inkscape:export-filename="C:\Users\urien\Desktop\caver2.png"
   inkscape:export-xdpi="200.06245"
   inkscape:export-ydpi="200.06245">
  <defs
     id="defs3054">
    <filter
       inkscape:collect="always"
       id="filter5145">
      <feGaussianBlur
         inkscape:collect="always"
         stdDeviation="11.438133"
         id="feGaussianBlur5147" />
    </filter>
  </defs>
  <sodipodi:namedview
     id="base"
     pagecolor="#ffffff"
     bordercolor="#666666"
     borderopacity="1.0"
     inkscape:pageopacity="0.0"
     inkscape:pageshadow="2"
     inkscape:zoom="0.58997885"
     inkscape:cx="24.831407"
     inkscape:cy="582.60481"
     inkscape:document-units="px"
     inkscape:current-layer="layer1"
     showgrid="false"
     inkscape:window-width="1920"
     inkscape:window-height="1017"
     inkscape:window-x="-8"
     inkscape:window-y="-8"
     inkscape:window-maximized="1"
     units="px" />
  <metadata
     id="metadata3057">
    <rdf:RDF>
      <cc:Work
         rdf:about="">
        <dc:format>image/svg+xml</dc:format>
        <dc:type
           rdf:resource="http://purl.org/dc/dcmitype/StillImage" />
        <dc:title></dc:title>
      </cc:Work>
    </rdf:RDF>
  </metadata>
  <g
     inkscape:label="Calque 1"
     inkscape:groupmode="layer"
     id="layer1"
     transform="translate(0,-952.36223)">
    <g
       id="g4327"
       transform="translate(1006.3298,476.26239)"
       inkscape:export-filename="E:\Mes Documents\Dropbox\MaquetteGC\Test-Grottocenter3-Fred\img\icon\caver_flat32.png"
       inkscape:export-xdpi="4.8694196"
       inkscape:export-ydpi="4.8694196" />
    <path
       style="fill:#ffffff;fill-opacity:1;fill-rule:nonzero;stroke:#ffffff;stroke-width:57.1428566;stroke-miterlimit:4;stroke-dasharray:none;stroke-opacity:1"
       d=""
       id="path3876"
       inkscape:connector-curvature="0" />
    <g
       id="g6041"
       transform="matrix(0.14798527,0,0,0.1448416,-7.0133764,926.48848)">
      <path
         transform="matrix(0.98517191,0,0,1.0053486,383.72213,750.26003)"
         inkscape:connector-curvature="0"
         id="path3093-3"
         d="m -243.21478,58.529569 c -11.2971,-4.00843 -26.82386,-17.474597 -33.73304,-29.256277 l -7.65748,-13.05766 -0.019,-240.000002 c -0.0105,-132 0.96385,-243.51214 2.16512,-247.80474 3.03086,-10.83038 18.02124,-27.16938 31.00295,-33.79216 10.50687,-5.3602 18.94956,-5.54596 252.06445842,-5.54596 265.07260158,0 252.01811158,-0.85447 269.40562158,17.63382 17.73598,18.85882 16.6976,4.73361 17.60663,239.50904 0.45937,118.64286 -0.30303,230.206912 -1.6942,247.9201419 -2.31725,29.5045501 -3.23997,33.0992301 -11.00085,42.8571501 -4.65926,5.8582 -14.1336,13.54414 -21.05406,17.079847 l -12.58263,6.42857 -240.1088916,-0.22542 c -132.0598784,-0.1242 -242.0374484,-0.91 -244.3945984,-1.74635 z"
         style="opacity:0.90799997;fill:#4d4d4d;fill-opacity:1;fill-rule:nonzero;filter:url(#filter5145)" />
      <path
         inkscape:connector-curvature="0"
         id="path3093"
         d="m -887.60049,309.39869 c -11.2971,-4.00843 -26.82386,-17.4746 -33.73304,-29.25628 l -7.65748,-13.05766 -0.019,-240 c -0.0105,-132 0.96385,-243.51214 2.16512,-247.80474 3.03086,-10.83038 18.02124,-27.16938 31.00295,-33.79216 10.50687,-5.3602 18.94956,-5.54596 252.06446,-5.54596 265.0726,0 252.01811,-0.85447 269.40562,17.63382 17.73598,18.85882 16.6976,4.73361 17.60663,239.50904 0.45937,118.64286 -0.30303,230.20691 -1.6942,247.92014 -2.31725,29.50455 -3.23997,33.09923 -11.00085,42.85715 -4.65926,5.8582 -14.1336,13.54414 -21.05406,17.07985 l -12.58263,6.42857 -240.10889,-0.22542 c -132.05988,-0.1242 -242.03745,-0.91 -244.3946,-1.74635 z"
         style="fill:#f67e07;fill-opacity:1;fill-rule:nonzero;stroke:#ffffff;stroke-width:10;stroke-miterlimit:4;stroke-dasharray:none;stroke-opacity:1"
         transform="translate(1006.3298,476.26239)" />
      <path
         sodipodi:nodetypes="sssssssscscssssssccccccsassssssssss"
         inkscape:connector-curvature="0"
         id="path4351-0-9"
         d="m 319.85751,350.48632 c -16.01972,-2.18886 -39.99579,-0.94078 -52.84985,1.13567 -85.58174,13.82489 -127.7847,54.91551 -157.44963,117.04201 -14.520291,30.40947 -14.108016,97.54057 -10.759751,111.40274 2.538071,10.50788 53.488411,-10.00293 112.056501,-25.58189 86.62701,-23.04256 13.74678,-3.22896 91.79022,-24.58375 59.23423,-16.20808 59.6688,-16.61227 90.05374,-23.36145 18.20975,-4.04481 40.87933,-7.13618 53.64634,-13.62752 12.13107,-6.16799 14.64034,-7.19101 38.48015,-10.08538 -1.51323,-23.06711 -0.38442,-12.87458 -1.41187,-29.95493 -0.52384,-8.70827 -1.2964,-10.75778 -2.48368,-37.11582 -8.77546,-0.38308 -23.26058,0.90462 -30.84069,-0.19418 -8.93908,-1.29573 -9.03662,9.85073 -10.66582,9.63862 -1.61449,-0.21019 -3.31627,-3.02932 -5.53277,-6.37515 -4.90221,-7.39989 -10.93718,-14.96132 -15.67218,-19.19933 -34.69609,-31.05452 -62.25695,-44.20666 -98.36071,-49.13964 z m 127.01298,195.69344 c -9.691,1.818 -28.85728,7.75401 -58.58036,15.26637 l -72.12211,23.48178 12.02399,40.91398 14.11215,37.34995 20.58581,42.57802 25.84199,31.42559 c -9.47545,7.49804 -16.25423,17.76021 -21.4503,11.07815 -10.06199,-12.9394 -17.17352,-21.65517 -24.3463,-33.54037 -10.01893,-16.60126 -4.98437,-4.90158 -25.88052,-52.38353 -2.45523,-5.57899 -20.71266,-58.34753 -31.05226,-69.8393 -2.89792,-3.2208 -19.62772,2.68998 -25.20342,4.26229 -43.91512,12.38356 -110.07047,32.52331 -128.86566,37.19506 -43.877261,10.9061 44.85972,87.41949 69.26757,100.47028 27.298,14.59619 51.39241,25.66383 77.00618,29.06129 10.82232,1.43552 41.11973,2.5387 59.55329,-1.66948 28.06609,-6.40715 34.99925,-9.2761 57.85872,-29.78905 42.05092,-37.7343 63.16272,-87.24451 65.00924,-148.05904 0.86021,-28.33763 3.94227,-41.12254 -13.75801,-37.80199 z"
         style="fill:#ffffff;fill-opacity:1" />
      <path
         inkscape:export-ydpi="3.4936316"
         inkscape:export-xdpi="3.4936316"
         inkscape:export-filename="C:\Users\urien\Desktop\icones\icones\caver2_connected.png"
         style="fill:#ffff00"
         d="m 582.46172,295.19527 c -1.25459,1.09189 -12.22028,13.20967 -24.55956,30.3179 -61.81924,85.71145 -66.85686,91.20238 -67.32074,94.33888 -0.27121,1.83395 1.63663,48.5544 2.14441,50.63464 0.6847,9.4871 7.60343,8.34019 63.52829,21.45838 l 58.54768,13.73343 4.82156,-15.49638 c 1.59063,-5.11224 2.46217,-10.32901 3.62032,-23.88168 0.81486,-9.53537 1.76375,-26.31948 1.4248,-41.76193 -0.4265,-19.432 -2.57324,-39.16852 -3.56814,-46.37507 -3.42519,-24.80806 -15.03119,-56.16601 -24.24937,-72.37407 -6.10666,-10.73725 -10.50419,-13.975 -14.38902,-10.5941 z"
         id="path4351-4"
         inkscape:connector-curvature="0"
         sodipodi:nodetypes="csscscssscscc" />
    </g>
  </g>
</svg>
