<?xml version="1.0" encoding="UTF-8" standalone="no"?>
<!-- Created with Inkscape (http://www.inkscape.org/) -->

<svg
   xmlns:osb="http://www.openswatchbook.org/uri/2009/osb"
   xmlns:dc="http://purl.org/dc/elements/1.1/"
   xmlns:cc="http://creativecommons.org/ns#"
   xmlns:rdf="http://www.w3.org/1999/02/22-rdf-syntax-ns#"
   xmlns:svg="http://www.w3.org/2000/svg"
   xmlns="http://www.w3.org/2000/svg"
   xmlns:xlink="http://www.w3.org/1999/xlink"
   xmlns:sodipodi="http://sodipodi.sourceforge.net/DTD/sodipodi-0.dtd"
   xmlns:inkscape="http://www.inkscape.org/namespaces/inkscape"
   width="100"
   height="100"
   id="svg3052"
   version="1.1"
   inkscape:version="0.91pre4 r13712"
   sodipodi:docname="club.svg"
   inkscape:export-filename="E:\Mes Documents\Dropbox\MaquetteGC\Test-Grottocenter3-Fred\img\icon\caver_flat64.png"
   inkscape:export-xdpi="3.5547156"
   inkscape:export-ydpi="3.5547156">
  <defs
     id="defs3054">
    <linearGradient
       inkscape:collect="always"
       id="linearGradient8737">
      <stop
         style="stop-color:#666666;stop-opacity:1;"
         offset="0"
         id="stop8739" />
      <stop
         style="stop-color:#666666;stop-opacity:0.212"
         offset="1"
         id="stop8741" />
    </linearGradient>
    <linearGradient
       id="linearGradient8716"
       osb:paint="solid">
      <stop
         style="stop-color:#000000;stop-opacity:1;"
         offset="0"
         id="stop8718" />
    </linearGradient>
    <radialGradient
       inkscape:collect="always"
       xlink:href="#linearGradient8737"
       id="radialGradient8745"
       cx="-614.3454"
       cy="48.834915"
       fx="-614.3454"
       fy="48.834915"
       r="286.18932"
       gradientTransform="matrix(-0.0024347,1.815065,-1.3694324,-0.00182966,-548.96503,1164.0011)"
       gradientUnits="userSpaceOnUse" />
    <filter
       inkscape:collect="always"
       style="color-interpolation-filters:sRGB"
       id="filter8767"
       x="-0.059950505"
       width="1.119901"
       y="-0.060049537"
       height="1.1200991">
      <feGaussianBlur
         inkscape:collect="always"
         stdDeviation="14.297662"
         id="feGaussianBlur8769" />
    </filter>
  </defs>
  <sodipodi:namedview
     id="base"
     pagecolor="#ffffff"
     bordercolor="#666666"
     borderopacity="1.0"
     inkscape:pageopacity="0.0"
     inkscape:pageshadow="2"
     inkscape:zoom="3.56"
     inkscape:cx="1.4464407"
     inkscape:cy="29.497182"
     inkscape:document-units="px"
     inkscape:current-layer="g8774"
     showgrid="false"
     inkscape:window-width="1920"
     inkscape:window-height="1017"
     inkscape:window-x="-8"
     inkscape:window-y="-8"
     inkscape:window-maximized="1"
     units="px" />
  <metadata
     id="metadata3057">
    <rdf:RDF>
      <cc:Work
         rdf:about="">
        <dc:format>image/svg+xml</dc:format>
        <dc:type
           rdf:resource="http://purl.org/dc/dcmitype/StillImage" />
        <dc:title></dc:title>
      </cc:Work>
    </rdf:RDF>
  </metadata>
  <g
     inkscape:label="Calque 1"
     inkscape:groupmode="layer"
     id="layer1"
     transform="translate(0,-952.36216)">
    <path
       style="fill:#ffffff;fill-opacity:1;fill-rule:nonzero;stroke:#ffffff;stroke-width:57.1428566;stroke-miterlimit:4;stroke-dasharray:none;stroke-opacity:1"
       d=""
       id="path3876"
       inkscape:connector-curvature="0" />
    <g
       id="g5557"
       transform="matrix(0.14156854,0,0,0.14184921,106.53055,1018.4517)">
      <g
         inkscape:export-ydpi="4.8694196"
         inkscape:export-xdpi="4.8694196"
         inkscape:export-filename="E:\Mes Documents\Dropbox\MaquetteGC\Test-Grottocenter3-Fred\img\icon\caver_flat32.png"
         transform="translate(243.17191,-135.57971)"
         id="g4327" />
      <g
         id="g8774"
         transform="matrix(1.1019899,0,0,1.1013914,9.7136982,-17.887096)">
        <path
           inkscape:transform-center-y="0.59762505"
           inkscape:transform-center-x="0.79681337"
           style="fill:#ffffff;fill-opacity:0;fill-rule:nonzero;stroke:none;stroke-width:10;stroke-miterlimit:4;stroke-dasharray:none;stroke-opacity:1"
           d="m -862.4214,328.75986 c -11.2971,-4.00842 -26.8239,-17.4746 -33.7331,-29.25628 l -7.6575,-13.05766 -0.019,-239.99999 c -0.01,-132.000009 0.9639,-243.51214 2.1652,-247.80474 3.0308,-10.83038 18.0212,-27.16938 31.0029,-33.79216 10.5069,-5.3602 18.9496,-5.54596 252.06446,-5.54596 265.0726,0 252.01811,-0.85447 269.40563,17.63382 17.73598,18.85882 16.6976,4.7336 17.60663,239.509042 0.45935,118.642858 -0.30304,230.206908 -1.69421,247.920138 -2.31724,29.50455 -3.23997,33.09922 -11.00085,42.85714 -4.65926,5.85821 -14.13359,13.54414 -21.05406,17.07986 l -12.58262,6.42856 -240.10889,-0.22545 c -132.05989,-0.12416 -242.03749,-0.90996 -244.39459,-1.74632 z"
           id="path3093-1"
           inkscape:connector-curvature="0"
           inkscape:export-filename="C:\Users\urien\Desktop\icones\icones\caver2.png"
           inkscape:export-xdpi="3.4936316"
           inkscape:export-ydpi="3.4936316"
           transform="translate(243.17189,-135.57971)" />
        <path
           style="fill:url(#radialGradient8745);fill-opacity:1;fill-rule:nonzero;stroke:none;stroke-width:10;stroke-miterlimit:4;stroke-dasharray:none;stroke-opacity:1;filter:url(#filter8767)"
           d="m -859.12511,332.58049 c -11.2971,-4.00844 -26.8238,-17.4746 -33.733,-29.25628 l -7.6575,-13.05765 -0.019,-240.000006 c -0.011,-132 0.9638,-243.512144 2.1651,-247.804744 3.0309,-10.83038 18.0213,-27.16938 31.003,-33.79216 10.5068,-5.3602 18.9495,-5.54596 252.06443,-5.54596 265.0726,0 252.01811,-0.85447 269.40561,17.63382 17.73599,18.85882 16.69761,4.73361 17.60663,239.509044 0.45936,118.642856 -0.30303,230.206916 -1.69419,247.920136 -2.31725,29.50454 -3.23997,33.09923 -11.00086,42.85715 -4.65925,5.8582 -14.1336,13.54414 -21.05405,17.07984 l -12.58264,6.42858 -240.10889,-0.22545 c -132.05984,-0.12417 -242.03744,-0.90997 -244.39464,-1.74632 z"
           id="path3093-3"
           inkscape:connector-curvature="0"
           inkscape:export-filename="C:\Users\urien\Desktop\icones\icones\caver2.png"
           inkscape:export-xdpi="3.4936316"
           inkscape:export-ydpi="3.4936316"
           transform="translate(243.17189,-135.57971)" />
        <path
           style="fill:#f67e07;fill-opacity:1;fill-rule:nonzero;stroke:none;stroke-width:10;stroke-miterlimit:4;stroke-dasharray:none;stroke-opacity:1"
           d="m -887.60049,309.39869 c -11.2971,-4.00843 -26.82386,-17.4746 -33.73304,-29.25628 l -7.65748,-13.05766 -0.019,-240 c -0.0105,-132 0.96385,-243.51214 2.16512,-247.80474 3.03086,-10.83038 18.02124,-27.16938 31.00295,-33.79216 10.50687,-5.3602 18.94956,-5.54596 252.06446,-5.54596 265.0726,0 252.01811,-0.85447 269.40562,17.63382 17.73598,18.85882 16.6976,4.73361 17.60663,239.50904 0.45937,118.64286 -0.30303,230.20691 -1.6942,247.92014 -2.31725,29.50455 -3.23997,33.09923 -11.00085,42.85715 -4.65926,5.8582 -14.1336,13.54414 -21.05406,17.07985 l -12.58263,6.42857 -240.10889,-0.22542 c -132.05988,-0.1242 -242.03745,-0.91 -244.3946,-1.74635 z"
           id="path3093"
           inkscape:connector-curvature="0"
           inkscape:export-filename="C:\Users\urien\Desktop\icones\icones\caver2.png"
           inkscape:export-xdpi="3.4936316"
           inkscape:export-ydpi="3.4936316"
           transform="translate(243.17189,-135.57971)" />
        <path
           inkscape:connector-curvature="0"
           id="path3954"
           d="m -604.32696,141.61747 -2.82376,-3.23859 0,-143.2432665 0,-143.2433135 7.52821,-6.59057 c 20.92003,-18.31454 67.97296,-51.24843 155.13268,-108.58232 25.51286,-16.78246 38.71301,-24.84159 39.88143,-24.34894 1.55557,0.6559 19.68163,12.64821 45.45849,30.07554 4.91272,3.32143 19.5721,13.2085 32.57637,21.97126 54.01208,36.39538 98.78178,67.79133 112.17835,78.66811 l 7.61867,6.18566 0,144.4388537 c 0,144.1732563 0,144.4450263 -2.17327,147.7925163 l -2.17326,3.35365 -93.25757,0 -93.2576,0 -2.81735,-3.23132 -2.81742,-3.23132 -0.26903,-92.319569 -0.26903,-92.319563 -64.62738,0 -64.6273,0 -0.26903,92.319563 -0.26903,92.319569 -2.81743,3.23132 -2.81742,3.23132 -31.13228,0 -31.13228,0 -2.82376,-3.23859 z m 369.70289,-133.0152359 0,-54.8479461 -54.11885,0 -54.11882,0 -0.27381,53.6932612 c -0.15061,29.5312768 -0.0455,54.3474718 0.2334,55.1471088 0.40049,1.147955 11.84489,1.390918 54.39264,1.154701 l 53.88544,-0.299188 0,-54.8479369 z M -649.85915,-159.92982 c -5.62812,-1.47473 -10.62213,-5.65523 -12.87495,-10.77765 -2.80387,-6.37517 -3.80847,-16.2647 -2.28359,-22.48047 2.55091,-10.39827 21.08523,-27.35204 45.78223,-41.87822 5.77967,-3.39946 15.00088,-9.37551 20.49156,-13.2801 5.49067,-3.9046 14.71196,-10.44849 20.49156,-14.54199 5.77975,-4.09351 18.9183,-13.40146 29.19687,-20.68434 10.27858,-7.28288 19.49451,-13.76122 20.47979,-14.3963 0.98536,-0.63509 4.87055,-3.26647 8.6338,-5.84753 63.66986,-43.66827 84.73163,-57.63328 100.52175,-66.65089 6.80424,-3.88588 8.28618,-4.28871 15.77745,-4.28871 l 8.26783,0 27.1315,19.06166 c 14.9223,10.48391 27.56531,18.76705 28.09552,18.40695 0.53025,-0.36009 0.96408,-6.70105 0.96408,-14.09102 0,-13.00826 0.09,-13.5395 2.82372,-16.6749 l 2.82374,-3.2386 59.50532,0 59.50527,0 2.81417,3.22772 2.81428,3.22771 0.27218,60.5691 0.27228,60.5691 7.88137,4.47952 c 26.55132,15.09095 43.52245,28.55013 50.96627,40.41941 3.84147,6.1254 4.19699,7.32363 4.129,13.91673 -0.12579,12.19963 -6.20937,19.77566 -19.14378,23.84008 -3.87553,1.21783 -7.54594,2.21424 -8.15648,2.21424 -0.8763,0 -26.95,-15.82868 -34.10011,-20.70141 -2.95835,-2.01606 -19.417,-13.12781 -35.72894,-24.12184 -15.51464,-10.45663 -20.00304,-13.51266 -28.37295,-19.31869 -3.21424,-2.22959 -26.4296,-18.16139 -44.38156,-30.45731 -20.2369,-13.86095 -54.87552,-37.90926 -76.13545,-52.85799 -11.74038,-8.25513 -14.17593,-9.55411 -15.95369,-8.50868 -1.15397,0.67859 -11.23333,7.53648 -22.39872,15.23978 -11.16538,7.70328 -23.13802,15.9267 -26.60577,18.27424 -3.46784,2.34755 -11.9797,8.19588 -18.9153,12.99631 -51.37234,35.55696 -131.39425,89.02148 -152.34878,101.78789 -12.73232,7.75705 -15.06664,8.4462 -22.24147,6.5662 z"
           style="fill:#ffffff;fill-opacity:1" />
        <path
           inkscape:connector-curvature="0"
           id="path3982"
           d="m -341.87184,8.6586622 0,-53.9363292 53.56103,0 53.56103,0 0,53.9363292 0,53.9363448 -53.56103,0 -53.56103,0 0,-53.9363448 z"
           style="fill:#ffff00;fill-opacity:1;fill-rule:nonzero;stroke:#ffffff;stroke-width:29.07707405;stroke-miterlimit:4;stroke-dasharray:none;stroke-opacity:1" />
      </g>
    </g>
  </g>
</svg>
