<?xml version="1.0" encoding="UTF-8" standalone="no"?>
<!-- Created with Inkscape (http://www.inkscape.org/) -->

<svg
   xmlns:osb="http://www.openswatchbook.org/uri/2009/osb"
   xmlns:dc="http://purl.org/dc/elements/1.1/"
   xmlns:cc="http://creativecommons.org/ns#"
   xmlns:rdf="http://www.w3.org/1999/02/22-rdf-syntax-ns#"
   xmlns:svg="http://www.w3.org/2000/svg"
   xmlns="http://www.w3.org/2000/svg"
   xmlns:xlink="http://www.w3.org/1999/xlink"
   xmlns:sodipodi="http://sodipodi.sourceforge.net/DTD/sodipodi-0.dtd"
   xmlns:inkscape="http://www.inkscape.org/namespaces/inkscape"
   width="100"
   height="100"
   id="svg3052"
   version="1.1"
   inkscape:version="0.91pre4 r13712"
   sodipodi:docname="club-cluster.svg"
   inkscape:export-filename="E:\Mes Documents\Dropbox\MaquetteGC\Test-Grottocenter3-Fred\img\icon\caver_flat64.png"
   inkscape:export-xdpi="3.5547156"
   inkscape:export-ydpi="3.5547156">
  <defs
     id="defs3054">
    <linearGradient
       inkscape:collect="always"
       id="linearGradient8737">
      <stop
         style="stop-color:#666666;stop-opacity:1;"
         offset="0"
         id="stop8739" />
      <stop
         style="stop-color:#666666;stop-opacity:0.212"
         offset="1"
         id="stop8741" />
    </linearGradient>
    <linearGradient
       id="linearGradient8716"
       osb:paint="solid">
      <stop
         style="stop-color:#000000;stop-opacity:1;"
         offset="0"
         id="stop8718" />
    </linearGradient>
    <radialGradient
       inkscape:collect="always"
       xlink:href="#linearGradient8737"
       id="radialGradient8745"
       cx="-614.3454"
       cy="48.834915"
       fx="-614.3454"
       fy="48.834915"
       r="286.18932"
       gradientTransform="matrix(-0.0024347,1.815065,-1.3694324,-0.00182966,-548.96503,1164.0011)"
       gradientUnits="userSpaceOnUse" />
    <filter
       inkscape:collect="always"
       style="color-interpolation-filters:sRGB"
       id="filter8767"
       x="-0.059950505"
       width="1.119901"
       y="-0.060049537"
       height="1.1200991">
      <feGaussianBlur
         inkscape:collect="always"
         stdDeviation="14.297662"
         id="feGaussianBlur8769" />
    </filter>
  </defs>
  <sodipodi:namedview
     id="base"
     pagecolor="#ffffff"
     bordercolor="#666666"
     borderopacity="1.0"
     inkscape:pageopacity="0.0"
     inkscape:pageshadow="2"
     inkscape:zoom="1.2502642"
     inkscape:cx="1.4464407"
     inkscape:cy="29.497182"
     inkscape:document-units="px"
     inkscape:current-layer="g8774"
     showgrid="false"
     inkscape:window-width="1920"
     inkscape:window-height="1017"
     inkscape:window-x="-8"
     inkscape:window-y="-8"
     inkscape:window-maximized="1"
     units="px" />
  <metadata
     id="metadata3057">
    <rdf:RDF>
      <cc:Work
         rdf:about="">
        <dc:format>image/svg+xml</dc:format>
        <dc:type
           rdf:resource="http://purl.org/dc/dcmitype/StillImage" />
        <dc:title></dc:title>
      </cc:Work>
    </rdf:RDF>
  </metadata>
  <g
     inkscape:label="Calque 1"
     inkscape:groupmode="layer"
     id="layer1"
     transform="translate(0,-952.36216)">
    <path
       style="fill:#ffffff;fill-opacity:1;fill-rule:nonzero;stroke:#ffffff;stroke-width:57.1428566;stroke-miterlimit:4;stroke-dasharray:none;stroke-opacity:1"
       d=""
       id="path3876"
       inkscape:connector-curvature="0" />
    <g
       id="g5557"
       transform="matrix(0.14156854,0,0,0.14184921,106.53055,1018.4517)">
      <g
         inkscape:export-ydpi="4.8694196"
         inkscape:export-xdpi="4.8694196"
         inkscape:export-filename="E:\Mes Documents\Dropbox\MaquetteGC\Test-Grottocenter3-Fred\img\icon\caver_flat32.png"
         transform="translate(243.17191,-135.57971)"
         id="g4327" />
      <g
         id="g8774"
         transform="matrix(1.1019899,0,0,1.1013914,9.7136982,-17.887096)">
        <path
           inkscape:transform-center-y="0.59762505"
           inkscape:transform-center-x="0.79681337"
           style="fill:#ffffff;fill-opacity:0;fill-rule:nonzero;stroke:none;stroke-width:10;stroke-miterlimit:4;stroke-dasharray:none;stroke-opacity:1"
           d="m -862.4214,328.75986 c -11.2971,-4.00842 -26.8239,-17.4746 -33.7331,-29.25628 l -7.6575,-13.05766 -0.019,-239.99999 c -0.01,-132.000009 0.9639,-243.51214 2.1652,-247.80474 3.0308,-10.83038 18.0212,-27.16938 31.0029,-33.79216 10.5069,-5.3602 18.9496,-5.54596 252.06446,-5.54596 265.0726,0 252.01811,-0.85447 269.40563,17.63382 17.73598,18.85882 16.6976,4.7336 17.60663,239.509042 0.45935,118.642858 -0.30304,230.206908 -1.69421,247.920138 -2.31724,29.50455 -3.23997,33.09922 -11.00085,42.85714 -4.65926,5.85821 -14.13359,13.54414 -21.05406,17.07986 l -12.58262,6.42856 -240.10889,-0.22545 c -132.05989,-0.12416 -242.03749,-0.90996 -244.39459,-1.74632 z"
           id="path3093-1"
           inkscape:connector-curvature="0"
           inkscape:export-filename="C:\Users\urien\Desktop\icones\icones\caver2.png"
           inkscape:export-xdpi="3.4936316"
           inkscape:export-ydpi="3.4936316"
           transform="translate(243.17189,-135.57971)" />
        <path
           style="fill:url(#radialGradient8745);fill-opacity:1;fill-rule:nonzero;stroke:none;stroke-width:10;stroke-miterlimit:4;stroke-dasharray:none;stroke-opacity:1;filter:url(#filter8767)"
           d="m -859.12511,332.58049 c -11.2971,-4.00844 -26.8238,-17.4746 -33.733,-29.25628 l -7.6575,-13.05765 -0.019,-240.000006 c -0.011,-132 0.9638,-243.512144 2.1651,-247.804744 3.0309,-10.83038 18.0213,-27.16938 31.003,-33.79216 10.5068,-5.3602 18.9495,-5.54596 252.06443,-5.54596 265.0726,0 252.01811,-0.85447 269.40561,17.63382 17.73599,18.85882 16.69761,4.73361 17.60663,239.509044 0.45936,118.642856 -0.30303,230.206916 -1.69419,247.920136 -2.31725,29.50454 -3.23997,33.09923 -11.00086,42.85715 -4.65925,5.8582 -14.1336,13.54414 -21.05405,17.07984 l -12.58264,6.42858 -240.10889,-0.22545 c -132.05984,-0.12417 -242.03744,-0.90997 -244.39464,-1.74632 z"
           id="path3093-3"
           inkscape:connector-curvature="0"
           inkscape:export-filename="C:\Users\urien\Desktop\icones\icones\caver2.png"
           inkscape:export-xdpi="3.4936316"
           inkscape:export-ydpi="3.4936316"
           transform="translate(243.17189,-135.57971)" />
        <path
           style="fill:#f67e07;fill-opacity:1;fill-rule:nonzero;stroke:none;stroke-width:10;stroke-miterlimit:4;stroke-dasharray:none;stroke-opacity:1"
           d="m -887.60049,309.39869 c -11.2971,-4.00843 -26.82386,-17.4746 -33.73304,-29.25628 l -7.65748,-13.05766 -0.019,-240 c -0.0105,-132 0.96385,-243.51214 2.16512,-247.80474 3.03086,-10.83038 18.02124,-27.16938 31.00295,-33.79216 10.50687,-5.3602 18.94956,-5.54596 252.06446,-5.54596 265.0726,0 252.01811,-0.85447 269.40562,17.63382 17.73598,18.85882 16.6976,4.73361 17.60663,239.50904 0.45937,118.64286 -0.30303,230.20691 -1.6942,247.92014 -2.31725,29.50455 -3.23997,33.09923 -11.00085,42.85715 -4.65926,5.8582 -14.1336,13.54414 -21.05406,17.07985 l -12.58263,6.42857 -240.10889,-0.22542 c -132.05988,-0.1242 -242.03745,-0.91 -244.3946,-1.74635 z"
           id="path3093"
           inkscape:connector-curvature="0"
           inkscape:export-filename="C:\Users\urien\Desktop\icones\icones\caver2.png"
           inkscape:export-xdpi="3.4936316"
           inkscape:export-ydpi="3.4936316"
           transform="translate(243.17189,-135.57971)" />
        <g
           id="g11140"
           transform="translate(15.769232,2.7925663)">
          <path
             inkscape:export-ydpi="4.192358"
             inkscape:export-xdpi="4.192358"
             inkscape:export-filename="C:\Users\urien\Desktop\icones\icones\grotto1_clust.png"
             inkscape:connector-curvature="0"
             id="path3954"
             d="m -645.19063,-148.01074 -1.2505,-1.34565 0,-59.51967 0,-59.5195 3.33395,-2.73858 c 9.26484,-7.60983 30.10299,-21.29438 68.70297,-45.11743 11.29885,-6.97338 17.14481,-10.32201 17.6622,-10.11738 0.68896,0.27259 8.71626,5.25552 20.13203,12.49686 2.17563,1.38012 8.66778,5.48829 14.42693,9.12942 23.92021,15.1227 43.74708,28.16815 49.67999,32.68759 l 3.3741,2.57024 0,60.0165 c 0,59.90592 0,60.01897 -0.96249,61.40989 l -0.96249,1.39338 -41.30054,0 -41.30069,0 -1.24775,-1.34257 -1.24774,-1.34272 -0.11899,-38.36013 -0.11899,-38.35994 -28.62112,0 -28.62129,0 -0.11898,38.35994 -0.11899,38.36013 -1.24775,1.34272 -1.24773,1.34257 -13.78739,0 -13.78754,0 -1.25053,-1.34567 z m 163.72897,-55.26971 0,-22.78998 -23.96747,0 -23.9673,0 -0.12207,22.31029 c -0.0664,12.2706 -0.0201,22.58211 0.1035,22.91432 0.1773,0.47707 5.24565,0.57792 24.08854,0.47984 l 23.86416,-0.12352 0,-22.79014 z m -183.89359,-70.02747 c -2.49253,-0.61267 -4.70415,-2.34984 -5.70186,-4.4782 -1.24187,-2.64899 -1.68666,-6.75825 -1.01144,-9.34099 1.12975,-4.32054 9.33806,-11.36514 20.27551,-17.40106 2.55959,-1.41236 6.64336,-3.89548 9.07505,-5.51791 2.43154,-1.62241 6.51532,-4.34152 9.07505,-6.0424 2.55957,-1.70102 8.37819,-5.56859 12.93023,-8.59473 4.55203,-3.02615 8.63348,-5.71792 9.06978,-5.98186 0.43647,-0.26379 2.15695,-1.35725 3.8237,-2.42969 28.19718,-18.14484 37.52472,-23.94739 44.51757,-27.69447 3.01334,-1.61455 3.66972,-1.78196 6.98729,-1.78196 l 3.66153,0 12.01562,7.92041 c 6.6086,4.35623 12.20775,7.79796 12.44266,7.64832 0.23475,-0.14981 0.42688,-2.78429 0.42688,-5.85507 0,-5.40502 0.0401,-5.62588 1.25051,-6.9286 l 1.25053,-1.34566 26.35299,0 26.35283,0 1.24635,1.34118 1.24635,1.34117 0.12046,25.16734 0.12045,25.16718 3.49041,1.86133 c 11.75863,6.27053 19.27457,11.86304 22.57114,16.79485 1.70135,2.54521 1.85873,3.04313 1.8286,5.78264 -0.0556,5.06911 -2.74984,8.21711 -8.47811,9.90595 -1.71633,0.50593 -3.34184,0.91999 -3.61227,0.91999 -0.38795,0 -11.93516,-6.57708 -15.10169,-8.60182 -1.31013,-0.83768 -8.59919,-5.45475 -15.8231,-10.02285 -6.87098,-4.34492 -8.85866,-5.61476 -12.56544,-8.02729 -1.42349,-0.92635 -11.70473,-7.54622 -19.65512,-12.65534 -8.96229,-5.75947 -24.30245,-15.75191 -33.71788,-21.96327 -5.1993,-3.43016 -6.27794,-3.96994 -7.06528,-3.5355 -0.51105,0.28202 -4.9749,3.13148 -9.9197,6.33231 -4.94477,3.20082 -10.24694,6.61786 -11.78271,7.5933 -1.53579,0.97533 -5.30542,3.40548 -8.37696,5.40009 -22.75108,14.77444 -58.19007,36.98976 -67.47006,42.29424 -5.63869,3.22321 -6.67253,3.50955 -9.85003,2.72837 z"
             style="fill:#ffffff;fill-opacity:1" />
          <path
             inkscape:export-ydpi="4.192358"
             inkscape:export-xdpi="4.192358"
             inkscape:export-filename="C:\Users\urien\Desktop\icones\icones\grotto1_clust.png"
             inkscape:connector-curvature="0"
             id="path3982"
             d="m -528.95812,-203.25697 0,-22.4113 23.72035,0 23.72037,0 0,22.4113 0,22.4113 -23.72037,0 -23.72035,0 0,-22.4113 z"
             style="fill:#ffff00;fill-opacity:1;fill-rule:nonzero;stroke:#ffffff;stroke-width:12.47325325;stroke-miterlimit:4;stroke-dasharray:none;stroke-opacity:1" />
          <path
             inkscape:export-ydpi="4.192358"
             inkscape:export-xdpi="4.192358"
             inkscape:export-filename="C:\Users\urien\Desktop\icones\icones\grotto1_clust.png"
             inkscape:connector-curvature="0"
             id="path3954-5"
             d="m -361.70943,-148.73459 -1.25052,-1.34583 0,-59.51949 0,-59.51967 3.33396,-2.73844 c 9.26485,-7.61 30.103,-21.29452 68.70296,-45.11758 11.29887,-6.97323 17.14467,-10.322 17.66221,-10.11721 0.68881,0.27243 8.71627,5.25536 20.13204,12.49671 2.17562,1.38008 8.66776,5.48842 14.42693,9.1294 23.92006,15.12285 43.74708,28.1683 49.67997,32.68776 l 3.37412,2.57023 0,60.01634 c 0,59.90609 0,60.01899 -0.9625,61.40989 l -0.96248,1.39353 -41.3007,0 -41.30055,0 -1.24773,-1.34271 -1.24774,-1.34274 -0.11886,-38.35996 -0.11898,-38.36012 -28.62128,0 -28.62129,0 -0.11885,38.36012 -0.119,38.35996 -1.24773,1.34274 -1.24774,1.34271 -13.78755,0 -13.78739,0 -1.25051,-1.34564 z m 163.72882,-55.26974 0,-22.79015 -23.96732,0 -23.96747,0 -0.12045,22.31032 c -0.0664,12.2706 -0.0201,22.58211 0.10349,22.91431 0.17744,0.47709 5.24579,0.57807 24.0887,0.47985 l 23.86399,-0.12512 0,-22.78999 z m -183.89344,-70.02745 c -2.49253,-0.61283 -4.70417,-2.34985 -5.70186,-4.47839 -1.24188,-2.64897 -1.68666,-6.75824 -1.01145,-9.34082 1.12974,-4.32068 9.3379,-11.36527 20.27538,-17.40102 2.55973,-1.41254 6.64348,-3.89568 9.07503,-5.51809 2.4317,-1.62242 6.51547,-4.34153 9.07519,-6.04242 2.55957,-1.70086 8.37821,-5.56856 12.93023,-8.59471 4.55205,-3.02615 8.6335,-5.71793 9.0698,-5.98188 0.4363,-0.26379 2.15694,-1.35724 3.82353,-2.42968 28.19733,-18.14483 37.52489,-23.94739 44.51774,-27.69432 3.01331,-1.6147 3.66972,-1.78211 6.98728,-1.78211 l 3.66153,0 12.01562,7.92043 c 6.60861,4.35621 12.20776,7.79795 12.44252,7.6483 0.2349,-0.14981 0.42702,-2.7843 0.42702,-5.85492 0,-5.40518 0.0401,-5.62588 1.25052,-6.92874 l 1.25053,-1.34566 26.35299,0 26.35282,0 1.2462,1.34117 1.24635,1.34119 0.12045,25.16733 0.12046,25.16732 3.49039,1.86133 c 11.75865,6.27037 19.27459,11.8629 22.57116,16.79471 1.70134,2.5452 1.85872,3.04314 1.82859,5.78263 -0.0556,5.06911 -2.74984,8.21711 -8.4781,9.90594 -1.71632,0.50595 -3.34182,0.92002 -3.61226,0.92002 -0.38812,0 -11.93517,-6.57709 -15.10169,-8.60167 -1.31015,-0.8377 -8.59921,-5.45477 -15.82326,-10.02301 -6.87083,-4.34493 -8.85867,-5.61476 -12.56529,-8.02715 -1.42349,-0.92651 -11.70488,-7.54637 -19.65511,-12.65548 -8.9623,-5.75947 -24.30261,-15.7519 -33.71788,-21.96327 -5.19932,-3.43017 -6.27795,-3.9698 -7.0653,-3.53549 -0.51104,0.28201 -4.9749,3.13162 -9.91966,6.33245 -4.94481,3.20081 -10.24697,6.6177 -11.78274,7.59315 -1.53579,0.97547 -5.30541,3.40547 -8.37696,5.4001 -22.75109,14.77442 -58.19006,36.98974 -67.47021,42.29437 -5.6387,3.22307 -6.67253,3.50955 -9.84988,2.72839 z"
             style="fill:#ffffff;fill-opacity:1" />
          <path
             inkscape:export-ydpi="4.192358"
             inkscape:export-xdpi="4.192358"
             inkscape:export-filename="C:\Users\urien\Desktop\icones\icones\grotto1_clust.png"
             inkscape:connector-curvature="0"
             id="path3982-4"
             d="m -245.47694,-203.98099 0,-22.4113 23.72037,0 23.72036,0 0,22.4113 0,22.4113 -23.72036,0 -23.72037,0 0,-22.4113 z"
             style="fill:#ffff00;fill-opacity:1;fill-rule:nonzero;stroke:#ffffff;stroke-width:12.47325325;stroke-miterlimit:4;stroke-dasharray:none;stroke-opacity:1" />
          <path
             inkscape:export-ydpi="4.192358"
             inkscape:export-xdpi="4.192358"
             inkscape:export-filename="C:\Users\urien\Desktop\icones\icones\grotto1_clust.png"
             inkscape:connector-curvature="0"
             id="path3954-8"
             d="m -511.06273,136.51125 -1.25053,-1.34566 0,-59.519661 0,-59.519664 3.33397,-2.73842 c 9.26486,-7.6099995 30.103,-21.2943754 68.70297,-45.117439 11.29886,-6.973387 17.14481,-10.322007 17.6622,-10.117376 0.68897,0.272594 8.71641,5.255527 20.13204,12.496872 2.17562,1.380099 8.66776,5.488267 14.42693,9.12925 23.9202,15.1228547 43.74722,28.1683026 49.67997,32.687754 l 3.37412,2.57023 0,60.016352 c 0,59.906082 0,60.018972 -0.9625,61.409882 l -0.96248,1.39353 -41.30054,0 -41.30071,0 -1.24774,-1.34272 -1.24759,-1.34257 -0.11899,-38.36011 -0.11884,-38.360117 -28.62114,0 -28.62129,0 -0.11899,38.360117 -0.11886,38.36011 -1.24774,1.34257 -1.24774,1.34272 -13.78739,0 -13.78754,0 -1.25052,-1.34565 z m 163.72897,-55.269715 0,-22.790152 -23.96747,0 -23.96731,0 -0.12206,22.310299 c -0.0664,12.270764 -0.0201,22.582118 0.1035,22.914478 0.17731,0.47692 5.24565,0.57792 24.08872,0.4797 l 23.86399,-0.1251 0,-22.789997 z M -531.22735,11.214067 c -2.49253,-0.612828 -4.70417,-2.3498421 -5.70186,-4.4782139 -1.24172,-2.6489979 -1.68666,-6.7582493 -1.0113,-9.3409904 1.12959,-4.3206837 9.3379,-11.3651147 20.27538,-17.4010367 2.55958,-1.41253 6.64333,-3.895656 9.07503,-5.518075 2.43155,-1.622418 6.51548,-4.341533 9.07503,-6.042408 2.55958,-1.700874 8.37822,-5.568424 12.93024,-8.594569 4.55205,-3.026151 8.6335,-5.718078 9.0698,-5.98187 0.43647,-0.263938 2.1571,-1.35724 3.82368,-2.429682 28.19718,-18.144835 37.52473,-23.947551 44.51759,-27.69447 3.01348,-1.614551 3.66972,-1.781964 6.98729,-1.781964 l 3.66166,0 12.01548,7.92028 c 6.6086,4.356353 12.20776,7.798101 12.44266,7.648444 0.23476,-0.149805 0.42688,-2.784438 0.42688,-5.855063 0,-5.405184 0.0401,-5.625873 1.25052,-6.928597 l 1.25053,-1.345809 26.35298,0 26.35283,0 1.24636,1.341181 1.24635,1.341167 0.12046,25.16733 0.12045,25.167332 3.49041,1.861342 c 11.75862,6.27052 19.27457,11.8630357 22.57114,16.7948486 1.70134,2.5452138 1.85872,3.0429807 1.8286,5.78263588 -0.0556,5.06911082 -2.74985,8.21695842 -8.47811,9.90578652 -1.71632,0.506109 -3.34184,0.920013 -3.61212,0.920013 -0.38811,0 -11.9353,-6.5769324 -15.10184,-8.6016723 -1.31015,-0.8376963 -8.59905,-5.4547556 -15.8231,-10.0230097 -6.87099,-4.344776 -8.85867,-5.614602 -12.56543,-8.027148 -1.4235,-0.926347 -11.70474,-7.546368 -19.65513,-12.655482 -8.9623,-5.759315 -24.30245,-15.751746 -33.71773,-21.963111 -5.19945,-3.430167 -6.2781,-3.969944 -7.06543,-3.535497 -0.51106,0.281852 -4.9749,3.13148 -9.91969,6.3323 -4.94465,3.20082 -10.24696,6.617703 -11.78272,7.59316 -1.53578,0.97546 -5.30542,3.405613 -8.37696,5.400237 -22.75109,14.774431 -58.19007,36.9895932 -67.47007,42.2942305 -5.63869,3.2232145 -6.67253,3.5095505 -9.85002,2.7283805 z"
             style="fill:#ffffff;fill-opacity:1" />
          <path
             inkscape:export-ydpi="4.192358"
             inkscape:export-xdpi="4.192358"
             inkscape:export-filename="C:\Users\urien\Desktop\icones\icones\grotto1_clust.png"
             inkscape:connector-curvature="0"
             id="path3982-5"
             d="m -394.83024,81.26501 0,-22.411305 23.72037,0 23.72035,0 0,22.411305 0,22.4113 -23.72035,0 -23.72037,0 0,-22.4113 z"
             style="fill:#ffff00;fill-opacity:1;fill-rule:nonzero;stroke:#ffffff;stroke-width:12.47325325;stroke-miterlimit:4;stroke-dasharray:none;stroke-opacity:1" />
        </g>
      </g>
    </g>
  </g>
</svg>
