<?xml version="1.0" encoding="UTF-8" standalone="no"?>
<!-- Generator: Adobe Illustrator 16.0.0, SVG Export Plug-In . SVG Version: 6.00 Build 0)  -->

<svg
   xmlns:dc="http://purl.org/dc/elements/1.1/"
   xmlns:cc="http://creativecommons.org/ns#"
   xmlns:rdf="http://www.w3.org/1999/02/22-rdf-syntax-ns#"
   xmlns:svg="http://www.w3.org/2000/svg"
   xmlns="http://www.w3.org/2000/svg"
   xmlns:sodipodi="http://sodipodi.sourceforge.net/DTD/sodipodi-0.dtd"
   xmlns:inkscape="http://www.inkscape.org/namespaces/inkscape"
   version="1.1"
   id="Layer_1"
   x="0px"
   y="0px"
   width="100"
   height="100"
   viewBox="0 0 99.999998 100"
   xml:space="preserve"
   inkscape:version="0.91pre4 r13712"
   sodipodi:docname="facebook.svg"><metadata
   id="metadata26785"><rdf:RDF><cc:Work
       rdf:about=""><dc:format>image/svg+xml</dc:format><dc:type
         rdf:resource="http://purl.org/dc/dcmitype/StillImage" /><dc:title></dc:title></cc:Work></rdf:RDF></metadata><defs
   id="defs26783" /><sodipodi:namedview
   pagecolor="#ffffff"
   bordercolor="#666666"
   borderopacity="1"
   objecttolerance="10"
   gridtolerance="10"
   guidetolerance="10"
   inkscape:pageopacity="0"
   inkscape:pageshadow="2"
   inkscape:window-width="1920"
   inkscape:window-height="1017"
   id="namedview26781"
   showgrid="false"
   inkscape:zoom="0.8842429"
   inkscape:cx="133.4465"
   inkscape:cy="133.44749"
   inkscape:window-x="-8"
   inkscape:window-y="-8"
   inkscape:window-maximized="1"
   inkscape:current-layer="Layer_1" />

<g
   id="g27327"
   transform="matrix(0.37468199,0,0,0.37467918,-1.7853499e-7,62.532078)"><path
     inkscape:connector-curvature="0"
     d="m 252.164,100.00001 c 8.134,0 14.729,-6.595999 14.729,-14.729999 l 0,-237.435001 c 0,-8.137 -6.596,-14.73 -14.729,-14.73 l -237.434,0 c -8.137,0 -14.73,6.594 -14.73,14.73 L 0,85.269011 c 0,8.135 6.593,14.73 14.73,14.73 l 237.434,0 z"
     style="fill:#485a96"
     id="Blue_1_" /><path
     inkscape:connector-curvature="0"
     d="m 184.152,100.00001 0,-103.355999 34.692,0 5.194,-40.28 -39.887,0 0,-25.717 c 0,-11.662 3.238,-19.609 19.962,-19.609 l 21.329,-0.01 0,-36.026001 c -3.689,-0.49 -16.351,-1.587 -31.08,-1.587 -30.753,0 -51.807,18.771 -51.807,53.244001 l 0,29.705 -34.781,0 0,40.28 34.781,0 0,103.355 41.597,0 z"
     style="fill:#ffffff"
     id="f" /></g>
<g
   id="g26769"
   transform="translate(0,-166.89499)">
</g>
<g
   id="g26771"
   transform="translate(0,-166.89499)">
</g>
<g
   id="g26773"
   transform="translate(0,-166.89499)">
</g>
<g
   id="g26775"
   transform="translate(0,-166.89499)">
</g>
<g
   id="g26777"
   transform="translate(0,-166.89499)">
</g>
<g
   id="g26779"
   transform="translate(0,-166.89499)">
</g>
</svg>