<?xml version="1.0" encoding="UTF-8" standalone="no"?>
<!-- Created with Inkscape (http://www.inkscape.org/) -->

<svg
   xmlns:dc="http://purl.org/dc/elements/1.1/"
   xmlns:cc="http://creativecommons.org/ns#"
   xmlns:rdf="http://www.w3.org/1999/02/22-rdf-syntax-ns#"
   xmlns:svg="http://www.w3.org/2000/svg"
   xmlns="http://www.w3.org/2000/svg"
   xmlns:xlink="http://www.w3.org/1999/xlink"
   xmlns:sodipodi="http://sodipodi.sourceforge.net/DTD/sodipodi-0.dtd"
   xmlns:inkscape="http://www.inkscape.org/namespaces/inkscape"
   width="100"
   height="100"
   id="svg6145"
   version="1.1"
   inkscape:version="0.91pre4 r13712"
   sodipodi:docname="false-coordonates.svg"
   inkscape:export-filename="C:\Users\urien\Dropbox\icones FLAT\false-coordonnates.png"
   inkscape:export-xdpi="10.03592"
   inkscape:export-ydpi="10.03592">
  <defs
     id="defs6147">
    <linearGradient
       gradientTransform="matrix(0.753726,0,0,0.753726,-78.8597,-176.009)"
       gradientUnits="userSpaceOnUse"
       y2="511.3616"
       x2="652.40576"
       y1="511.3616"
       x1="105.13282"
       id="linearGradient2770-7"
       xlink:href="#linearGradient2764-3"
       inkscape:collect="always" />
    <linearGradient
       id="linearGradient2764-3">
      <stop
         id="stop2766-3"
         offset="0"
         style="stop-color: rgb(55, 146, 179); stop-opacity: 1;" />
      <stop
         id="stop2768-5"
         offset="1.0000000"
         style="stop-color: rgb(255, 255, 255); stop-opacity: 1;" />
    </linearGradient>
    <linearGradient
       gradientTransform="matrix(0.753726,0,0,0.753726,-78.8597,-176.009)"
       gradientUnits="userSpaceOnUse"
       y2="452.11893"
       x2="524.59644"
       y1="452.11893"
       x1="113.0311"
       id="linearGradient7244-99"
       xlink:href="#linearGradient7210-8"
       inkscape:collect="always" />
    <linearGradient
       id="linearGradient7210-8">
      <stop
         id="stop7212-1"
         offset="0"
         style="stop-color: rgb(41, 221, 27); stop-opacity: 1;" />
      <stop
         id="stop7214-82"
         offset="1.0000000"
         style="stop-color: rgb(150, 242, 143); stop-opacity: 1;" />
    </linearGradient>
    <radialGradient
       gradientUnits="userSpaceOnUse"
       gradientTransform="matrix(1,0,0,0.957744,0,10.5537)"
       r="129.88857"
       fy="249.75902"
       fx="194.89299"
       cy="249.75902"
       cx="194.89299"
       id="radialGradient5549-0"
       xlink:href="#linearGradient5541-3"
       inkscape:collect="always" />
    <linearGradient
       id="linearGradient5541-3">
      <stop
         id="stop5543-8"
         offset="0"
         style="stop-color: rgb(254, 255, 229); stop-opacity: 1;" />
      <stop
         style="stop-color: rgb(255, 249, 140); stop-opacity: 1;"
         offset="0.34513274"
         id="stop5551-0" />
      <stop
         id="stop5545-12"
         offset="1"
         style="stop-color: rgb(255, 244, 26); stop-opacity: 1;" />
    </linearGradient>
    <radialGradient
       gradientUnits="userSpaceOnUse"
       gradientTransform="matrix(1,0,0,0.957744,0,10.5537)"
       r="129.88857"
       fy="249.75902"
       fx="194.89299"
       cy="249.75902"
       cx="194.89299"
       id="radialGradient5549-0-8"
       xlink:href="#linearGradient5541-3-6"
       inkscape:collect="always" />
    <linearGradient
       id="linearGradient5541-3-6">
      <stop
         id="stop5543-8-7"
         offset="0"
         style="stop-color: rgb(254, 255, 229); stop-opacity: 1;" />
      <stop
         style="stop-color: rgb(255, 249, 140); stop-opacity: 1;"
         offset="0.34513274"
         id="stop5551-0-7" />
      <stop
         id="stop5545-12-2"
         offset="1"
         style="stop-color: rgb(255, 244, 26); stop-opacity: 1;" />
    </linearGradient>
    <radialGradient
       r="155.9536"
       fy="666.49115"
       fx="1189.6907"
       cy="666.49115"
       cx="1189.6907"
       gradientTransform="matrix(1,0,0,0.30922882,-732.95479,176.33731)"
       gradientUnits="userSpaceOnUse"
       id="radialGradient4384"
       xlink:href="#linearGradient6932-4"
       inkscape:collect="always" />
    <linearGradient
       inkscape:collect="always"
       id="linearGradient6932-4">
      <stop
         style="stop-color:#00b400;stop-opacity:1;"
         offset="0"
         id="stop6934-7" />
      <stop
         style="stop-color:#00b400;stop-opacity:0;"
         offset="1"
         id="stop6936-8" />
    </linearGradient>
    <inkscape:path-effect
       effect="spiro"
       id="path-effect6804-3"
       is_visible="true" />
    <radialGradient
       r="155.9536"
       fy="666.49115"
       fx="1189.6907"
       cy="666.49115"
       cx="1189.6907"
       gradientTransform="matrix(1,0,0,0.30922882,-701.11385,212.44029)"
       gradientUnits="userSpaceOnUse"
       id="radialGradient6143"
       xlink:href="#linearGradient6932-4"
       inkscape:collect="always" />
    <radialGradient
       inkscape:collect="always"
       xlink:href="#linearGradient17583"
       id="radialGradient17589"
       cx="1332.7068"
       cy="-116.07687"
       fx="1332.7068"
       fy="-116.07687"
       r="286.18933"
       gradientTransform="matrix(-0.0589255,1.8652111,-2.0165094,-0.06370532,850.08237,-2500.946)"
       gradientUnits="userSpaceOnUse" />
    <linearGradient
       inkscape:collect="always"
       id="linearGradient17583">
      <stop
         style="stop-color:#808080;stop-opacity:1;"
         offset="0"
         id="stop17585" />
      <stop
         style="stop-color:#808080;stop-opacity:0;"
         offset="1"
         id="stop17587" />
    </linearGradient>
    <filter
       inkscape:collect="always"
       style="color-interpolation-filters:sRGB"
       id="filter17659"
       x="-0.035970315"
       width="1.0719405"
       y="-0.036029734"
       height="1.0720595">
      <feGaussianBlur
         inkscape:collect="always"
         stdDeviation="8.5786001"
         id="feGaussianBlur17661" />
    </filter>
  </defs>
  <sodipodi:namedview
     id="base"
     pagecolor="#ffffff"
     bordercolor="#666666"
     borderopacity="1.0"
     inkscape:pageopacity="0.0"
     inkscape:pageshadow="2"
     inkscape:zoom="1.69"
     inkscape:cx="161.529"
     inkscape:cy="154.80376"
     inkscape:document-units="px"
     inkscape:current-layer="layer1"
     showgrid="false"
     inkscape:window-width="1920"
     inkscape:window-height="1017"
     inkscape:window-x="-8"
     inkscape:window-y="-8"
     inkscape:window-maximized="1"
     units="px" />
  <metadata
     id="metadata6150">
    <rdf:RDF>
      <cc:Work
         rdf:about="">
        <dc:format>image/svg+xml</dc:format>
        <dc:type
           rdf:resource="http://purl.org/dc/dcmitype/StillImage" />
        <dc:title></dc:title>
      </cc:Work>
    </rdf:RDF>
  </metadata>
  <g
     inkscape:label="Calque 1"
     inkscape:groupmode="layer"
     id="layer1"
     transform="translate(0,-952.36216)">
    <g
       id="g22026"
       transform="translate(-281.96387,599.59654)">
      <path
         inkscape:connector-curvature="0"
         id="path3093-4"
         d="m 760.84225,275.97378 c -11.2971,-4.00843 -26.8238,-17.4746 -33.733,-29.25628 l -7.6575,-13.05766 -0.019,-239.9999953 c -0.01,-132.0000047 0.9639,-243.5121447 2.1651,-247.8047447 3.0309,-10.83038 18.0213,-27.16938 31.003,-33.79216 10.5069,-5.3602 18.9495,-5.54596 252.06445,-5.54596 265.0726,0 252.0181,-0.85447 269.4057,17.63382 17.7359,18.85882 16.6976,4.73361 17.6066,239.509045 0.4594,118.642864 -0.303,230.206905 -1.6942,247.920135 -2.3173,29.50455 -3.24,33.09923 -11.0009,42.85715 -4.6592,5.8582 -14.1336,13.54414 -21.054,17.07985 l -12.5827,6.42857 -240.1088,-0.22542 c -132.05995,-0.1242 -242.03755,-0.91 -244.39465,-1.74635 z"
         style="opacity:0.88399999;fill:url(#radialGradient17589);fill-opacity:1;fill-rule:nonzero;stroke:none;stroke-width:20;stroke-miterlimit:4;stroke-dasharray:none;stroke-opacity:1;filter:url(#filter17659)"
         transform="matrix(0.14805391,0,0,0.15478747,187.65792,406.87192)" />
      <path
         inkscape:connector-curvature="0"
         id="path3808"
         d="m 287.59125,442.29093 c -1.93514,-1.00438 -3.68514,-2.78475 -4.56985,-4.64916 -0.68667,-1.44706 -0.78583,-4.85607 -0.98911,-34.00537 -0.12425,-17.81839 -0.0745,-35.20746 0.11062,-38.64237 0.32319,-5.99837 0.39282,-6.32852 1.76053,-8.35054 0.89319,-1.32048 2.18349,-2.48975 3.46141,-3.13669 l 2.03743,-1.03143 38.07366,-0.0127 38.07366,-0.0127 1.95982,1.03637 c 3.13275,1.65664 4.50085,3.71427 5.03568,7.57362 0.70835,5.11156 0.30345,74.52268 -0.44498,76.28216 -0.79474,1.86833 -3.15732,4.24218 -4.99192,5.01573 -1.27945,0.53947 -7.73339,0.64329 -39.84272,0.64096 -33.79589,-0.003 -38.47619,-0.0859 -39.67423,-0.70777 z"
         style="fill:#f90b0b;fill-opacity:1;fill-rule:nonzero;stroke:none" />
      <path
         sodipodi:nodetypes="csssssssssssssssssscc"
         inkscape:connector-curvature="0"
         id="path9805"
         d="m 341.93568,409.01232 c -1.35979,-0.27135 -3.20231,-0.9114 -4.09967,-1.42414 -0.42006,-0.24001 -1.52092,-1.01324 -2.44634,-1.71829 -5.88662,-4.48477 -7.5351,-4.58395 -13.23572,-0.79621 -4.39108,2.91761 -6.86451,3.72625 -11.38229,3.72122 -6.10481,-0.006 -12.9516,-1.65591 -20.20916,-4.86759 -3.46707,-1.53428 -3.91039,-1.83796 -4.30723,-2.95068 -0.29187,-0.81839 -0.26687,-4.10077 0.082,-10.76249 0.31922,-6.09587 0.63706,-9.69352 0.96683,-10.94361 0.45631,-1.72976 1.05526,-1.89422 7.33564,-2.0141 5.08294,-0.097 6.82656,0.007 16.67961,0.99434 7.9887,0.80059 10.71588,1.01591 14.86014,1.17327 5.46387,0.20746 8.38224,0.0457 19.68517,-1.09128 5.1465,-0.51769 7.58042,-0.66652 12.57704,-0.76908 4.62638,-0.095 7.471,0.0546 8.19891,0.43097 0.24314,0.12574 0.52361,0.40755 0.62326,0.62626 0.29041,0.63737 1.26695,13.08799 1.49974,19.12119 0.15269,3.95726 0.13658,4.00771 -1.65061,5.1687 -4.40558,2.86193 -11.49004,5.29342 -17.74069,6.08884 -2.18262,0.27775 -6.07505,0.28438 -7.43662,0.0126 z"
         style="fill:#ffffff;fill-opacity:1" />
      <path
         sodipodi:nodetypes="sssssssssssssssssss"
         inkscape:connector-curvature="0"
         id="path9805-9"
         d="m 308.52291,396.81237 c -2.20881,-0.4091 -3.85442,-1.08892 -5.82731,-2.40732 -1.20239,-0.80351 -2.32009,-2.09392 -2.31242,-2.66976 0.0154,-1.15047 1.63585,-2.28305 4.66504,-3.26039 1.0601,-0.34202 1.42237,-0.38255 3.41005,-0.38143 2.86833,0.002 4.09856,0.2542 6.38643,1.31127 1.42784,0.6597 2.31476,1.26889 3.4353,2.35956 0.6197,0.60319 0.95505,1.05633 1.0139,1.37009 0.43898,2.33997 -6.04355,4.55357 -10.77099,3.67798 z m 34.30592,-0.50991 c -1.6294,-0.16323 -2.82391,-0.50278 -4.42141,-1.25682 -1.7872,-0.84359 -2.30706,-1.30412 -2.43674,-2.15863 -0.0579,-0.38188 -0.0341,-0.82885 0.0557,-1.04542 0.68649,-1.65398 5.39068,-3.90853 8.81692,-4.22563 1.15631,-0.10702 3.82184,0.15516 4.93407,0.48533 1.28706,0.38206 3.20196,1.38669 3.98496,2.09067 0.65749,0.59114 0.73157,0.72123 0.73157,1.28451 0,0.81507 -0.69139,1.64607 -2.17581,2.6151 -2.7198,1.7755 -6.06214,2.55423 -9.48933,2.21089 z"
         style="fill:#ff0000" />
    </g>
  </g>
</svg>
