<?xml version="1.0" encoding="UTF-8" standalone="no"?>
<!-- Created with Inkscape (http://www.inkscape.org/) -->

<svg
   xmlns:dc="http://purl.org/dc/elements/1.1/"
   xmlns:cc="http://creativecommons.org/ns#"
   xmlns:rdf="http://www.w3.org/1999/02/22-rdf-syntax-ns#"
   xmlns:svg="http://www.w3.org/2000/svg"
   xmlns="http://www.w3.org/2000/svg"
   xmlns:sodipodi="http://sodipodi.sourceforge.net/DTD/sodipodi-0.dtd"
   xmlns:inkscape="http://www.inkscape.org/namespaces/inkscape"
   width="100"
   height="100"
   id="svg3052"
   version="1.1"
   inkscape:version="0.91pre4 r13712"
   sodipodi:docname="FSE.svg"
   inkscape:export-filename="E:\Mes Documents\Dropbox\MaquetteGC\Test-Grottocenter3-Fred\img\icon\esp_flat32.png"
   inkscape:export-xdpi="4.8694196"
   inkscape:export-ydpi="4.8694196">
  <defs
     id="defs3054" />
  <sodipodi:namedview
     id="base"
     pagecolor="#ffffff"
     bordercolor="#666666"
     borderopacity="1.0"
     inkscape:pageopacity="0.0"
     inkscape:pageshadow="2"
     inkscape:zoom="7.8197832"
     inkscape:cx="49.999986"
     inkscape:cy="49.999995"
     inkscape:document-units="px"
     inkscape:current-layer="g4031"
     showgrid="false"
     inkscape:window-width="1920"
     inkscape:window-height="1017"
     inkscape:window-x="-8"
     inkscape:window-y="-8"
     inkscape:window-maximized="1"
     units="px" />
  <metadata
     id="metadata3057">
    <rdf:RDF>
      <cc:Work
         rdf:about="">
        <dc:format>image/svg+xml</dc:format>
        <dc:type
           rdf:resource="http://purl.org/dc/dcmitype/StillImage" />
        <dc:title></dc:title>
      </cc:Work>
    </rdf:RDF>
  </metadata>
  <g
     inkscape:label="Calque 1"
     inkscape:groupmode="layer"
     id="layer1"
     transform="translate(0,-952.36216)">
    <path
       style="fill:#ffffff;fill-opacity:1;fill-rule:nonzero;stroke:#ffffff;stroke-width:57.1428566;stroke-miterlimit:4;stroke-dasharray:none;stroke-opacity:1"
       d=""
       id="path3876"
       inkscape:connector-curvature="0" />
    <g
       id="g4031"
       transform="matrix(3.39123,0,0,3.39123,-1190.2653,-218.56091)">
      <g
         id="g20869"
         transform="matrix(0.16880626,0,0,0.16908361,326.37252,354.60728)">
        <g
           style="fill:#0000ff"
           inkscape:export-ydpi="4.7999997"
           inkscape:export-xdpi="4.7999997"
           inkscape:export-filename="C:\Users\urien\Desktop\Test-Grottocenter3\Test-Grottocenter3\img\icon\underground-time32-2.png"
           transform="matrix(0.29487826,0,0,0.29487826,422.68947,24.469343)"
           id="g4327">
          <path
             inkscape:connector-curvature="0"
             id="path3093"
             d="m -887.60049,309.39869 c -11.2971,-4.00843 -26.82386,-17.4746 -33.73304,-29.25628 l -7.65748,-13.05766 -0.019,-240 c -0.0105,-132 0.96385,-243.51214 2.16512,-247.80474 3.03086,-10.83038 18.02124,-27.16938 31.00295,-33.79216 10.50687,-5.3602 18.94956,-5.54596 252.06446,-5.54596 265.0726,0 252.01811,-0.85447 269.40562,17.63382 17.73598,18.85882 16.6976,4.73361 17.60663,239.50904 0.45937,118.64286 -0.30303,230.20691 -1.6942,247.92014 -2.31725,29.50455 -3.23997,33.09923 -11.00085,42.85715 -4.65926,5.8582 -14.1336,13.54414 -21.05406,17.07985 l -12.58263,6.42857 -240.10889,-0.22542 c -132.05988,-0.1242 -242.03745,-0.91 -244.3946,-1.74635 z"
             style="fill:#0000ff;fill-opacity:1;fill-rule:nonzero;stroke:#ffffff;stroke-width:20;stroke-miterlimit:4;stroke-dasharray:none;stroke-opacity:1" />
        </g>
        <path
           sodipodi:type="star"
           style="fill:#ffff00;fill-opacity:1;fill-rule:nonzero;stroke:#000000;stroke-width:1.29999995;stroke-miterlimit:4;stroke-dasharray:none;stroke-opacity:1"
           id="path2989"
           sodipodi:sides="5"
           sodipodi:cx="-35.084747"
           sodipodi:cy="27.457626"
           sodipodi:r1="6.2067232"
           sodipodi:r2="3.1033616"
           sodipodi:arg1="0.96007036"
           sodipodi:arg2="1.5883889"
           inkscape:flatsided="false"
           inkscape:rounded="0"
           inkscape:randomized="0"
           d="m -31.525425,32.542372 -3.613916,-1.981864 -3.681396,1.853508 0.768104,-4.049468 -2.900405,-2.92845 4.08863,-0.520845 1.888847,-3.663389 1.758809,3.727568 4.067776,0.664351 -3.001626,2.824608 z"
           inkscape:transform-center-x="-0.044641008"
           inkscape:transform-center-y="-0.78570776"
           transform="matrix(1.3228927,0,0,1.4017866,244.53549,-62.313515)" />
        <path
           sodipodi:type="star"
           style="fill:#ffff00;fill-opacity:1;fill-rule:nonzero;stroke:#000000;stroke-width:1.29999995;stroke-miterlimit:4;stroke-dasharray:none;stroke-opacity:1"
           id="path2989-1"
           sodipodi:sides="5"
           sodipodi:cx="-35.084747"
           sodipodi:cy="27.457626"
           sodipodi:r1="6.2067232"
           sodipodi:r2="3.1033616"
           sodipodi:arg1="0.96007036"
           sodipodi:arg2="1.5883889"
           inkscape:flatsided="false"
           inkscape:rounded="0"
           inkscape:randomized="0"
           d="m -31.525425,32.542372 -3.613916,-1.981864 -3.681396,1.853508 0.768104,-4.049468 -2.900405,-2.92845 4.08863,-0.520845 1.888847,-3.663389 1.758809,3.727568 4.067776,0.664351 -3.001626,2.824608 z"
           inkscape:transform-center-x="-0.044638413"
           inkscape:transform-center-y="-0.78570901"
           transform="matrix(1.3228927,0,0,1.4017866,276.17936,60.589525)" />
        <path
           sodipodi:type="star"
           style="fill:#ffff00;fill-opacity:1;fill-rule:nonzero;stroke:#000000;stroke-width:1.29999995;stroke-miterlimit:4;stroke-dasharray:none;stroke-opacity:1"
           id="path2989-7"
           sodipodi:sides="5"
           sodipodi:cx="-35.084747"
           sodipodi:cy="27.457626"
           sodipodi:r1="6.2067232"
           sodipodi:r2="3.1033616"
           sodipodi:arg1="0.96007036"
           sodipodi:arg2="1.5883889"
           inkscape:flatsided="false"
           inkscape:rounded="0"
           inkscape:randomized="0"
           d="m -31.525425,32.542372 -3.613916,-1.981864 -3.681396,1.853508 0.768104,-4.049468 -2.900405,-2.92845 4.08863,-0.520845 1.888847,-3.663389 1.758809,3.727568 4.067776,0.664351 -3.001626,2.824608 z"
           inkscape:transform-center-x="-0.044638837"
           inkscape:transform-center-y="-0.78570726"
           transform="matrix(1.3228927,0,0,1.4017866,220.09932,26.302533)" />
        <path
           sodipodi:type="star"
           style="fill:#ffff00;fill-opacity:1;fill-rule:nonzero;stroke:#000000;stroke-width:1.29999995;stroke-miterlimit:4;stroke-dasharray:none;stroke-opacity:1"
           id="path2989-4"
           sodipodi:sides="5"
           sodipodi:cx="-35.084747"
           sodipodi:cy="27.457626"
           sodipodi:r1="6.2067232"
           sodipodi:r2="3.1033616"
           sodipodi:arg1="0.96007036"
           sodipodi:arg2="1.5883889"
           inkscape:flatsided="false"
           inkscape:rounded="0"
           inkscape:randomized="0"
           d="m -31.525425,32.542372 -3.613916,-1.981864 -3.681396,1.853508 0.768104,-4.049468 -2.900405,-2.92845 4.08863,-0.520845 1.888847,-3.663389 1.758809,3.727568 4.067776,0.664351 -3.001626,2.824608 z"
           inkscape:transform-center-x="-0.044620879"
           inkscape:transform-center-y="-0.78570923"
           transform="matrix(1.3228927,0,0,1.4017866,219.74978,-39.918802)" />
        <path
           sodipodi:type="star"
           style="fill:#ffff00;fill-opacity:1;fill-rule:nonzero;stroke:#000000;stroke-width:1.29999995;stroke-miterlimit:4;stroke-dasharray:none;stroke-opacity:1"
           id="path2989-0"
           sodipodi:sides="5"
           sodipodi:cx="-35.084747"
           sodipodi:cy="27.457626"
           sodipodi:r1="6.2067232"
           sodipodi:r2="3.1033616"
           sodipodi:arg1="0.96007036"
           sodipodi:arg2="1.5883889"
           inkscape:flatsided="false"
           inkscape:rounded="0"
           inkscape:randomized="0"
           d="m -31.525425,32.542372 -3.613916,-1.981864 -3.681396,1.853508 0.768104,-4.049468 -2.900405,-2.92845 4.08863,-0.520845 1.888847,-3.663389 1.758809,3.727568 4.067776,0.664351 -3.001626,2.824608 z"
           inkscape:transform-center-x="-0.044628503"
           inkscape:transform-center-y="-0.78570827"
           transform="matrix(1.3228927,0,0,1.4017866,306.09553,-63.740018)" />
        <path
           sodipodi:type="star"
           style="fill:#ffff00;fill-opacity:1;fill-rule:nonzero;stroke:#000000;stroke-width:1.29999995;stroke-miterlimit:4;stroke-dasharray:none;stroke-opacity:1"
           id="path2989-9"
           sodipodi:sides="5"
           sodipodi:cx="-35.084747"
           sodipodi:cy="27.457626"
           sodipodi:r1="6.2067232"
           sodipodi:r2="3.1033616"
           sodipodi:arg1="0.96007036"
           sodipodi:arg2="1.5883889"
           inkscape:flatsided="false"
           inkscape:rounded="0"
           inkscape:randomized="0"
           d="m -31.525425,32.542372 -3.613916,-1.981864 -3.681396,1.853508 0.768104,-4.049468 -2.900405,-2.92845 4.08863,-0.520845 1.888847,-3.663389 1.758809,3.727568 4.067776,0.664351 -3.001626,2.824608 z"
           inkscape:transform-center-x="-0.04464814"
           inkscape:transform-center-y="-0.78570911"
           transform="matrix(1.3228927,0,0,1.4017866,331.42479,-39.930284)" />
        <path
           sodipodi:type="star"
           style="fill:#ffff00;fill-opacity:1;fill-rule:nonzero;stroke:#000000;stroke-width:1.29999995;stroke-miterlimit:4;stroke-dasharray:none;stroke-opacity:1"
           id="path2989-48"
           sodipodi:sides="5"
           sodipodi:cx="-35.084747"
           sodipodi:cy="27.457626"
           sodipodi:r1="6.2067232"
           sodipodi:r2="3.1033616"
           sodipodi:arg1="0.96007036"
           sodipodi:arg2="1.5883889"
           inkscape:flatsided="false"
           inkscape:rounded="0"
           inkscape:randomized="0"
           d="m -31.525425,32.542372 -3.613916,-1.981864 -3.681396,1.853508 0.768104,-4.049468 -2.900405,-2.92845 4.08863,-0.520845 1.888847,-3.663389 1.758809,3.727568 4.067776,0.664351 -3.001626,2.824608 z"
           inkscape:transform-center-x="-0.04461754"
           inkscape:transform-center-y="-0.7857087"
           transform="matrix(1.3228927,0,0,1.4017866,338.52255,-5.5496676)" />
        <path
           sodipodi:type="star"
           style="fill:#ffff00;fill-opacity:1;fill-rule:nonzero;stroke:#000000;stroke-width:1.29999995;stroke-miterlimit:4;stroke-dasharray:none;stroke-opacity:1"
           id="path2989-8"
           sodipodi:sides="5"
           sodipodi:cx="-35.084747"
           sodipodi:cy="27.457626"
           sodipodi:r1="6.2067232"
           sodipodi:r2="3.1033616"
           sodipodi:arg1="0.96007036"
           sodipodi:arg2="1.5883889"
           inkscape:flatsided="false"
           inkscape:rounded="0"
           inkscape:randomized="0"
           d="m -31.525425,32.542372 -3.613916,-1.981864 -3.681396,1.853508 0.768104,-4.049468 -2.900405,-2.92845 4.08863,-0.520845 1.888847,-3.663389 1.758809,3.727568 4.067776,0.664351 -3.001626,2.824608 z"
           inkscape:transform-center-x="-0.044631432"
           inkscape:transform-center-y="-0.78570779"
           transform="matrix(1.3228927,0,0,1.4017866,331.00941,25.979857)" />
        <path
           sodipodi:type="star"
           style="fill:#ffff00;fill-opacity:1;fill-rule:nonzero;stroke:#000000;stroke-width:1.29999995;stroke-miterlimit:4;stroke-dasharray:none;stroke-opacity:1"
           id="path2989-2"
           sodipodi:sides="5"
           sodipodi:cx="-35.084747"
           sodipodi:cy="27.457626"
           sodipodi:r1="6.2067232"
           sodipodi:r2="3.1033616"
           sodipodi:arg1="0.96007036"
           sodipodi:arg2="1.5883889"
           inkscape:flatsided="false"
           inkscape:rounded="0"
           inkscape:randomized="0"
           d="m -31.525425,32.542372 -3.613916,-1.981864 -3.681396,1.853508 0.768104,-4.049468 -2.900405,-2.92845 4.08863,-0.520845 1.888847,-3.663389 1.758809,3.727568 4.067776,0.664351 -3.001626,2.824608 z"
           inkscape:transform-center-x="-0.044641361"
           inkscape:transform-center-y="-0.78570967"
           transform="matrix(1.3228927,0,0,1.4017866,308.99927,49.731296)" />
        <path
           sodipodi:type="star"
           style="fill:#ffff00;fill-opacity:1;fill-rule:nonzero;stroke:#000000;stroke-width:1.29999995;stroke-miterlimit:4;stroke-dasharray:none;stroke-opacity:1"
           id="path2989-45"
           sodipodi:sides="5"
           sodipodi:cx="-35.084747"
           sodipodi:cy="27.457626"
           sodipodi:r1="6.2067232"
           sodipodi:r2="3.1033616"
           sodipodi:arg1="0.96007036"
           sodipodi:arg2="1.5883889"
           inkscape:flatsided="false"
           inkscape:rounded="0"
           inkscape:randomized="0"
           d="m -31.525425,32.542372 -3.613916,-1.981864 -3.681396,1.853508 0.768104,-4.049468 -2.900405,-2.92845 4.08863,-0.520845 1.888847,-3.663389 1.758809,3.727568 4.067776,0.664351 -3.001626,2.824608 z"
           inkscape:transform-center-x="-0.044621269"
           inkscape:transform-center-y="-0.78570887"
           transform="matrix(1.3228927,0,0,1.4017866,275.74538,-72.414)" />
        <path
           sodipodi:type="star"
           style="fill:#ffff00;fill-opacity:1;fill-rule:nonzero;stroke:#000000;stroke-width:1.29999995;stroke-miterlimit:4;stroke-dasharray:none;stroke-opacity:1"
           id="path2989-5"
           sodipodi:sides="5"
           sodipodi:cx="-35.084747"
           sodipodi:cy="27.457626"
           sodipodi:r1="6.2067232"
           sodipodi:r2="3.1033616"
           sodipodi:arg1="0.96007036"
           sodipodi:arg2="1.5883889"
           inkscape:flatsided="false"
           inkscape:rounded="0"
           inkscape:randomized="0"
           d="m -31.525425,32.542372 -3.613916,-1.981864 -3.681396,1.853508 0.768104,-4.049468 -2.900405,-2.92845 4.08863,-0.520845 1.888847,-3.663389 1.758809,3.727568 4.067776,0.664351 -3.001626,2.824608 z"
           inkscape:transform-center-x="-0.0446401"
           inkscape:transform-center-y="-0.78570913"
           transform="matrix(1.3228927,0,0,1.4017866,243.65316,50.840642)" />
        <path
           sodipodi:type="star"
           style="fill:#ffff00;fill-opacity:1;fill-rule:nonzero;stroke:#000000;stroke-width:1.29999995;stroke-miterlimit:4;stroke-dasharray:none;stroke-opacity:1"
           id="path2989-17"
           sodipodi:sides="5"
           sodipodi:cx="-35.084747"
           sodipodi:cy="27.457626"
           sodipodi:r1="6.2067232"
           sodipodi:r2="3.1033616"
           sodipodi:arg1="0.96007036"
           sodipodi:arg2="1.5883889"
           inkscape:flatsided="false"
           inkscape:rounded="0"
           inkscape:randomized="0"
           d="m -31.525425,32.542372 -3.613916,-1.981864 -3.681396,1.853508 0.768104,-4.049468 -2.900405,-2.92845 4.08863,-0.520845 1.888847,-3.663389 1.758809,3.727568 4.067776,0.664351 -3.001626,2.824608 z"
           inkscape:transform-center-x="-0.04461603"
           inkscape:transform-center-y="-0.78570883"
           transform="matrix(1.3228927,0,0,1.4017866,213.07515,-6.2238723)" />
        <path
           style="fill:#ffff00;stroke:#000000;stroke-width:2.04265261;stroke-linecap:butt;stroke-linejoin:miter;stroke-miterlimit:4;stroke-dasharray:none;stroke-opacity:1"
           d="m 257.64215,28.652901 c 1.22262,-4.062889 6.74447,-7.377879 7.9332,-10.342405 1.18874,-2.964528 0.17255,-4.723789 1.39517,-7.144546 1.22263,-2.4207563 9.36048,-8.0730033 5.47009,-7.4600973 -3.89039,0.612905 -13.27263,5.87764 -20.85237,9.9788193 -7.57974,4.101179 -16.52029,24.340365 -18.16174,25.659822 0.5125,-3.625787 0.57081,-5.461649 0.67265,-7.840501 0.10186,-2.378851 -1.43598,-5.463948 -1.43598,-5.463948 l -3.99061,7.792467 -3.54096,-7.888534 c 0,0 -1.91441,2.583416 -1.8838,6.462989 0.0306,3.879573 0.54267,5.757605 0.13417,8.078737 -4.17793,-8.710566 -9.1545,-17.869112 -15.51646,-23.94994 -6.36196,-6.080828 -26.8162,-19.2743123 -22.19769,-12.8299113 4.61851,6.4444013 3.58389,3.94433 4.36747,6.4976743 0.78357,2.553343 -0.32964,4.640242 1.01379,7.757783 1.34344,3.117541 6.32294,5.883916 8.08548,9.974019 1.76255,4.090102 2.42434,8.239463 2.00439,12.121938 4.14216,0.391127 6.89133,3.91923 9.42682,6.507878 2.53551,2.588649 4.47422,6.558367 5.40323,10.974718 0.929,4.416349 0.24173,8.358306 2.49328,11.111037 2.25154,2.75273 4.82418,1.982848 6.21967,3.481143 1.39549,1.498295 0.42654,1.552437 1.34532,4.989411 0.91877,-2.078875 1.36748,-3.466328 2.73595,-3.563864 1.36847,-0.09754 1.32461,0.43929 1.97264,3.563864 2.26351,-3.532485 1.24239,-4.964173 3.22913,-5.606114 1.98674,-0.641943 4.12314,-0.02766 6.00857,-3.517765 1.09867,-2.033729 0.92331,-4.534689 1.11959,-10.164185 0.6815,-3.528005 1.46882,-7.430899 5.11688,-11.145043 3.72525,-3.792741 6.52566,-4.131277 9.95173,-5.442803 0.92876,-6.83391 0.25778,-8.529754 1.48039,-12.592643 z"
           id="path3849"
           inkscape:connector-curvature="0"
           sodipodi:nodetypes="zzzzzczccczczzzzzczzzzczczscscz" />
      </g>
    </g>
  </g>
</svg>
