<?xml version="1.0" encoding="utf-8"?>
<!-- Generator: Adobe Illustrator 15.1.0, SVG Export Plug-In . SVG Version: 6.00 Build 0)  -->
<!DOCTYPE svg PUBLIC "-//W3C//DTD SVG 1.1//EN" "http://www.w3.org/Graphics/SVG/1.1/DTD/svg11.dtd">
<svg version="1.1" xmlns="http://www.w3.org/2000/svg" xmlns:xlink="http://www.w3.org/1999/xlink" x="0px" y="0px" width="192px"
	 height="192px" viewBox="0 0 192 192" style="enable-background:new 0 0 192 192;" xml:space="preserve">
<g id="Calque_1" style="display:none;">
	<g style="display:inline;">
		<defs>
			<rect id="SVGID_1_" width="192" height="192"/>
		</defs>
		<clipPath id="SVGID_2_">
			<use xlink:href="#SVGID_1_"  style="overflow:visible;"/>
		</clipPath>
		<g style="clip-path:url(#SVGID_2_);">
			<defs>
				<rect id="SVGID_3_" width="192" height="192"/>
			</defs>
			<clipPath id="SVGID_4_">
				<use xlink:href="#SVGID_3_"  style="overflow:visible;"/>
			</clipPath>
			<g style="opacity:0.15;clip-path:url(#SVGID_4_);">
				<g>
					<defs>
						<rect id="SVGID_5_" width="192" height="192"/>
					</defs>
					<clipPath id="SVGID_6_">
						<use xlink:href="#SVGID_5_"  style="overflow:visible;"/>
					</clipPath>
					<g style="clip-path:url(#SVGID_6_);">
						<defs>
							<rect id="SVGID_7_" y="0" width="192" height="192"/>
						</defs>
						<clipPath id="SVGID_8_">
							<use xlink:href="#SVGID_7_"  style="overflow:visible;"/>
						</clipPath>
						<g style="clip-path:url(#SVGID_8_);">
							<defs>
								<rect id="SVGID_9_" width="192" height="192"/>
							</defs>
							<clipPath id="SVGID_10_">
								<use xlink:href="#SVGID_9_"  style="overflow:visible;"/>
							</clipPath>
							
								<line style="clip-path:url(#SVGID_10_);fill:none;stroke:#000000;stroke-width:0.25;stroke-miterlimit:10;" x1="4" y1="192.001" x2="4" y2="0"/>
							
								<line style="clip-path:url(#SVGID_10_);fill:none;stroke:#000000;stroke-width:0.25;stroke-miterlimit:10;" x1="8" y1="192.001" x2="8" y2="0"/>
							
								<line style="clip-path:url(#SVGID_10_);fill:none;stroke:#000000;stroke-width:0.25;stroke-miterlimit:10;" x1="12" y1="192.001" x2="12" y2="0"/>
							
								<line style="clip-path:url(#SVGID_10_);fill:none;stroke:#000000;stroke-width:0.25;stroke-miterlimit:10;" x1="16" y1="192.001" x2="16" y2="0"/>
							
								<line style="clip-path:url(#SVGID_10_);fill:none;stroke:#000000;stroke-width:0.25;stroke-miterlimit:10;" x1="20" y1="192.001" x2="20" y2="0"/>
							
								<line style="clip-path:url(#SVGID_10_);fill:none;stroke:#000000;stroke-width:0.25;stroke-miterlimit:10;" x1="24" y1="192.001" x2="24" y2="0"/>
							
								<line style="clip-path:url(#SVGID_10_);fill:none;stroke:#000000;stroke-width:0.25;stroke-miterlimit:10;" x1="28" y1="192.001" x2="28" y2="0"/>
							
								<line style="clip-path:url(#SVGID_10_);fill:none;stroke:#000000;stroke-width:0.25;stroke-miterlimit:10;" x1="32" y1="192.001" x2="32" y2="0"/>
							
								<line style="clip-path:url(#SVGID_10_);fill:none;stroke:#000000;stroke-width:0.25;stroke-miterlimit:10;" x1="36" y1="192.001" x2="36" y2="0"/>
							
								<line style="clip-path:url(#SVGID_10_);fill:none;stroke:#000000;stroke-width:0.25;stroke-miterlimit:10;" x1="40" y1="192.001" x2="40" y2="0"/>
							
								<line style="clip-path:url(#SVGID_10_);fill:none;stroke:#000000;stroke-width:0.25;stroke-miterlimit:10;" x1="44" y1="192.001" x2="44" y2="0"/>
							
								<line style="clip-path:url(#SVGID_10_);fill:none;stroke:#000000;stroke-width:0.25;stroke-miterlimit:10;" x1="48" y1="192.001" x2="48" y2="0"/>
							
								<line style="clip-path:url(#SVGID_10_);fill:none;stroke:#000000;stroke-width:0.25;stroke-miterlimit:10;" x1="52" y1="192.001" x2="52" y2="0"/>
							
								<line style="clip-path:url(#SVGID_10_);fill:none;stroke:#000000;stroke-width:0.25;stroke-miterlimit:10;" x1="56" y1="192.001" x2="56" y2="0"/>
							
								<line style="clip-path:url(#SVGID_10_);fill:none;stroke:#000000;stroke-width:0.25;stroke-miterlimit:10;" x1="60" y1="192.001" x2="60" y2="0"/>
							
								<line style="clip-path:url(#SVGID_10_);fill:none;stroke:#000000;stroke-width:0.25;stroke-miterlimit:10;" x1="64" y1="192.001" x2="64" y2="0"/>
							
								<line style="clip-path:url(#SVGID_10_);fill:none;stroke:#000000;stroke-width:0.25;stroke-miterlimit:10;" x1="68" y1="192.001" x2="68" y2="0"/>
							
								<line style="clip-path:url(#SVGID_10_);fill:none;stroke:#000000;stroke-width:0.25;stroke-miterlimit:10;" x1="72" y1="192.001" x2="72" y2="0"/>
							
								<line style="clip-path:url(#SVGID_10_);fill:none;stroke:#000000;stroke-width:0.25;stroke-miterlimit:10;" x1="76" y1="192.001" x2="76" y2="0"/>
							
								<line style="clip-path:url(#SVGID_10_);fill:none;stroke:#000000;stroke-width:0.25;stroke-miterlimit:10;" x1="80" y1="192.001" x2="80" y2="0"/>
							
								<line style="clip-path:url(#SVGID_10_);fill:none;stroke:#000000;stroke-width:0.25;stroke-miterlimit:10;" x1="84" y1="192.001" x2="84" y2="0"/>
							
								<line style="clip-path:url(#SVGID_10_);fill:none;stroke:#000000;stroke-width:0.25;stroke-miterlimit:10;" x1="88" y1="192.001" x2="88" y2="0"/>
							
								<line style="clip-path:url(#SVGID_10_);fill:none;stroke:#000000;stroke-width:0.25;stroke-miterlimit:10;" x1="92" y1="192.001" x2="92" y2="0"/>
							
								<line style="clip-path:url(#SVGID_10_);fill:none;stroke:#000000;stroke-width:0.25;stroke-miterlimit:10;" x1="96" y1="192.001" x2="96" y2="0"/>
							
								<line style="clip-path:url(#SVGID_10_);fill:none;stroke:#000000;stroke-width:0.25;stroke-miterlimit:10;" x1="100" y1="192.001" x2="100" y2="0"/>
							
								<line style="clip-path:url(#SVGID_10_);fill:none;stroke:#000000;stroke-width:0.25;stroke-miterlimit:10;" x1="104" y1="192.001" x2="104" y2="0"/>
							
								<line style="clip-path:url(#SVGID_10_);fill:none;stroke:#000000;stroke-width:0.25;stroke-miterlimit:10;" x1="108" y1="192.001" x2="108" y2="0"/>
							
								<line style="clip-path:url(#SVGID_10_);fill:none;stroke:#000000;stroke-width:0.25;stroke-miterlimit:10;" x1="112" y1="192.001" x2="112" y2="0"/>
							
								<line style="clip-path:url(#SVGID_10_);fill:none;stroke:#000000;stroke-width:0.25;stroke-miterlimit:10;" x1="116" y1="192.001" x2="116" y2="0"/>
							
								<line style="clip-path:url(#SVGID_10_);fill:none;stroke:#000000;stroke-width:0.25;stroke-miterlimit:10;" x1="120" y1="192.001" x2="120" y2="0"/>
							
								<line style="clip-path:url(#SVGID_10_);fill:none;stroke:#000000;stroke-width:0.25;stroke-miterlimit:10;" x1="124" y1="192.001" x2="124" y2="0"/>
							
								<line style="clip-path:url(#SVGID_10_);fill:none;stroke:#000000;stroke-width:0.25;stroke-miterlimit:10;" x1="128" y1="192.001" x2="128" y2="0"/>
							
								<line style="clip-path:url(#SVGID_10_);fill:none;stroke:#000000;stroke-width:0.25;stroke-miterlimit:10;" x1="132" y1="192.001" x2="132" y2="0"/>
							
								<line style="clip-path:url(#SVGID_10_);fill:none;stroke:#000000;stroke-width:0.25;stroke-miterlimit:10;" x1="136" y1="192.001" x2="136" y2="0"/>
							
								<line style="clip-path:url(#SVGID_10_);fill:none;stroke:#000000;stroke-width:0.25;stroke-miterlimit:10;" x1="140" y1="192.001" x2="140" y2="0"/>
							
								<line style="clip-path:url(#SVGID_10_);fill:none;stroke:#000000;stroke-width:0.25;stroke-miterlimit:10;" x1="144" y1="192.001" x2="144" y2="0"/>
							
								<line style="clip-path:url(#SVGID_10_);fill:none;stroke:#000000;stroke-width:0.25;stroke-miterlimit:10;" x1="148" y1="192.001" x2="148" y2="0"/>
							
								<line style="clip-path:url(#SVGID_10_);fill:none;stroke:#000000;stroke-width:0.25;stroke-miterlimit:10;" x1="152" y1="192.001" x2="152" y2="0"/>
							
								<line style="clip-path:url(#SVGID_10_);fill:none;stroke:#000000;stroke-width:0.25;stroke-miterlimit:10;" x1="156" y1="192.001" x2="156" y2="0"/>
							
								<line style="clip-path:url(#SVGID_10_);fill:none;stroke:#000000;stroke-width:0.25;stroke-miterlimit:10;" x1="160" y1="192.001" x2="160" y2="0"/>
							
								<line style="clip-path:url(#SVGID_10_);fill:none;stroke:#000000;stroke-width:0.25;stroke-miterlimit:10;" x1="164" y1="192.001" x2="164" y2="0"/>
							
								<line style="clip-path:url(#SVGID_10_);fill:none;stroke:#000000;stroke-width:0.25;stroke-miterlimit:10;" x1="168" y1="192.001" x2="168" y2="0"/>
							
								<line style="clip-path:url(#SVGID_10_);fill:none;stroke:#000000;stroke-width:0.25;stroke-miterlimit:10;" x1="172" y1="192.001" x2="172" y2="0"/>
							
								<line style="clip-path:url(#SVGID_10_);fill:none;stroke:#000000;stroke-width:0.25;stroke-miterlimit:10;" x1="176" y1="192.001" x2="176" y2="0"/>
							
								<line style="clip-path:url(#SVGID_10_);fill:none;stroke:#000000;stroke-width:0.25;stroke-miterlimit:10;" x1="180" y1="192.001" x2="180" y2="0"/>
							
								<line style="clip-path:url(#SVGID_10_);fill:none;stroke:#000000;stroke-width:0.25;stroke-miterlimit:10;" x1="184" y1="192.001" x2="184" y2="0"/>
							
								<line style="clip-path:url(#SVGID_10_);fill:none;stroke:#000000;stroke-width:0.25;stroke-miterlimit:10;" x1="188" y1="192.001" x2="188" y2="0"/>
							
								<line style="clip-path:url(#SVGID_10_);fill:none;stroke:#000000;stroke-width:0.25;stroke-miterlimit:10;" x1="0" y1="4" x2="192" y2="4"/>
							
								<line style="clip-path:url(#SVGID_10_);fill:none;stroke:#000000;stroke-width:0.25;stroke-miterlimit:10;" x1="0" y1="8" x2="192" y2="8"/>
							
								<line style="clip-path:url(#SVGID_10_);fill:none;stroke:#000000;stroke-width:0.25;stroke-miterlimit:10;" x1="0" y1="12" x2="192" y2="12"/>
							
								<line style="clip-path:url(#SVGID_10_);fill:none;stroke:#000000;stroke-width:0.25;stroke-miterlimit:10;" x1="0" y1="16" x2="192" y2="16"/>
							
								<line style="clip-path:url(#SVGID_10_);fill:none;stroke:#000000;stroke-width:0.25;stroke-miterlimit:10;" x1="0" y1="20" x2="192" y2="20"/>
							
								<line style="clip-path:url(#SVGID_10_);fill:none;stroke:#000000;stroke-width:0.25;stroke-miterlimit:10;" x1="0" y1="24" x2="192" y2="24"/>
							
								<line style="clip-path:url(#SVGID_10_);fill:none;stroke:#000000;stroke-width:0.25;stroke-miterlimit:10;" x1="0" y1="28" x2="192" y2="28"/>
							
								<line style="clip-path:url(#SVGID_10_);fill:none;stroke:#000000;stroke-width:0.25;stroke-miterlimit:10;" x1="0" y1="32" x2="192" y2="32"/>
							
								<line style="clip-path:url(#SVGID_10_);fill:none;stroke:#000000;stroke-width:0.25;stroke-miterlimit:10;" x1="0" y1="36" x2="192" y2="36"/>
							
								<line style="clip-path:url(#SVGID_10_);fill:none;stroke:#000000;stroke-width:0.25;stroke-miterlimit:10;" x1="0" y1="40" x2="192" y2="40"/>
							
								<line style="clip-path:url(#SVGID_10_);fill:none;stroke:#000000;stroke-width:0.25;stroke-miterlimit:10;" x1="0" y1="44" x2="192" y2="44"/>
							
								<line style="clip-path:url(#SVGID_10_);fill:none;stroke:#000000;stroke-width:0.25;stroke-miterlimit:10;" x1="0" y1="48" x2="192" y2="48"/>
							
								<line style="clip-path:url(#SVGID_10_);fill:none;stroke:#000000;stroke-width:0.25;stroke-miterlimit:10;" x1="0" y1="52" x2="192" y2="52"/>
							
								<line style="clip-path:url(#SVGID_10_);fill:none;stroke:#000000;stroke-width:0.25;stroke-miterlimit:10;" x1="0" y1="56" x2="192" y2="56"/>
							
								<line style="clip-path:url(#SVGID_10_);fill:none;stroke:#000000;stroke-width:0.25;stroke-miterlimit:10;" x1="0" y1="60" x2="192" y2="60"/>
							
								<line style="clip-path:url(#SVGID_10_);fill:none;stroke:#000000;stroke-width:0.25;stroke-miterlimit:10;" x1="0" y1="64" x2="192" y2="64"/>
							
								<line style="clip-path:url(#SVGID_10_);fill:none;stroke:#000000;stroke-width:0.25;stroke-miterlimit:10;" x1="0" y1="68" x2="192" y2="68"/>
							
								<line style="clip-path:url(#SVGID_10_);fill:none;stroke:#000000;stroke-width:0.25;stroke-miterlimit:10;" x1="0" y1="72" x2="192" y2="72"/>
							
								<line style="clip-path:url(#SVGID_10_);fill:none;stroke:#000000;stroke-width:0.25;stroke-miterlimit:10;" x1="0" y1="76" x2="192" y2="76"/>
							
								<line style="clip-path:url(#SVGID_10_);fill:none;stroke:#000000;stroke-width:0.25;stroke-miterlimit:10;" x1="0" y1="80" x2="192" y2="80"/>
							
								<line style="clip-path:url(#SVGID_10_);fill:none;stroke:#000000;stroke-width:0.25;stroke-miterlimit:10;" x1="0" y1="84" x2="192" y2="84"/>
							
								<line style="clip-path:url(#SVGID_10_);fill:none;stroke:#000000;stroke-width:0.25;stroke-miterlimit:10;" x1="0" y1="88" x2="192" y2="88"/>
							
								<line style="clip-path:url(#SVGID_10_);fill:none;stroke:#000000;stroke-width:0.25;stroke-miterlimit:10;" x1="0" y1="92" x2="192" y2="92"/>
							
								<line style="clip-path:url(#SVGID_10_);fill:none;stroke:#000000;stroke-width:0.25;stroke-miterlimit:10;" x1="0" y1="96" x2="192" y2="96"/>
							
								<line style="clip-path:url(#SVGID_10_);fill:none;stroke:#000000;stroke-width:0.25;stroke-miterlimit:10;" x1="0" y1="100.001" x2="192" y2="100.001"/>
							
								<line style="clip-path:url(#SVGID_10_);fill:none;stroke:#000000;stroke-width:0.25;stroke-miterlimit:10;" x1="0" y1="104.001" x2="192" y2="104.001"/>
							
								<line style="clip-path:url(#SVGID_10_);fill:none;stroke:#000000;stroke-width:0.25;stroke-miterlimit:10;" x1="0" y1="108.001" x2="192" y2="108.001"/>
							
								<line style="clip-path:url(#SVGID_10_);fill:none;stroke:#000000;stroke-width:0.25;stroke-miterlimit:10;" x1="0" y1="112.001" x2="192" y2="112.001"/>
							
								<line style="clip-path:url(#SVGID_10_);fill:none;stroke:#000000;stroke-width:0.25;stroke-miterlimit:10;" x1="0" y1="116.001" x2="192" y2="116.001"/>
							
								<line style="clip-path:url(#SVGID_10_);fill:none;stroke:#000000;stroke-width:0.25;stroke-miterlimit:10;" x1="0" y1="120.001" x2="192" y2="120.001"/>
							
								<line style="clip-path:url(#SVGID_10_);fill:none;stroke:#000000;stroke-width:0.25;stroke-miterlimit:10;" x1="0" y1="124.001" x2="192" y2="124.001"/>
							
								<line style="clip-path:url(#SVGID_10_);fill:none;stroke:#000000;stroke-width:0.25;stroke-miterlimit:10;" x1="0" y1="128.001" x2="192" y2="128.001"/>
							
								<line style="clip-path:url(#SVGID_10_);fill:none;stroke:#000000;stroke-width:0.25;stroke-miterlimit:10;" x1="0" y1="132.001" x2="192" y2="132.001"/>
							
								<line style="clip-path:url(#SVGID_10_);fill:none;stroke:#000000;stroke-width:0.25;stroke-miterlimit:10;" x1="0" y1="136.001" x2="192" y2="136.001"/>
							
								<line style="clip-path:url(#SVGID_10_);fill:none;stroke:#000000;stroke-width:0.25;stroke-miterlimit:10;" x1="0" y1="140.001" x2="192" y2="140.001"/>
							
								<line style="clip-path:url(#SVGID_10_);fill:none;stroke:#000000;stroke-width:0.25;stroke-miterlimit:10;" x1="0" y1="144.001" x2="192" y2="144.001"/>
							
								<line style="clip-path:url(#SVGID_10_);fill:none;stroke:#000000;stroke-width:0.25;stroke-miterlimit:10;" x1="0" y1="148.001" x2="192" y2="148.001"/>
							
								<line style="clip-path:url(#SVGID_10_);fill:none;stroke:#000000;stroke-width:0.25;stroke-miterlimit:10;" x1="0" y1="152.001" x2="192" y2="152.001"/>
							
								<line style="clip-path:url(#SVGID_10_);fill:none;stroke:#000000;stroke-width:0.25;stroke-miterlimit:10;" x1="0" y1="156.001" x2="192" y2="156.001"/>
							
								<line style="clip-path:url(#SVGID_10_);fill:none;stroke:#000000;stroke-width:0.25;stroke-miterlimit:10;" x1="0" y1="160.001" x2="192" y2="160.001"/>
							
								<line style="clip-path:url(#SVGID_10_);fill:none;stroke:#000000;stroke-width:0.25;stroke-miterlimit:10;" x1="0" y1="164.001" x2="192" y2="164.001"/>
							
								<line style="clip-path:url(#SVGID_10_);fill:none;stroke:#000000;stroke-width:0.25;stroke-miterlimit:10;" x1="0" y1="168.001" x2="192" y2="168.001"/>
							
								<line style="clip-path:url(#SVGID_10_);fill:none;stroke:#000000;stroke-width:0.25;stroke-miterlimit:10;" x1="0" y1="172.001" x2="192" y2="172.001"/>
							
								<line style="clip-path:url(#SVGID_10_);fill:none;stroke:#000000;stroke-width:0.25;stroke-miterlimit:10;" x1="0" y1="176.001" x2="192" y2="176.001"/>
							
								<line style="clip-path:url(#SVGID_10_);fill:none;stroke:#000000;stroke-width:0.25;stroke-miterlimit:10;" x1="0" y1="180.001" x2="192" y2="180.001"/>
							
								<line style="clip-path:url(#SVGID_10_);fill:none;stroke:#000000;stroke-width:0.25;stroke-miterlimit:10;" x1="0" y1="184.001" x2="192" y2="184.001"/>
							
								<line style="clip-path:url(#SVGID_10_);fill:none;stroke:#000000;stroke-width:0.25;stroke-miterlimit:10;" x1="0" y1="188.001" x2="192" y2="188.001"/>
						</g>
						<path style="clip-path:url(#SVGID_8_);" d="M0.25,191.75h191.5V0.25H0.25V191.75z M0,0.001h192v192H0V0.001z"/>
					</g>
				</g>
			</g>
		</g>
		<g style="clip-path:url(#SVGID_2_);">
			<defs>
				<rect id="SVGID_11_" width="192" height="192"/>
			</defs>
			<clipPath id="SVGID_12_">
				<use xlink:href="#SVGID_11_"  style="overflow:visible;"/>
			</clipPath>
			<g style="clip-path:url(#SVGID_12_);">
				<defs>
					<rect id="SVGID_13_" x="0" y="0" width="192" height="192"/>
				</defs>
				<clipPath id="SVGID_14_">
					<use xlink:href="#SVGID_13_"  style="overflow:visible;"/>
				</clipPath>
				<g style="opacity:0.4;clip-path:url(#SVGID_14_);">
					<g>
						<defs>
							<rect id="SVGID_15_" x="0" y="0" width="192" height="192"/>
						</defs>
						<clipPath id="SVGID_16_">
							<use xlink:href="#SVGID_15_"  style="overflow:visible;"/>
						</clipPath>
						<g style="clip-path:url(#SVGID_16_);">
							<defs>
								<rect id="SVGID_17_" width="192" height="192"/>
							</defs>
							<clipPath id="SVGID_18_">
								<use xlink:href="#SVGID_17_"  style="overflow:visible;"/>
							</clipPath>
							
								<line style="clip-path:url(#SVGID_18_);fill:none;stroke:#000000;stroke-width:0.25;stroke-miterlimit:10;" x1="0.25" y1="0.25" x2="191.75" y2="191.75"/>
						</g>
						<path style="clip-path:url(#SVGID_16_);" d="M0.249,191.75H191.75V0.25H0.249V191.75z M0,0h192v192H0V0z"/>
						<g style="clip-path:url(#SVGID_16_);">
							<defs>
								<rect id="SVGID_19_" width="192" height="192"/>
							</defs>
							<clipPath id="SVGID_20_">
								<use xlink:href="#SVGID_19_"  style="overflow:visible;"/>
							</clipPath>
							
								<line style="clip-path:url(#SVGID_20_);fill:none;stroke:#000000;stroke-width:0.25;stroke-miterlimit:10;" x1="191.75" y1="0.25" x2="0.25" y2="191.75"/>
							
								<line style="clip-path:url(#SVGID_20_);fill:none;stroke:#000000;stroke-width:0.25;stroke-miterlimit:10;" x1="124" y1="0" x2="124" y2="192"/>
							
								<line style="clip-path:url(#SVGID_20_);fill:none;stroke:#000000;stroke-width:0.25;stroke-miterlimit:10;" x1="68" y1="0" x2="68" y2="192"/>
							
								<line style="clip-path:url(#SVGID_20_);fill:none;stroke:#000000;stroke-width:0.25;stroke-miterlimit:10;" x1="192" y1="123.999" x2="0" y2="123.999"/>
							
								<line style="clip-path:url(#SVGID_20_);fill:none;stroke:#000000;stroke-width:0.25;stroke-miterlimit:10;" x1="192" y1="68" x2="0" y2="68"/>
							
								<circle style="clip-path:url(#SVGID_20_);fill:none;stroke:#000000;stroke-width:0.25;stroke-miterlimit:10;" cx="96" cy="96" r="40"/>
							
								<line style="clip-path:url(#SVGID_20_);fill:none;stroke:#000000;stroke-width:0.25;stroke-miterlimit:10;" x1="0" y1="96" x2="192" y2="96"/>
							
								<line style="clip-path:url(#SVGID_20_);fill:none;stroke:#000000;stroke-width:0.25;stroke-miterlimit:10;" x1="96" y1="0" x2="96" y2="191.999"/>
							<path style="clip-path:url(#SVGID_20_);" d="M96,8.25c48.386,0,87.75,39.365,87.75,87.75c0,48.386-39.364,87.75-87.75,87.75
								c-48.386,0-87.75-39.364-87.75-87.75C8.25,47.615,47.614,8.25,96,8.25 M96,8C47.399,8,8,47.398,8,96s39.399,88,88,88
								c48.601,0,88-39.399,88-88S144.601,8,96,8"/>
							<path style="clip-path:url(#SVGID_20_);" d="M160,20.25c6.479,0,11.75,5.271,11.75,11.75v128
								c0,6.479-5.271,11.75-11.75,11.75H32c-6.479,0-11.75-5.271-11.75-11.75V32c0-6.479,5.271-11.75,11.75-11.75H160 M160,20H32
								c-6.6,0-12,5.4-12,12v128c0,6.6,5.4,12,12,12h128c6.6,0,12-5.4,12-12V32C172,25.399,166.6,20,160,20"/>
							<path style="clip-path:url(#SVGID_20_);" d="M148,8.25c6.479,0,11.75,5.271,11.75,11.75v152c0,6.479-5.271,11.75-11.75,11.75
								H44c-6.479,0-11.75-5.271-11.75-11.75V20c0-6.479,5.271-11.75,11.75-11.75H148 M148,8H44c-6.6,0-12,5.4-12,12v152
								c0,6.6,5.4,12,12,12h104c6.6,0,12-5.4,12-12V20C160,13.399,154.6,8,148,8"/>
							<path style="clip-path:url(#SVGID_20_);" d="M172,32.25c6.479,0,11.75,5.271,11.75,11.75v104
								c0,6.479-5.271,11.75-11.75,11.75H20c-6.479,0-11.75-5.271-11.75-11.75V44c0-6.479,5.271-11.75,11.75-11.75H172 M172,32H20
								c-6.6,0-12,5.4-12,12v104c0,6.6,5.4,12,12,12h152c6.6,0,12-5.4,12-12V44C184,37.399,178.6,32,172,32"/>
						</g>
					</g>
				</g>
			</g>
		</g>
	</g>
</g>
<g id="Calque_2">
	<g>
		<g>
			<g>
				<path style="fill:#FFFFFF;" d="M8,120v-18h26.468C34.468,70,61,38.304,96,38.304V120H8z"/>
			</g>
			<g>
				<path style="fill:#FFFFFF;" d="M184,120v-18h-26.015C157.985,70,132,38.304,96,38.304V120H184z"/>
			</g>
		</g>
		<polyline style="fill:#757575;" points="75.642,116.771 68.126,83.737 60.611,116.771 		"/>
		<polyline style="fill:#757575;" points="119.479,44.538 127.365,78.764 133.161,53.593 		"/>
		<polyline style="fill:#757575;" points="110.365,39.37 115.54,62.134 119.848,43.18 		"/>
		<g>
			<g>
				<path style="fill:none;stroke:#757575;stroke-width:8;stroke-miterlimit:10;" d="M96.227,38.451
					C61.114,38.451,34.468,70,34.468,102H8"/>
			</g>
			<g>
				<path style="fill:none;stroke:#757575;stroke-width:8;stroke-miterlimit:10;" d="M96,38.451
					c35.114,0,61.986,31.549,61.986,63.549H184"/>
			</g>
		</g>
		<g>
			<g>
				<line style="fill:#757575;" x1="96" y1="120" x2="8" y2="120"/>
				<line style="fill:none;stroke:#757575;stroke-width:8;stroke-miterlimit:10;" x1="96" y1="120" x2="8" y2="120"/>
			</g>
			<g>
				<line style="fill:#757575;" x1="96" y1="120" x2="184" y2="120"/>
				<line style="fill:none;stroke:#757575;stroke-width:8;stroke-miterlimit:10;" x1="96" y1="120" x2="184" y2="120"/>
			</g>
		</g>
	</g>
</g>
</svg>
