<svg height="512pt" viewBox="0 -43 512 511" width="512pt" xmlns="http://www.w3.org/2000/svg"><path d="m114.074219 391.789062c-5.765625 0-11.023438-3.304687-13.519531-8.503906l-22.070313-45.902344c-46.550781-15.238281-78.484375-58.839843-78.484375-108.410156 0-62.902344 51.171875-114.074218 114.074219-114.074218 62.902343 0 114.074219 51.171874 114.074219 114.074218 0 49.570313-31.933594 93.171875-78.488282 108.410156l-22.066406 45.902344c-2.5 5.199219-7.753906 8.503906-13.519531 8.503906zm0 0" fill="#3aaaff"/><path d="m114.074219 114.898438v276.890624c5.765625 0 11.019531-3.304687 13.519531-8.503906l22.066406-45.902344c46.554688-15.238281 78.488282-58.835937 78.488282-108.410156 0-62.902344-51.171876-114.074218-114.074219-114.074218zm0 0" fill="#008adf"/><path d="m397.925781 391.789062c-5.765625 0-11.023437-3.304687-13.519531-8.503906l-22.066406-45.902344c-46.554688-15.238281-78.488282-58.839843-78.488282-108.410156 0-62.898437 51.171876-114.074218 114.074219-114.074218 62.902344 0 114.074219 51.171874 114.074219 114.074218 0 49.574219-31.933594 93.171875-78.488281 108.410156l-22.066407 45.90625c-2.5 5.195313-7.753906 8.5-13.519531 8.5zm0 0" fill="#00ff8d"/><path d="m397.925781 114.898438v276.890624c5.765625 0 11.019531-3.304687 13.519531-8.503906l22.070313-45.902344c46.550781-15.238281 78.484375-58.839843 78.484375-108.410156 0-62.902344-51.171875-114.074218-114.074219-114.074218zm0 0" fill="#00dd7b"/><path d="m255.957031 426.316406c-6.148437 0-11.675781-3.753906-13.941406-9.472656l-35.578125-89.730469c-69.574219-21.523437-117.519531-86.0625-117.519531-159.574219 0-92.105468 74.933593-167.039062 167.039062-167.039062 92.109375 0 167.042969 74.933594 167.042969 167.042969 0 73.507812-47.945312 138.046875-117.523438 159.574219l-35.574218 89.726562c-2.265625 5.71875-7.792969 9.472656-13.945313 9.472656zm0 0" fill="#ff415b"/><path d="m255.957031.5v425.816406c6.152344 0 11.679688-3.753906 13.945313-9.472656l35.574218-89.730469c69.578126-21.523437 117.523438-86.0625 117.523438-159.570312 0-92.109375-74.933594-167.042969-167.042969-167.042969zm0 0" fill="#b20042"/><path d="m255.957031 212.542969c-24.8125 0-45-20.1875-45-45s20.1875-45 45-45 45 20.1875 45 45-20.1875 45-45 45zm0 0" fill="#f3eee9"/><path d="m255.957031 122.542969v90c24.8125 0 45-20.1875 45-45s-20.1875-45-45-45zm0 0" fill="#e9dfda"/></svg>
