<?xml version="1.0" encoding="UTF-8" standalone="no"?>
<!-- Created with Inkscape (http://www.inkscape.org/) -->

<svg
   xmlns:dc="http://purl.org/dc/elements/1.1/"
   xmlns:cc="http://creativecommons.org/ns#"
   xmlns:rdf="http://www.w3.org/1999/02/22-rdf-syntax-ns#"
   xmlns:svg="http://www.w3.org/2000/svg"
   xmlns="http://www.w3.org/2000/svg"
   xmlns:sodipodi="http://sodipodi.sourceforge.net/DTD/sodipodi-0.dtd"
   xmlns:inkscape="http://www.inkscape.org/namespaces/inkscape"
   id="svg3314"
   version="1.1"
   inkscape:version="0.91pre4 r13712"
   width="546"
   height="543"
   sodipodi:docname="kit-bag.svg">
  <metadata
     id="metadata3320">
    <rdf:RDF>
      <cc:Work
         rdf:about="">
        <dc:format>image/svg+xml</dc:format>
        <dc:type
           rdf:resource="http://purl.org/dc/dcmitype/StillImage" />
        <dc:title></dc:title>
      </cc:Work>
    </rdf:RDF>
  </metadata>
  <defs
     id="defs3318" />
  <sodipodi:namedview
     pagecolor="#ffffff"
     bordercolor="#666666"
     borderopacity="1"
     objecttolerance="10"
     gridtolerance="10"
     guidetolerance="10"
     inkscape:pageopacity="0"
     inkscape:pageshadow="2"
     inkscape:window-width="1920"
     inkscape:window-height="1017"
     id="namedview3316"
     showgrid="false"
     showguides="true"
     inkscape:guide-bbox="true"
     inkscape:zoom="0.82106903"
     inkscape:cx="106.15227"
     inkscape:cy="200.92557"
     inkscape:window-x="-8"
     inkscape:window-y="-8"
     inkscape:window-maximized="1"
     inkscape:current-layer="svg3314">
    <sodipodi:guide
       orientation="0,1"
       position="398.04661,2.3008475"
       id="guide3324" />
  </sodipodi:namedview>
  <path
     inkscape:connector-curvature="0"
     id="path3340"
     d="m 260.80932,533.21735 c -0.55,-0.26297 -7.33086,-1.36154 -15.06859,-2.44125 -7.73772,-1.07972 -16.51272,-2.93322 -19.5,-4.1189 -6.28308,-2.4938 -19.4549,-6.45441 -36.13118,-10.86422 -8.41844,-2.22613 -13.94434,-3.09383 -19.70294,-3.09383 -8.7344,0 -13.09729,-1.35413 -13.09729,-4.06506 0,-1.06033 -2.05811,-2.9076 -5.25,-4.71217 -6.13357,-3.46769 -19.69594,-13.49741 -24.80922,-18.34706 -11.9673,-11.35029 -15.89225,-24.69581 -15.98433,-54.34948 -0.0239,-7.71442 -0.49359,-16.05123 -1.04365,-18.52623 -0.55006,-2.475 -1.54905,-8.4678 -2.21999,-13.31734 -1.01288,-7.32111 -1.62499,-9.1229 -3.60719,-10.61808 -2.17532,-1.64085 -2.33953,-2.32774 -1.8492,-7.73524 0.67249,-7.41625 4.13056,-15.6189 7.93375,-18.81907 3.98681,-3.35468 6.12364,-8.81179 5.31789,-13.581 -0.53044,-3.13964 0.0584,-5.37935 3.31896,-12.62307 2.1801,-4.84341 6.00241,-14.4312 8.49401,-21.3062 2.49161,-6.875 5.49601,-14.94978 6.67644,-17.94395 1.18043,-2.99417 2.82664,-10.19417 3.65825,-16 0.83161,-5.80583 2.77879,-15.28105 4.32708,-21.05605 1.54828,-5.775 3.97942,-16.35 5.40254,-23.5 1.42311,-7.15 3.94898,-17.95 5.61303,-24 3.83988,-13.96064 4.46823,-16.84601 7.5131,-34.5 1.37549,-7.975 3.5904,-19 4.92203,-24.5 1.33163,-5.5 3.62026,-15.59486 5.08584,-22.43303 3.09299,-14.43132 6.6233,-24.56697 8.55682,-24.56697 0.77146,0 1.70668,1.69594 2.17306,3.94065 1.09772,5.28334 1.44301,5.40596 2.67352,0.94941 0.93329,-3.38007 0.75114,-4.29719 -1.65717,-8.34377 -2.24186,-3.766888 -2.70913,-5.746349 -2.72564,-11.546288 -0.0191,-6.702715 0.17118,-7.269589 4.48007,-13.3479 11.49141,-16.2103 22.87899,-33.09272 25.39719,-37.6521 0.91132,-1.65 4.13642,-6.375 7.1669,-10.5 3.03047,-4.125 6.80398,-9.524999 8.38558,-12 7.82527,-12.2455449 11.13346,-13.630007 17.91952,-7.499217 l 3.87494,3.500783 0.63634,-3.9794505 c 0.50225,-3.1408615 1.30168,-4.3235084 3.79365,-5.612156 6.253,-3.2335499 19.17267,0.8437655 23.53328,7.4268595 2.44874,3.696782 8.69593,7.374516 11.7926,6.942318 1.54432,-0.215538 2.13359,-1.280214 2.58633,-4.672871 0.51873,-3.8872005 2.77006,-7.1062655 4.96994,-7.1062655 2.19025,0 5.93392,4.7080555 7.78879,9.7952265 1.18063,3.23799 3.08912,6.740222 4.24109,7.782739 2.05484,1.859603 2.12069,1.859652 3.47861,0.0026 0.76127,-1.041099 2.07935,-4.185124 2.92907,-6.986725 2.82066,-9.3000155 5.71392,-14.0938415 8.50617,-14.0938415 2.53675,0 3.52598,1.9586275 5.45102,10.7928195 0.33472,1.536052 1.26896,3.046234 2.0761,3.355962 1.51499,0.581353 7.57866,-2.926412 17.92296,-10.368223 9.0591,-6.5172202 11.12149,-6.1443509 18.29277,3.307236 3.16643,4.173287 6.88215,9.669383 8.25715,12.213547 1.94799,3.604368 3.91538,5.422794 8.91014,8.235479 7.24255,4.078479 21.11439,16.450091 24.52106,21.869123 5.23179,8.322288 18.44853,35.42273 19.0703,39.102962 0.56193,3.326006 1.06435,3.991094 3.01497,3.991094 2.86611,0 5.48353,2.452561 5.48353,5.138148 0,1.09741 1.125,3.47024 2.5,5.27296 3.18973,4.18195 3.17708,6.38085 -0.0413,7.18862 -2.07917,0.52184 -3.12488,-0.0283 -5.75,-3.02484 -2.25524,-2.57435 -4.32293,-3.83708 -6.95866,-4.24963 l -3.75,-0.58694 0,6.93971 c 0,8.4512 -1.33926,10.79271 -5.7987,10.13821 -2.03501,-0.29868 -3.30357,0.008 -3.6379,0.87914 -1.24292,3.23899 -2.53724,35.23673 -3.10677,76.80462 -0.33911,24.75 -0.95454,55.8 -1.36762,69 -0.41308,13.2 -0.61523,30.525 -0.44922,38.5 0.166,7.975 0.75162,47.8 1.30136,88.5 0.54975,40.7 1.27416,76.98969 1.60982,80.64375 0.72165,7.85623 -0.47597,10.8358 -6.85367,17.05133 -9.70597,9.45916 -39.87486,26.39718 -53.1973,29.8671 -2.2,0.57301 -6.86551,2.16275 -10.3678,3.53277 -3.89623,1.52412 -11.07675,3.0671 -18.5,3.97536 -11.69595,1.43104 -57.08599,2.92625 -59.1322,1.94789 z m -68.93599,-35.41463 c -0.72021,-1.16532 -8.27852,-5.10357 -9.7948,-5.10357 -1.88186,0 0.59122,2.0402 4.92326,4.06152 4.37022,2.03913 5.65802,2.3146 4.87154,1.04205 z m -6.28563,-9.6931 c 4.43534,-0.4974 6.06231,-1.14336 7,-2.77924 2.40694,-4.19912 1.37932,-105.09235 -1.33866,-131.4314 -0.52783,-5.11509 -1.19378,-15.46509 -1.47988,-23 -0.76797,-20.2257 -2.31482,-31.36791 -4.61158,-33.21787 -2.53328,-2.04046 -3.66969,-9.72528 -4.792,-32.4054 -0.98755,-19.95682 -0.77706,-25.07908 1.61426,-39.283 1.2431,-7.38373 1.33015,-10.46867 0.43972,-15.58191 -0.61063,-3.50651 -1.1551,-12.86362 -1.20992,-20.79356 -0.0548,-7.92995 -0.42854,-15.54309 -0.83049,-16.91809 l -0.7308,-2.5 -0.63584,3 c -0.34971,1.65 -1.35162,8.36012 -2.22646,14.91138 -0.87484,6.55126 -3.33059,18.70126 -5.45723,27 -2.12663,8.29874 -4.17413,17.78862 -4.55001,21.08862 -0.85284,7.48757 -3.00624,18.15137 -4.4121,21.84906 -0.58602,1.54135 -1.52836,7.15587 -2.09408,12.4767 -0.56573,5.32083 -1.90182,12.62931 -2.96909,16.24106 -2.01888,6.83203 -5.72697,23.96931 -9.05143,41.8319 -1.22117,6.56147 -3.07978,12.65017 -5.03674,16.5 -3.99721,7.86357 -7.58187,18.2085 -9.48605,27.37574 -1.24371,5.98752 -1.29993,8.34739 -0.31783,13.33932 1.45335,7.38725 0.68551,22.13923 -2.10211,40.38622 -2.01665,13.20038 -2.46411,28.71497 -1.10376,38.27008 0.98855,6.9436 4.77121,10.82276 16.42048,16.83937 9.57092,4.94319 23.44983,8.62359 29.68322,7.87138 1.925,-0.2323 6.10027,-0.71396 9.27838,-1.07036 z M 408.93332,76.949152 c -0.28092,-0.9625 -1.25013,-4.361402 -2.15378,-7.553116 -1.91523,-6.764573 -11.96191,-20.865546 -16.56067,-23.243658 -3.60657,-1.865032 -3.76052,-0.598109 -0.31865,2.62246 4.67328,4.372821 9.63635,11.946232 12.59814,19.224201 2.55597,6.280751 5.25437,10.700113 6.53334,10.700113 0.22682,0 0.18255,-0.787499 -0.0984,-1.75 z"
     style="fill:#ede2a1" />
  <path
     inkscape:connector-curvature="0"
     id="path3338"
     d="m 245.66402,529.22244 c -8.32991,-1.30769 -17.32991,-3.29003 -20,-4.4052 -12.94549,-5.40675 -43.81854,-13.10008 -53.04247,-13.21777 -9.94882,-0.12694 -12.72759,-0.89841 -13.12559,-3.64403 -0.17234,-1.18895 -1.17891,-2.43645 -2.23681,-2.77221 -2.86128,-0.90814 -18.68435,-11.52888 -24.69808,-16.57782 -7.47417,-6.27508 -13.92428,-15.29214 -16.24759,-22.71364 -2.36222,-7.54581 -3.99331,-23.4196 -4.02718,-39.19262 -0.0136,-6.325 -0.47801,-13.3 -1.03206,-15.5 -0.55406,-2.2 -1.38259,-7.73699 -1.8412,-12.30442 -0.70658,-7.03719 -1.24701,-8.7357 -3.54151,-11.13065 -2.60923,-2.72345 -2.66959,-3.03239 -1.65968,-8.49546 1.41274,-7.64223 4.37606,-14.05068 7.41914,-16.04458 3.2941,-2.15838 5.67833,-8.31774 5.67833,-14.66927 0,-3.69742 0.97207,-7.25681 3.5275,-12.91651 1.94012,-4.29694 6.62386,-16.3085 10.40832,-26.69236 5.25846,-14.42828 7.26002,-21.45765 8.48909,-29.81325 0.88455,-6.01342 2.70878,-14.7585 4.05385,-19.4335 1.34507,-4.675 3.15481,-12.775 4.02164,-18 0.86683,-5.225 2.65347,-13.325 3.97031,-18 4.00507,-14.21869 8.24401,-32.82826 10.478,-46 2.94477,-17.3625 12.46676,-59.00103 14.92152,-65.25 0.59415,-1.5125 1.49217,-2.75 1.99561,-2.75 1.37964,0 2.02414,5.76072 2.75363,24.61257 0.55609,14.37055 0.40309,17.87298 -0.95483,21.85826 -0.88936,2.61013 -3.01213,14.03084 -4.71726,25.37935 -1.70512,11.34851 -4.60101,26.4873 -6.4353,33.64174 -1.83428,7.15444 -4.05526,17.95808 -4.93551,24.00808 -0.88025,6.05 -2.47633,13.79236 -3.54685,17.20524 -1.07052,3.41288 -2.41151,10.61288 -2.97998,16 -0.56847,5.38712 -1.73995,12.04476 -2.60329,14.79476 -0.86334,2.75 -3.73286,15.58323 -6.37671,28.51829 -3.51361,17.1903 -5.60805,25.12777 -7.7841,29.5 -3.66974,7.37344 -7.57961,18.75271 -9.56571,27.83998 -1.15854,5.30083 -1.25019,7.68526 -0.4036,10.5 1.68878,5.61488 1.06694,25.27831 -1.23783,39.14173 -2.28414,13.73929 -2.85845,38.65164 -1.04183,45.19238 2.12781,7.66119 17.84445,17.49985 34.55329,21.63046 4.47673,1.1067 13.06694,4.49598 19.23334,7.58854 6.12886,3.07374 11.60513,5.58862 12.16948,5.58862 0.63333,0 0.95605,-3.1579 0.84311,-8.25 -0.10065,-4.5375 0.19175,-12.975 0.64976,-18.75 1.25895,-15.87387 -1.09237,-112.02151 -3.04468,-124.5 -0.8605,-5.5 -2.01127,-19.675 -2.55727,-31.5 -0.546,-11.825 -1.41217,-21.64799 -1.92483,-21.82887 -3.71539,-1.31089 -4.95333,-3.96707 -6.13853,-13.17113 -1.92095,-14.91767 -1.66186,-47.29756 0.48945,-61.1711 1.34122,-8.64935 1.55576,-12.66243 0.82864,-15.5 -4.45896,-50.07194 0.0735,-22.05772 -4.33414,-58.8289 4.54827,-37.68802 -3.67506,-45.61157 2.05794,-63.434499 1.36063,-4.541393 14.86917,-23.065499 16.8203,-23.065499 0.7637,0 2.27726,-1.9125 3.36346,-4.25 1.08621,-2.3375 3.31118,-6.275 4.94439,-8.75 1.6332,-2.475 3.44115,-5.575079 4.01766,-6.889064 0.57651,-1.313986 2.16055,-3.711012 3.52008,-5.326726 1.35953,-1.615713 2.47188,-3.332563 2.47188,-3.815222 0,-0.48266 2.26629,-3.909332 5.03621,-7.614829 2.76991,-3.705498 6.40294,-9.126068 8.07339,-12.045713 3.99387,-6.9805603 5.87498,-6.9549487 14.06928,0.191555 8.14017,7.099282 10.94547,7.111813 6.15496,0.02749 -3.61124,-5.3403795 -0.52598,-9.5373971 6.98759,-9.5055325 8.13185,0.034487 15.42331,4.125778 17.08227,9.5849845 0.36947,1.215835 2.42846,2.873856 4.86828,3.920232 9.72084,4.169016 10.69802,3.918557 11.4711,-2.940124 0.33929,-3.010169 1.14137,-4.99003 2.26523,-5.5915045 2.29129,-1.226258 4.06263,0.7919325 7.4554,8.4943615 2.47246,5.613124 6.00315,10.510092 7.57772,10.510092 1.03158,0 5.95857,-7.737659 5.95857,-9.357717 0,-1.929363 4.8936,-12.4584925 6.15169,-13.2360293 1.77501,-1.0970209 2.84992,1.0308314 3.61507,7.1562933 0.47102,3.770776 1.19628,5.900961 1.98745,5.837453 0.68519,-0.055 2.97451,-0.1675 5.08738,-0.25 2.23481,-0.08726 4.84894,-1.00477 6.25,-2.193625 1.32463,-1.123994 5.54877,-4.273994 9.387,-6.9999995 8.49485,-6.0332667 11.71554,-6.4218393 14.14334,-1.706375 0.9203,1.7875 3.13317,5.0499995 4.91748,7.2500005 1.78432,2.199999 4.08039,5.75032 5.1024,7.8896 1.46043,3.057005 3.46362,4.796845 9.35819,8.127935 10.32798,5.836459 23.71314,18.557517 27.4683,26.105458 1.60811,3.232353 5.39343,10.377006 8.41182,15.877006 3.01838,5.5 6.48646,13.150001 7.70686,17 1.96578,6.201486 2.54227,7.057917 5.05375,7.50771 1.79496,0.321461 2.97524,1.236671 3.21756,2.494958 0.21049,1.09299 1.66812,3.85553 3.23917,6.13898 2.47583,3.59849 2.65923,4.31539 1.37635,5.38009 -1.22392,1.01576 -2.12866,0.52914 -5.22696,-2.81134 -2.88227,-3.10755 -4.72753,-4.1775 -7.99685,-4.63687 l -4.25,-0.59717 0,6.90104 c 0,5.43416 -0.4233,7.40284 -1.99143,9.26182 l -1.99144,2.36078 -2.80319,-3.33624 -2.80319,-3.33624 -1.28923,13.33624 c -0.70907,7.33493 -1.68506,16.03624 -2.16886,19.33624 -0.4838,3.3 -1.09816,28.95 -1.36525,57 -0.26709,28.05 -1.04134,62.05046 -1.72056,75.55657 -0.93702,18.63225 -0.98046,33.58988 -0.18008,62 0.58019,20.59389 0.862,55.66843 0.62625,77.94343 -0.37051,35.00881 -0.19433,41.94153 1.2994,51.13194 2.03069,12.49409 1.47474,14.8235 -5.06606,21.22688 -7.42428,7.2683 -29.96149,20.70699 -43.54636,25.96623 -26.75409,10.35755 -33.93958,11.61583 -69.5,12.17038 -23.66925,0.36911 -27.35769,0.19232 -41.1453,-1.97214 z m -34.91866,-235.4198 c 0.30474,-0.49308 0.27224,-2.95267 -0.0722,-5.46576 -0.56048,-4.08919 -0.98102,-4.68632 -4.00273,-5.68357 -7.23683,-2.38837 -7.06852,-11.95416 0.21032,-11.95416 2.23949,0 2.42857,-0.37975 2.42857,-4.87756 0,-3.27821 -0.53172,-5.31884 -1.6216,-6.22336 -1.42004,-1.17853 -2.41441,-0.50899 -8,5.38668 -7.36376,7.77256 -8.00761,10.55068 -3.68206,15.88751 11.15405,13.7618 13.14587,15.50909 14.7397,12.93022 z m -7.00501,-44.63544 c 3.61293,-4.14257 6.56781,-8.30507 6.5664,-9.25 -0.001,-0.94493 -1.52733,-4.2466 -3.39092,-7.33705 -1.86359,-3.09045 -4.16371,-7.25295 -5.11137,-9.25 -2.98949,-6.29988 -6.71023,-4.39173 -8.07467,4.14102 -0.57951,3.624 -0.40929,4.09393 1.71815,4.74352 5.43903,1.66074 7.38872,6.01344 4.47715,9.99524 -0.77364,1.05802 -2.64831,1.91993 -4.25,1.95399 -2.77035,0.0589 -2.86025,0.22022 -2.69991,4.84424 0.15608,4.50116 1.56109,7.69099 3.38761,7.69099 0.44473,0 3.76463,-3.38938 7.37756,-7.53195 z m -10.43103,-38.90857 c -0.275,-0.51729 -1.7375,-1.07601 -3.25,-1.24159 -1.95004,-0.21348 -2.75,0.15127 -2.75,1.25389 0,1.1519 0.84239,1.47372 3.25,1.24158 1.7875,-0.17235 3.025,-0.7366 2.75,-1.25388 z M 413.40259,96.392423 c -1.83998,-1.839983 -2.44344,2.218959 -0.98597,6.631797 l 1.37889,4.17493 0.3174,-4.88951 c 0.17456,-2.689228 -0.14508,-5.351978 -0.71032,-5.917217 z M 395.8954,92.898255 c 0.88679,-3.134507 2.27605,-6.223096 3.08724,-6.863532 2.69815,-2.130199 -1.23919,-16.335571 -4.52778,-16.335571 -1.38409,0 -2.12256,6.507244 -2.13453,18.809017 -0.0121,12.460501 0.95563,13.648881 3.57507,4.390086 z m 25.21834,2.566168 c 0.35924,-1.851467 -2.58608,-9.316948 -3.36748,-8.535549 -1.023,1.023009 0.80457,10.856428 1.94702,10.476091 0.61382,-0.20435 1.25303,-1.077594 1.42046,-1.940542 z m -9.80442,-13.713649 c 0,-6.677428 -4.93158,-18.786154 -10.96552,-26.924128 -5.45125,-7.352096 -12.44553,-13.127494 -15.89802,-13.127494 -1.59818,0 0.89177,4.814843 3.87977,7.502361 4.87615,4.38578 11.06825,14.62134 14.99426,24.785537 3.27388,8.475861 4.5397,10.712102 6.06358,10.712102 1.46576,0 1.92593,-0.704462 1.92593,-2.948378 z m -76,-14.974897 c 0,-1.536847 -5.0847,-7.076725 -6.49527,-7.076725 -2.03165,0 -0.62541,3.759914 2.25307,6.024125 2.71694,2.137142 4.2422,2.5156 4.2422,1.0526 z M 261.5403,10.199153 c -0.14796,-0.5500005 -1.48717,-1.3257855 -2.97603,-1.7239675 -3.20221,-0.8564026 -5.54425,0.784502 -3.24659,2.2746585 1.8694,1.212408 6.58467,0.795116 6.22262,-0.550691 z"
     style="fill:#ffaaaa;stroke:#000000;stroke-width:1.20000005000000010;stroke-miterlimit:4;stroke-opacity:1;stroke-dasharray:none"
     sodipodi:nodetypes="ssssssssssssssssssssssssssssssssssssssssssssssscccssssssssssssssssssssssssssssssssssssscsscccssssssssssssssssssssscsssssssssssssssscssssssssssssssssssssssssss" />
  <path
     inkscape:connector-curvature="0"
     id="path3336"
     d="m 259.30932,529.70769 c -2.475,-0.4466 -10.125,-1.56548 -17,-2.48639 -6.875,-0.92092 -13.46489,-2.29432 -14.6442,-3.052 -3.60081,-2.31346 -14.0682,-5.47015 -18.13866,-5.47015 -2.11527,0 -9.44197,-1.57024 -16.28154,-3.48943 -9.07403,-2.54616 -14.59815,-3.51922 -20.4356,-3.59968 -10.145,-0.13981 -12.91405,-0.89993 -13.31336,-3.6546 -0.17234,-1.18895 -1.17891,-2.43645 -2.23681,-2.77221 -2.86128,-0.90814 -18.68435,-11.52888 -24.69808,-16.57782 -7.47417,-6.27508 -13.92428,-15.29214 -16.24759,-22.71364 -2.36222,-7.54581 -3.99331,-23.4196 -4.02718,-39.19262 -0.0136,-6.325 -0.47801,-13.3 -1.03206,-15.5 -0.55406,-2.2 -1.38259,-7.73699 -1.8412,-12.30442 -0.70658,-7.03719 -1.24701,-8.7357 -3.54151,-11.13065 -2.60923,-2.72345 -2.66959,-3.03239 -1.65968,-8.49546 1.41274,-7.64223 4.37606,-14.05068 7.41914,-16.04458 3.2941,-2.15838 5.67833,-8.31774 5.67833,-14.66927 0,-3.69742 0.97207,-7.25681 3.5275,-12.91651 1.94012,-4.29694 6.62386,-16.3085 10.40832,-26.69236 5.25846,-14.42828 7.26002,-21.45765 8.48909,-29.81325 0.88455,-6.01342 2.70878,-14.7585 4.05385,-19.4335 1.34507,-4.675 3.15481,-12.775 4.02164,-18 0.86683,-5.225 2.65347,-13.325 3.97031,-18 4.00507,-14.21869 8.24401,-32.82826 10.478,-46 2.94477,-17.3625 12.46676,-59.00103 14.92152,-65.25 2.8861,-7.34703 4.08256,-0.29848 4.20121,24.75 0.0449,9.48392 -0.39193,18.53316 -0.98809,20.46773 -0.58775,1.90725 -2.45633,12.70361 -4.15241,23.99192 -1.69609,11.2883 -4.58457,26.37783 -6.41886,33.53227 -1.83428,7.15444 -4.05526,17.95808 -4.93551,24.00808 -0.88025,6.05 -2.47633,13.79236 -3.54685,17.20524 -1.07052,3.41288 -2.41151,10.61288 -2.97998,16 -0.56847,5.38712 -1.73995,12.04476 -2.60329,14.79476 -0.86334,2.75 -3.73286,15.58323 -6.37671,28.51829 -3.51361,17.1903 -5.60805,25.12777 -7.7841,29.5 -3.66974,7.37344 -7.57961,18.75271 -9.56571,27.83998 -1.15854,5.30083 -1.25019,7.68526 -0.4036,10.5 1.68878,5.61488 1.06694,25.27831 -1.23783,39.14173 -2.28414,13.73929 -2.85845,38.65164 -1.04183,45.19238 2.08359,7.50199 18.32427,17.83247 33.46333,21.2856 8.00267,1.82536 31.58061,12.64905 35.87125,16.46705 l 2.87124,2.55497 -1.48239,-3 c -2.41556,-4.88853 -2.9179,-13.6538 -1.31071,-22.87014 1.28267,-7.35534 1.28634,-13.70341 0.0297,-51.26239 -1.69129,-50.54686 -1.74698,-55.36747 -0.63961,-55.36747 1.76084,0 3.16052,5.36433 3.16052,12.11279 0,7.50443 1.50874,12.27255 3.09217,9.77231 0.48246,-0.76181 0.8841,-3.88517 0.89252,-6.94082 0.012,-4.34028 0.56224,-6.29705 2.51531,-8.94428 1.99412,-2.70288 2.5,-4.5697 2.5,-9.22566 0,-4.26605 0.40373,-5.99203 1.5,-6.41271 2.24081,-0.85988 1.81498,-2.29138 -1,-3.36163 -2.41703,-0.91895 -2.50049,-1.25832 -2.51478,-10.22525 -0.0197,-12.3538 -1.79616,-19.23471 -8.48398,-32.86156 -3.07732,-6.27024 -6.08584,-13.34919 -6.68558,-15.731 -0.83769,-3.32675 -1.95337,-4.8753 -4.81313,-6.68059 -4.27404,-2.69809 -4.27569,-2.70444 -6.09721,-23.5016 -1.3564,-15.48653 -0.68349,-37.12886 1.57016,-50.5 0.8343,-4.95 1.51862,-9.3375 1.52071,-9.75 0.002,-0.4125 1.74871,-0.75 3.88137,-0.75 2.13265,0 4.33901,-0.5625 4.90301,-1.25 0.564,-0.6875 2.06722,-4.625 3.34049,-8.75 3.25817,-10.55544 3.39547,-26.71035 0.25637,-30.16444 -4.68768,-5.15806 -11.47861,-28.31196 -10.0146,-34.14507 0.85664,-3.4131 4.88669,-5.55822 7.05752,-3.75659 0.81377,0.67537 2.44224,3.21653 3.61882,5.64702 1.8791,3.8817 3.98433,5.838 3.94841,3.66908 -0.0513,-3.09795 -5.57845,-19.79664 -8.52911,-25.76832 -3.04229,-6.15712 -3.8499,-9.23881 -5.02102,-19.159477 -0.76758,-6.50221 -1.40502,-11.982845 -1.41652,-12.179189 -0.0115,-0.196344 -0.63895,-0.119834 -1.3943,0.170023 -2.5027,0.960377 0.31644,-6.921032 3.94408,-11.026374 3.53472,-4.000186 4.15824,-3.315144 2.43896,2.679614 -1.29892,4.529078 0.32401,6.242827 2.27152,2.398628 0.79826,-1.575697 2.02955,-4.664903 2.73621,-6.864903 1.4603,-4.546308 16.32456,-31.959008 18.97841,-35 0.95995,-1.1 2.36611,-3.17855 3.12478,-4.619001 5.04665,-9.581763 14.81942,-24.096408 16.59531,-24.6475695 0.66875,-0.20755 3.36875,1.6174625 6,4.0555825 5.32734,4.936312 13.1783,10.150117 14.01866,9.309758 0.30009,-0.300083 -1.09243,-2.923964 -3.09448,-5.830847 -5.88492,-8.5446465 -4.40853,-12.7679225 4.46347,-12.7679225 8.54136,0 16.17038,4.417737 17.41501,10.0845225 0.49107,2.235816 1.79287,3.369254 6.17272,5.374417 8.29519,3.797665 11.30872,3.071598 11.30872,-2.72468 0,-3.468916 1.7418,-7.011869 3.04979,-6.20349 0.52219,0.322732 2.71041,4.272836 4.86271,8.778007 2.1523,4.505173 5.01692,9.225271 6.36581,10.489108 l 2.45254,2.297886 0.6404,-3.201999 c 0.35222,-1.7611 2.14157,-5.045149 3.97634,-7.297886 1.83477,-2.252737 3.61261,-5.220886 3.95075,-6.595885 0.33814,-1.375 1.34068,-3.4 2.22786,-4.5 1.52254,-1.8877705 1.58407,-1.7082325 1.09653,3.199466 -0.59734,6.012926 0.55762,6.969587 6.3936,5.295852 1.90875,-0.547426 5.08965,-0.995319 7.06866,-0.995319 2.16792,0 4.55553,-0.810869 6.0066,-2.039933 5.84935,-4.95443 14.36666,-10.9600665 15.54377,-10.9600665 1.56689,0 2.1788,0.7157982 7.8697,9.2058035 2.47222,3.688191 4.49494,7.368259 4.49494,8.177929 0,0.8261 4.22854,3.807658 9.63575,6.794197 12.43484,6.868078 25.64179,19.021039 29.83887,27.457569 1.60464,3.225475 5.38711,10.364501 8.4055,15.864501 3.01838,5.5 6.48646,13.150001 7.70686,17 1.96578,6.201486 2.54227,7.057917 5.05375,7.50771 1.79496,0.321461 2.97524,1.236671 3.21756,2.494958 0.21049,1.09299 1.66812,3.85553 3.23917,6.13898 2.47583,3.59849 2.65923,4.31539 1.37635,5.38009 -1.22392,1.01576 -2.12866,0.52914 -5.22696,-2.81134 -2.88227,-3.10755 -4.72753,-4.1775 -7.99685,-4.63687 l -4.25,-0.59717 0,6.90104 c 0,5.27123 -0.44527,7.45092 -1.88538,9.22938 -1.5562,1.92183 -2.14851,2.10998 -3.39242,1.07763 -0.82886,-0.6879 -2.06003,-2.5858 -2.73593,-4.21757 -1.82215,-4.39906 -2.76983,-3.63766 -3.46406,2.78316 -0.34194,3.1625 -1.02819,8.675 -1.52501,12.25 -2.85245,20.52573 -4.09268,32.64476 -5.21922,51 -1.44767,23.58753 -1.47735,27.72089 -0.32742,45.60299 0.74205,11.53946 0.63537,13.50835 -0.89405,16.5 -1.81047,3.54143 -2.4904,15.58847 -2.39288,42.39701 0.024,6.6 0.0607,16.275 0.0814,21.5 0.0208,5.225 -0.44599,12.2 -1.03724,15.5 -0.89481,4.99436 -0.93735,31.73389 -0.10899,68.5 0.0434,1.925 -0.0208,10.475 -0.14271,19 -0.2419,16.92245 2.07847,48.31682 4.52391,61.20817 1.48228,7.81394 1.27705,13.3148 -0.63499,17.01975 -2.12545,4.11847 -21.31905,16.51665 -28.09501,18.14807 -1.5125,0.36416 -2.75,1.2804 -2.75,2.03607 0,1.7511 -2.45837,2.72957 -3.71093,1.47701 -1.39364,-1.39364 -4.28907,0.0314 -4.28907,2.11093 0,1.9174 -1.89564,3 -5.25305,3 -1.14921,0 -2.8312,0.67125 -3.73775,1.49168 -0.90656,0.82042 -4.09199,2.35333 -7.07874,3.40646 -2.98675,1.05314 -7.30273,2.61581 -9.59107,3.47261 -8.12488,3.04211 -30.65596,5.40033 -51.83939,5.42577 -11,0.0132 -22.025,-0.34138 -24.5,-0.78798 z m -50.44113,-14.54034 c -1.06762,-0.80751 -2.41762,-1.45389 -3,-1.4364 -0.58238,0.0175 -0.18536,0.6925 0.88226,1.5 1.06762,0.80751 2.41762,1.45389 3,1.4364 0.58238,-0.0175 0.18536,-0.6925 -0.88226,-1.5 z m 1.87717,-221.36471 c 0.30474,-0.49308 0.27224,-2.95267 -0.0722,-5.46576 -0.56048,-4.08919 -0.98102,-4.68632 -4.00273,-5.68357 -7.23683,-2.38837 -7.06852,-11.95416 0.21032,-11.95416 2.23949,0 2.42857,-0.37975 2.42857,-4.87756 0,-3.27821 -0.53172,-5.31884 -1.6216,-6.22336 -1.42004,-1.17853 -2.41441,-0.50899 -8,5.38668 -7.36376,7.77256 -8.00761,10.55068 -3.68206,15.88751 11.15405,13.7618 13.14587,15.50909 14.7397,12.93022 z m -7.00501,-44.63544 c 3.61293,-4.14257 6.56781,-8.30507 6.5664,-9.25 -0.001,-0.94493 -1.52733,-4.2466 -3.39092,-7.33705 -1.86359,-3.09045 -4.16371,-7.25295 -5.11137,-9.25 -2.99802,-6.31785 -6.71028,-4.39146 -8.08324,4.1946 -0.60807,3.80265 -0.47447,4.12059 1.99148,4.73951 2.84336,0.71363 5.59662,3.89472 5.59662,6.46627 0,2.79539 -2.67014,5.37035 -5.63423,5.43339 -2.77035,0.0589 -2.86025,0.22022 -2.69991,4.84424 0.15608,4.50116 1.56109,7.69099 3.38761,7.69099 0.44473,0 3.76463,-3.38938 7.37756,-7.53195 z M 389.6874,118.84842 c 2.10959,-7.51854 2.08293,-9.38422 -0.12808,-8.96074 -1.7364,0.33257 -4.46769,7.1245 -5.86914,14.59482 l -0.6445,3.4355 2.5099,-1.64455 c 1.71343,-1.12269 3.02458,-3.47887 4.13182,-7.42503 z m -26.32007,1.95913 c -0.55679,-1.04038 -3.04762,-4.27598 -5.53518,-7.19023 -2.48756,-2.91425 -4.52283,-5.92102 -4.52283,-6.68173 0,-1.89319 -3.40036,-1.11159 -3.78185,0.86929 -0.31331,1.6269 7.30414,10.08435 11.77292,13.07117 3.23778,2.16405 3.26135,2.16327 2.06694,-0.0685 z m 32.54789,-20.56357 c 1.31675,-3.236517 2.3941,-6.483132 2.3941,-7.214701 0,-2.08237 2.80764,-1.558071 4.04584,0.75552 2.17192,4.058284 1.95513,1.096246 -0.6309,-8.619786 -2.84373,-10.684278 -7.14313,-20.465861 -8.99558,-20.465861 -0.81506,0 -1.38125,5.371847 -1.88874,17.919843 -1.00775,24.917535 0.2837,29.402395 5.07528,17.624985 z m 16.95179,-5.415709 c -1.41025,-1.410254 -1.55769,-1.220255 -1.55769,2.007373 0,1.960789 0.5625,5.094706 1.25,6.964286 l 1.25,3.39922 0.30769,-5.4066 c 0.22095,-3.882507 -0.13141,-5.845691 -1.25,-6.964279 z m 8.24673,0.636152 c 0.35924,-1.851467 -2.58608,-9.316948 -3.36748,-8.535549 -1.023,1.023009 0.80457,10.856428 1.94702,10.476091 0.61382,-0.20435 1.25303,-1.077594 1.42046,-1.940542 z m -81.20025,-4.494438 c -1.01652,-1.016515 -1.85525,0.513892 -1.02122,1.863382 0.63003,1.019417 0.86558,1.020206 1.2043,0.004 0.2316,-0.694784 0.14921,-1.535121 -0.18308,-1.867413 z m 71.67964,-7.4875 C 411.42044,68.548107 397.12598,45.882836 385.05932,41.41053 c -3.10742,-1.151715 -1.99743,2.659259 1.84733,6.342455 6.61863,6.340526 12.29249,15.415401 15.9831,25.563691 5.48324,15.077579 6.35293,16.849114 7.63986,15.562186 0.61217,-0.612174 1.09076,-3.040543 1.06352,-5.396377 z m -81.28381,0.716667 c 0,-0.825 -0.43588,-1.5 -0.96862,-1.5 -0.53273,0 -0.70959,0.675 -0.39301,1.5 0.31659,0.825 0.75246,1.5 0.96862,1.5 0.21615,0 0.39301,-0.675 0.39301,-1.5 z m -4.81667,-11.716667 c -0.71756,-0.717562 -1.18333,-0.776603 -1.18333,-0.15 0,1.334781 1.18261,2.517391 1.85,1.85 0.28417,-0.284166 -0.0158,-1.049166 -0.66667,-1.7 z m 9.73657,-6.533333 c -4.7561,-6.281689 -8.28184,-8.350083 -7.20334,-4.225875 0.61611,2.356016 4.88101,5.975875 7.04074,5.975875 1.25484,0 1.28028,-0.273803 0.1626,-1.75 z M 293.24403,40.277826 c 0.96852,-1.167002 0.80871,-1.324338 -0.89314,-0.879293 -2.50151,0.654158 -3.73461,2.300619 -1.72303,2.300619 0.79011,0 1.96739,-0.639597 2.61617,-1.421326 z M 261.5403,10.199153 c -0.14796,-0.5500005 -1.48717,-1.3257855 -2.97603,-1.7239675 -3.20221,-0.8564026 -5.54425,0.784502 -3.24659,2.2746585 1.8694,1.212408 6.58467,0.795116 6.22262,-0.550691 z M 205.32899,365.7113 c -1.24141,-0.76723 -1.19563,-1.0074 0.30148,-1.58189 2.08649,-0.80066 3.44889,0.1997 2.10382,1.54477 -0.56802,0.56802 -1.52247,0.58275 -2.4053,0.0371 z m -9.05152,-15.60866 c -2.37235,-7.18829 -4.59777,-26.75876 -3.52765,-31.02243 0.51959,-2.07023 0.93869,-2.40189 1.86486,-1.47579 0.75231,0.75226 1.23906,4.97129 1.31461,11.39465 0.067,5.69696 0.79458,12.62821 1.64805,15.70008 0.84044,3.025 1.68646,6.11875 1.88003,6.875 0.19357,0.75625 -0.16796,1.56705 -0.80341,1.80179 -0.63544,0.23473 -1.70487,-1.23825 -2.37649,-3.2733 z m -0.96815,-159.40349 c 0,-1.1 0.45,-2 1,-2 0.55,0 1,0.9 1,2 0,1.1 -0.45,2 -1,2 -0.55,0 -1,-0.9 -1,-2 z"
     style="fill:#ff8080" />
  <path
     inkscape:connector-curvature="0"
     id="path3334"
     d="m 260.80932,529.63208 c -2.71759,-0.83055 -8.64855,-1.71589 -25.8914,-3.86494 -3.66966,-0.45736 -6.35105,-1.36287 -7.11025,-2.40113 -0.67036,-0.91677 -1.7189,-1.66686 -2.33008,-1.66686 -0.61118,0 -3.48657,-1.06685 -6.38976,-2.37078 -6.971,-3.13094 -10.79036,-7.29867 -11.49364,-12.54202 -0.62426,-4.65422 -2.28487,-6.57745 -2.28487,-2.64622 0,3.16913 -1.01712,3.23415 -3.82569,0.24457 -1.82598,-1.94367 -2.15893,-3.42555 -2.07831,-9.25 0.11031,-7.96961 1.8851,-16.60154 3.52512,-17.14487 0.61661,-0.20429 1.6239,1.55924 2.23842,3.91895 1.46271,5.61671 3.10363,8.22873 3.12515,4.97463 0.008,-1.27366 0.49767,-3.21704 1.08723,-4.31864 0.58955,-1.10159 1.23088,-5.76368 1.42518,-10.36019 0.19429,-4.59652 0.86479,-9.31311 1.48999,-10.4813 0.75488,-1.41051 1.05576,-8.08842 0.89571,-19.87976 -0.13255,-9.76567 0.0707,-18.26013 0.4517,-18.87658 1.19348,-1.9311 1.85404,-13.98836 1.98693,-36.26779 l 0.12823,-21.5 -3.72213,-2 -3.72213,-2 -0.0175,-9 c -0.0235,-12.07761 -1.83507,-19.03374 -8.48668,-32.58681 -3.07732,-6.27024 -6.08584,-13.34919 -6.68558,-15.731 -0.83769,-3.32675 -1.95337,-4.8753 -4.81313,-6.68059 -4.27404,-2.69809 -4.27569,-2.70444 -6.09721,-23.5016 -1.3564,-15.48653 -0.68349,-37.12886 1.57016,-50.5 0.8343,-4.95 1.51862,-9.31163 1.52071,-9.6925 0.002,-0.38088 1.91295,-0.83088 4.24634,-1 5.03251,-0.36476 5.77036,-1.52355 8.93299,-14.02914 1.76442,-6.97684 2.01042,-10.2043 1.56468,-20.52836 l -0.5289,-12.25 3.06102,0 c 3.96681,0 2.79864,-1.14076 -1.96029,-1.9143 -2.76973,-0.45021 -4.17558,-1.40012 -5.54673,-3.74786 -2.23705,-3.83036 -3.48455,-12.77529 -1.91682,-13.74419 1.47284,-0.91027 5.51309,1.84491 7.12667,4.85992 2.67194,4.99256 7.02485,3.48528 7.02485,-2.43249 0,-5.16609 -6.09139,-20.57364 -12.93847,-32.72652 -2.1378,-3.79441 -4.06151,-9.65771 -4.06151,-12.37917 0,-4.172908 3.80572,-13.630199 6.61573,-16.440204 2.56043,-2.560439 5.61046,-8.894178 6.72977,-13.975184 l 0.66087,-3 -1.7432,3 -1.7432,3 -0.31438,-2.625426 c -0.19333,-1.614422 0.71144,-4.117454 2.34955,-6.5 l 2.66394,-3.874574 -0.6472,3.5 c -0.64434,3.484561 -0.64051,3.488972 0.86932,1 0.83408,-1.375 2.00965,-4.247958 2.61238,-6.384352 0.60272,-2.136393 2.15985,-5.511393 3.46027,-7.5 1.30043,-1.988606 2.68815,-4.965648 3.08383,-6.615648 0.39568,-1.65 1.77307,-4.392476 3.06087,-6.094391 1.2878,-1.701915 2.34145,-3.964406 2.34145,-5.027759 0,-1.063353 0.9,-2.703972 2,-3.645822 1.1,-0.941848 2.01704,-2.279356 2.03786,-2.972241 0.0573,-1.908274 10.27824,-18.036795 11.73658,-18.520251 0.70093,-0.23237 3.17593,1.586079 5.5,4.041001 2.32406,2.454922 6.84995,6.208587 10.05754,8.341479 3.20759,2.132891 6.44851,4.312068 7.20204,4.842614 0.75353,0.530547 1.72539,0.609296 2.15969,0.174998 0.43429,-0.434299 0.0276,-1.216107 -0.90385,-1.737353 -2.50812,-1.403614 -10.78986,-14.169885 -10.78986,-16.6325295 0,-3.5367844 2.66486,-5.269745 8.10355,-5.269745 8.54136,0 16.17038,4.417737 17.41501,10.0845225 0.49301,2.244634 1.80243,3.375405 6.30188,5.442081 10.55172,4.846591 13.17956,4.156537 13.17956,-3.460863 0,-4.207982 1.59319,-3.850314 3.04795,0.684259 0.66168,2.0625 2.49658,6.140217 4.07756,9.061594 1.58097,2.921375 2.87449,6.183875 2.87449,7.249999 0,4.063162 4.21584,0.602558 5.41905,-4.448267 0.37821,-1.587671 1.8549,-4.417007 3.28153,-6.287416 2.40029,-3.146938 2.97471,-3.386952 7.69665,-3.215952 10.27805,0.372208 18.87314,-1.586705 24.70308,-5.630103 2.96983,-2.059747 6.16906,-4.4136745 7.1094,-5.2309465 3.03547,-2.6382144 6.02111,-0.792974 9.67348,5.9785895 4.63379,8.591125 5.1899,9.116426 15.93206,15.049581 12.24998,6.765964 25.49114,18.979883 29.65937,27.35842 1.60464,3.225475 5.38711,10.364501 8.4055,15.864501 3.01838,5.5 6.48646,13.150001 7.70686,17 1.96578,6.201486 2.54227,7.057917 5.05375,7.50771 1.79496,0.321461 2.97524,1.236671 3.21756,2.494958 0.21049,1.09299 1.66812,3.85553 3.23917,6.13898 2.47583,3.59849 2.65923,4.31539 1.37635,5.38009 -1.22392,1.01576 -2.12866,0.52914 -5.22696,-2.81134 -2.88227,-3.10755 -4.72753,-4.1775 -7.99685,-4.63687 l -4.25,-0.59717 0,6.90104 c 0,5.20838 -0.45083,7.45778 -1.83805,9.17093 -2.24021,2.76654 -3.53764,2.09574 -6.25726,-3.23516 -2.6317,-5.15855 -3.88905,-4.04751 -4.93163,4.35778 -0.43178,3.48098 -1.24164,8.12905 -1.79968,10.32905 -0.55805,2.2 -1.52484,6.55272 -2.14843,9.67272 -0.62359,3.12 -1.73007,6.16759 -2.45886,6.77243 -0.72878,0.60484 -1.61338,2.54131 -1.96578,4.30328 -0.35239,1.76197 -1.51761,5.01501 -2.58937,7.22898 -1.07177,2.21396 -2.42861,7.17476 -3.01521,11.02399 -0.58659,3.84923 -1.50253,9.8376 -2.03541,13.30749 -0.53287,3.46989 -0.72008,7.30011 -0.41601,8.51161 0.30406,1.2115 -0.10356,3.77372 -0.90583,5.69382 -0.80226,1.9201 -2.21425,8.88987 -3.13775,15.48838 -1.42432,10.17704 -1.49547,13.29946 -0.4689,20.57984 0.6656,4.7204 0.96166,10.3454 0.65791,12.5 -0.30376,2.15461 -1.13092,7.93489 -1.83815,12.84508 -1.00673,6.9896 -1.02165,9.01569 -0.0687,9.33333 1.88645,0.62882 1.44007,5.04105 -1.33827,13.228 -1.3978,4.11892 -2.32212,8.39392 -2.05404,9.5 0.99471,4.10406 0.60308,43.01268 -0.66443,66.01105 -0.18188,3.3 0.076,9.825 0.57301,14.5 1.475,13.87372 2.69373,28.32424 2.61448,31 -0.15438,5.21238 0.39126,15.10221 3.17242,57.5 1.22144,18.62046 1.30294,19.06562 4.08015,22.2848 1.5586,1.80663 2.83382,4.35663 2.83382,5.66666 0,1.31003 0.52967,2.55843 1.17705,2.77422 0.6848,0.22827 0.8441,0.93109 0.3809,1.68055 -1.23669,2.00101 -13.87426,9.88539 -17.13746,10.6918 -3.6933,0.91269 -28.06876,13.02384 -28.89143,14.35495 -0.33743,0.54597 -2.507,1.48992 -4.82128,2.09766 -2.31428,0.60774 -4.88278,1.91183 -5.70778,2.89797 -1.86111,2.22463 -10.15198,5.04335 -14.92814,5.07525 -1.96452,0.0131 -5.37186,0.48728 -7.57186,1.0537 -5.19375,1.33718 -51.08803,2.05094 -55,0.85537 z M 210.74536,293.80264 c 0.30474,-0.49308 0.27224,-2.95267 -0.0722,-5.46576 -0.56048,-4.08919 -0.98102,-4.68632 -4.00273,-5.68357 -7.23683,-2.38837 -7.06852,-11.95416 0.21032,-11.95416 2.23949,0 2.42857,-0.37975 2.42857,-4.87756 0,-3.27821 -0.53172,-5.31884 -1.6216,-6.22336 -1.42004,-1.17853 -2.41441,-0.50899 -8,5.38668 -7.36376,7.77256 -8.00761,10.55068 -3.68206,15.88751 11.15405,13.7618 13.14587,15.50909 14.7397,12.93022 z m -7.00501,-44.63544 c 3.61293,-4.14257 6.56781,-8.30507 6.5664,-9.25 -0.001,-0.94493 -1.52733,-4.2466 -3.39092,-7.33705 -1.86359,-3.09045 -4.16371,-7.25295 -5.11137,-9.25 -2.99802,-6.31785 -6.71028,-4.39146 -8.08324,4.1946 -0.60807,3.80265 -0.47447,4.12059 1.99148,4.73951 2.84336,0.71363 5.59662,3.89472 5.59662,6.46627 0,2.79539 -2.67014,5.37035 -5.63423,5.43339 -2.77035,0.0589 -2.86025,0.22022 -2.69991,4.84424 0.15608,4.50116 1.56109,7.69099 3.38761,7.69099 0.44473,0 3.76463,-3.38938 7.37756,-7.53195 z m 73.78586,-110.58904 c 2.04429,-0.51605 4.06929,-1.48743 4.5,-2.15864 0.43071,-0.6712 2.52632,-2.02716 4.65692,-3.01323 4.69748,-2.17407 4.30814,-3.29207 -0.47027,-1.35037 -1.87195,0.76067 -6.50659,1.68582 -10.2992,2.0559 -8.62025,0.84116 -13.54943,3.24912 -11.94969,5.83756 0.5509,0.89138 7.30376,0.20862 13.56224,-1.37122 z m -34.21689,-2.45233 c 0,-0.93124 -0.68037,-1.44138 -1.66713,-1.25 -2.50877,0.48655 -2.85325,2.82332 -0.4162,2.82332 1.22833,0 2.08333,-0.64569 2.08333,-1.57332 z m 142.1598,-2.5122 c 2.899,-1.5515 5.62994,-8.40585 6.41947,-16.11214 0.54354,-5.30524 1.05524,-6.73501 2.55035,-7.12599 1.0872,-0.2843 1.87038,-1.37922 1.87038,-2.61485 0,-2.88995 2.66083,-9.061498 3.90682,-9.061498 0.55488,0 2.20751,2.045328 3.67252,4.545168 1.46501,2.49985 2.85536,4.35346 3.08968,4.11914 1.17127,-1.17127 -7.4161,-31.233053 -10.75908,-37.664308 -4.15491,-7.993238 -9.27379,-13.4673 -7.24714,-7.75 0.43866,1.2375 0.80649,11.7 0.81738,23.25 0.019,20.149258 -0.0665,21.081018 -2.11063,22.999998 -1.17175,1.1 -2.90763,4.925 -3.85752,8.5 -2.08392,7.84302 -2.92762,9 -6.56305,9 -3.19289,0 -5.94898,-2.28705 -5.94898,-4.93657 0,-2.64997 -3.84334,-7.06343 -6.151,-7.06343 -2.57166,0 -9.849,-7.30784 -9.849,-9.89028 0,-1.22376 -2.17509,-3.6186 -5.75,-6.330929 -5.15321,-3.909806 -5.78121,-4.784981 -6.05073,-8.432206 -0.2186,-2.958149 -1.10621,-4.841306 -3.25,-6.895186 -1.6221,-1.554069 -2.94927,-3.368243 -2.94927,-4.031499 0,-0.663256 -0.7251,-1.484168 -1.61134,-1.82425 -1.23622,-0.474381 -1.44261,-0.208287 -0.88655,1.143011 0.39864,0.968738 0.93688,2.493987 1.1961,3.389443 0.25921,0.895455 1.55816,2.123308 2.88654,2.728561 2.84865,1.297929 3.10035,3.727807 0.66525,6.422202 -1.68483,1.864236 -1.61966,2.046853 1.75,4.903704 1.925,1.632047 5.1875,3.842771 7.25,4.912722 2.0625,1.069947 3.75,2.463277 3.75,3.096287 0,1.4182 -2.97656,4.80842 -4.22171,4.80842 -1.06276,0 -7.0708,-4.29169 -11.01786,-7.870338 -1.50676,-1.366119 -3.0415,-2.18192 -3.41053,-1.812889 -1.08401,1.08401 2.52807,4.423447 8.32061,7.692547 2.96454,1.67308 6.16395,4.28313 7.10979,5.8001 0.94583,1.51697 3.96709,4.76793 6.7139,7.22435 2.74681,2.45643 5.44681,4.95971 6,5.56285 1.6592,1.80902 8.42925,5.59375 14.39793,8.04904 6.52292,2.68329 6.60398,2.69438 9.26767,1.26882 z m -80.22982,-9.33011 c 0.69293,-0.83493 1.05081,-3.8089 0.87244,-7.25 -0.25158,-4.85347 -0.66449,-5.99335 -2.45601,-6.77998 -1.18447,-0.52009 -2.75947,-2.29338 -3.5,-3.94065 -0.74052,-1.64726 -1.90891,-3.17174 -2.59641,-3.38772 -2.04911,-0.64373 -1.54885,6.81474 0.6177,9.20953 2.24767,2.48444 3.5981,9.57208 1.81943,9.54914 -3.22223,-0.0416 -6.13225,-5.363 -5.12575,-9.37323 0.47924,-1.90944 -0.0121,-2.43896 -3.24836,-3.50062 -6.2483,-2.04978 -18.15672,-1.91293 -23.01283,0.26447 -3.97058,1.78035 -6.0453,4.07118 -4.50652,4.97594 0.38848,0.22842 3.90797,0.94823 7.82108,1.59957 3.91312,0.65134 9.27688,2.27887 11.91948,3.61672 2.6426,1.33785 6.45872,2.43246 8.48026,2.43246 2.40554,0 4.30093,0.69105 5.48551,2 2.10759,2.32887 5.74476,2.61493 7.42998,0.58437 z m -65.42998,-11.58437 c 0.35052,-0.56716 -0.48962,-1 -1.94098,-1 -1.40746,0 -2.55902,0.45 -2.55902,1 0,0.55 0.87344,1 1.94098,1 1.06754,0 2.2191,-0.45 2.55902,-1 z M 412.86701,94.828271 c -1.41025,-1.410254 -1.55769,-1.220255 -1.55769,2.007373 0,1.960789 0.5625,5.094706 1.25,6.964286 l 1.25,3.39922 0.30769,-5.4066 c 0.22095,-3.882507 -0.13141,-5.845691 -1.25,-6.964279 z m 8.24673,0.636152 c 0.35924,-1.851467 -2.58608,-9.316948 -3.36748,-8.535549 -1.023,1.023009 0.80457,10.856428 1.94702,10.476091 0.61382,-0.20435 1.25303,-1.077594 1.42046,-1.940542 z M 411.59313,83.240127 C 411.4128,68.527755 397.0246,45.84526 385.05932,41.41053 c -3.10742,-1.151715 -1.99743,2.659259 1.84733,6.342455 6.6045,6.326981 12.29389,15.420105 15.99472,25.563691 6.10258,16.726523 6.61436,17.765023 7.75254,15.731215 0.54381,-0.971734 0.96646,-3.585228 0.93922,-5.807764 z m -81.28844,1.709025 c -0.007,-1.09201 -4.59304,-12.181004 -5.35173,-12.939692 -1.55209,-1.552096 -0.45925,4.616163 1.58387,8.939692 1.99315,4.217797 3.78092,6.115712 3.76786,4 z m -22.99537,-1.817151 c 0,-0.892999 -7.17982,-7.432849 -8.1602,-7.432849 -0.48425,0 0.0378,1.8 1.1602,4 1.55223,3.042625 2.63414,4 4.52032,4 1.36383,0 2.47968,-0.255218 2.47968,-0.567151 z M 251.80503,69.706087 c 1.32705,-2.1472 3.17774,-11.090719 2.39511,-11.57441 -0.92017,-0.568698 -3.28956,4.553491 -4.35931,9.424034 -0.6644,3.024985 0.58101,4.388436 1.9642,2.150376 z m 51.10207,-3.756935 c -1.33682,-2.0625 -3.21768,-6.616579 -4.17968,-10.120177 -1.43928,-5.241832 -1.52511,-6.728829 -0.48458,-8.394986 1.1009,-1.762809 1.04703,-1.941351 -0.41629,-1.379823 -0.92444,0.354742 -1.869,0.644986 -2.09902,0.644986 -0.23001,0 -0.40833,2.1375 -0.39625,4.75 0.0238,5.146851 2.84524,12.411089 6.21442,16 3.28401,3.498183 4.05233,2.65165 1.3614,-1.5 z m 32.32212,0 c -4.7561,-6.281689 -8.28184,-8.350083 -7.20334,-4.225875 0.61611,2.356016 4.88101,5.975875 7.04074,5.975875 1.25484,0 1.28028,-0.273803 0.1626,-1.75 z m -23.9199,-20.75 c 0,-1.555556 -0.56667,-2.5 -1.5,-2.5 -1.82244,0 -1.8611,0.448932 -0.25945,3.013569 1.59386,2.552185 1.75945,2.503852 1.75945,-0.513569 z m -16.5,-5.930328 c 2.41007,-1.944442 2.7542,-2.671042 1.75,-3.695033 -0.6875,-0.701051 -1.25,-2.984639 -1.25,-5.074639 0,-2.153755 -0.48859,-3.8 -1.12781,-3.8 -0.75248,0 -0.91854,1.308654 -0.49901,3.932294 0.77072,4.819818 -0.69319,9.083299 -3.09843,9.023813 -0.97611,-0.02414 -3.50652,-0.661333 -5.62313,-1.415982 -3.69481,-1.317338 -3.7728,-1.301679 -1.95439,0.392429 3.98656,3.714042 7.73802,3.916548 11.80277,0.637118 z m -24.5,-0.962683 c 0,-0.948631 -2.99338,-1.42672 -3.52699,-0.563315 -0.32508,0.525979 0.33551,0.956326 1.46797,0.956326 1.13246,0 2.05902,-0.176855 2.05902,-0.393011 z m 8,-2.606989 c -0.825,-0.533156 -1.95,-0.969374 -2.5,-0.969374 -0.55,0 -0.325,0.436218 0.5,0.969374 0.825,0.533156 1.95,0.969374 2.5,0.969374 0.55,0 0.325,-0.436217 -0.5,-0.969374 z m -26,-2.059017 c 0,-0.582459 -0.45,-0.780901 -1,-0.440983 -0.55,0.339919 -1,0.816476 -1,1.059017 0,0.242541 0.45,0.440983 1,0.440983 0.55,0 1,-0.476558 1,-1.059017 z m 9.23098,-23.440982 c -0.14796,-0.5500005 -1.48717,-1.3257855 -2.97603,-1.7239675 -3.20221,-0.8564026 -5.54425,0.784502 -3.24659,2.2746585 1.8694,1.212408 6.58467,0.795116 6.22262,-0.550691 z M 192.80932,515.14951 c -8.77526,-2.50522 -14.14983,-3.45593 -20,-3.53778 -10.14647,-0.14197 -12.91411,-0.90206 -13.31336,-3.65629 -0.17234,-1.18895 -1.17891,-2.43645 -2.23681,-2.77221 -2.86128,-0.90814 -18.68435,-11.52888 -24.69808,-16.57782 -7.47417,-6.27508 -13.92428,-15.29214 -16.24759,-22.71364 -2.36222,-7.54581 -3.99331,-23.4196 -4.02718,-39.19262 -0.0136,-6.325 -0.47801,-13.3 -1.03206,-15.5 -0.55406,-2.2 -1.38259,-7.73699 -1.8412,-12.30442 -0.70658,-7.03719 -1.24701,-8.7357 -3.54151,-11.13065 -2.60923,-2.72345 -2.66959,-3.03239 -1.65968,-8.49546 1.41274,-7.64223 4.37606,-14.05068 7.41914,-16.04458 3.2941,-2.15838 5.67833,-8.31774 5.67833,-14.66927 0,-3.69742 0.97207,-7.25681 3.5275,-12.91651 1.94012,-4.29694 6.62386,-16.3085 10.40832,-26.69236 5.25846,-14.42828 7.26002,-21.45765 8.48909,-29.81325 0.88455,-6.01342 2.70878,-14.7585 4.05385,-19.4335 1.34507,-4.675 3.15481,-12.775 4.02164,-18 0.86683,-5.225 2.65347,-13.325 3.97031,-18 4.00507,-14.21869 8.24401,-32.82826 10.478,-46 2.94477,-17.3625 12.46676,-59.00103 14.92152,-65.25 2.8861,-7.34703 4.08256,-0.29848 4.20121,24.75 0.0449,9.48392 -0.39193,18.53316 -0.98809,20.46773 -0.58775,1.90725 -2.45633,12.70361 -4.15241,23.99192 -1.69609,11.2883 -4.58457,26.37783 -6.41886,33.53227 -1.83428,7.15444 -4.05526,17.95808 -4.93551,24.00808 -0.88025,6.05 -2.47633,13.79236 -3.54685,17.20524 -1.07052,3.41288 -2.41151,10.61288 -2.97998,16 -0.56847,5.38712 -1.73995,12.04476 -2.60329,14.79476 -0.86334,2.75 -3.73286,15.58323 -6.37671,28.51829 -3.51361,17.1903 -5.60805,25.12777 -7.7841,29.5 -3.66974,7.37344 -7.57961,18.75271 -9.56571,27.83998 -1.15854,5.30083 -1.25019,7.68526 -0.4036,10.5 1.68878,5.61488 1.06694,25.27831 -1.23783,39.14173 -2.28414,13.73929 -2.85845,38.65164 -1.04183,45.19238 2.08526,7.50798 18.38582,17.8752 33.46333,21.28282 3.85,0.87013 13.0386,4.47768 20.41911,8.01679 12.1296,5.8164 13.83439,6.96386 17.74069,11.94088 2.37686,3.02838 5.67577,6.20642 7.33089,7.06231 1.65512,0.8559 3.00931,1.76962 3.00931,2.0305 0,1.28782 -7.70107,0.008 -18.5,-3.07532 z"
     style="fill:#ff2a2a"
     inkscape:export-filename="C:\Documents and Settings\utilisateur\Bureau\gc\Test-Grottocenter3\img\icon\entry-selected64.png"
     inkscape:export-xdpi="10.960116"
     inkscape:export-ydpi="10.960116" />
  <path
     inkscape:connector-curvature="0"
     id="path3332"
     d="m 260.80932,529.63208 c -2.71759,-0.83055 -8.64855,-1.71589 -25.8914,-3.86494 -3.24027,-0.40384 -6.39027,-1.38671 -7,-2.18414 -0.60973,-0.79744 -3.08709,-2.09133 -5.50525,-2.87533 -2.41816,-0.78399 -5.34316,-2.25189 -6.5,-3.262 -2.05895,-1.7978 -1.93193,-1.82311 6.0172,-1.19892 6.49521,0.51002 8.75692,0.30856 11.29998,-1.0065 1.74868,-0.90428 4.06952,-1.36165 5.1574,-1.01636 3.08695,0.97976 5.84875,-3.08083 5.8888,-8.65811 0.0271,-3.77677 0.40302,-4.73006 2.03327,-5.15638 2.82442,-0.7386 2.51549,-4.15435 -0.5,-5.5283 -2.07922,-0.94735 -2.5,-1.83417 -2.5,-5.26892 0,-3.90583 0.13561,-4.09581 2.5,-3.50239 2.39042,0.59996 2.5,0.42939 2.5,-3.89159 0,-3.30202 -0.39449,-4.51905 -1.46482,-4.51905 -2.28394,0 -3.81148,-3.61521 -2.53518,-6 0.5887,-1.1 1.72953,-2 2.53518,-2 2.32695,0 1.96086,-6.70779 -0.4071,-7.45935 -2.98596,-0.94771 -3.6559,-8.3682 -2.81777,-31.2106 0.15059,-4.10419 -0.26051,-5.65029 -1.99418,-7.5 -1.88322,-2.00928 -2.17499,-3.43138 -2.11936,-10.33005 0.0376,-4.66373 0.63558,-9.12613 1.43387,-10.70034 1.80738,-3.5641 1.8114,-11.6928 0.006,-12.38555 -0.83325,-0.31975 -1.60825,-2.8672 -1.99344,-6.55255 -0.87498,-8.37133 -5.37809,-13.73648 -11.60462,-13.82612 -1.35372,-0.0195 -6.19122,-1.90921 -10.75,-4.19937 l -8.28858,-4.16394 -0.0148,-9.08606 c -0.0198,-12.1619 -1.81992,-19.09445 -8.48398,-32.67288 -3.07732,-6.27024 -6.08584,-13.34919 -6.68558,-15.731 -0.83769,-3.32675 -1.95337,-4.8753 -4.81313,-6.68059 -4.27404,-2.69809 -4.27569,-2.70444 -6.09721,-23.5016 -1.3564,-15.48653 -0.68349,-37.12886 1.57016,-50.5 0.8343,-4.95 1.51862,-9.3375 1.52071,-9.75 0.002,-0.4125 1.74871,-0.75 3.88137,-0.75 4.7312,0 5.30795,-0.6663 8.22324,-9.5 1.96793,-5.9631 2.32762,-9.22193 2.42824,-22 l 0.11811,-15 2.92642,-0.63169 c 1.60954,-0.34742 5.48361,-0.68492 8.60904,-0.75 4.95284,-0.10312 5.77816,-0.40726 6.42664,-2.36831 1.00583,-3.04171 1.1984,-5.75 0.40884,-5.75 -1.26596,0 -4.01807,-7.12081 -4.01807,-10.39642 0,-2.19838 -1.0263,-4.62 -3.0226,-7.13201 -3.24807,-4.08717 -4.33949,-7.04806 -3.81028,-10.33681 0.32343,-2.00995 0.44661,-1.99155 4.33983,0.64829 2.20382,1.49432 5.58862,3.92953 7.52178,5.41157 1.93316,1.48204 5.68848,3.18174 8.34515,3.77712 2.65667,0.59537 6.11202,1.74529 7.67856,2.55538 1.92867,0.99735 5.95028,1.47288 12.45635,1.47288 5.28446,0 12.76553,0.48989 16.6246,1.08865 6.30407,0.97811 7.14728,0.90977 8.30465,-0.67302 0.70848,-0.96892 3.15027,-2.31148 5.4262,-2.98348 3.5538,-1.04932 19.2354,-9.32325 27.13576,-14.31738 3.02322,-1.9111 7,-2.1772 7,-0.4684 0,2.3439 4.05639,7.85832 7.98388,10.85363 2.1635,1.65 4.22156,3.83172 4.57346,4.84826 0.35189,1.01655 2.84545,4.28381 5.54124,7.26059 2.69578,2.97678 4.90142,5.846 4.90142,6.37606 0,0.53005 1.36698,1.67062 3.03773,2.5346 1.77076,0.9157 3.6938,3.11606 4.61077,5.27568 0.86517,2.03765 2.24842,5.129 3.0739,6.86968 0.82547,1.74069 1.17848,3.6865 0.78446,4.32403 -0.39402,0.63754 0.21374,2.14924 1.35057,3.35934 2.13933,2.27721 3.00451,7.28896 3.62486,20.9978 0.17039,3.76533 0.80658,7.34283 1.41375,7.95 1.80113,1.80113 1.28438,6.11019 -0.89604,7.47189 -2.8985,1.81014 -2.89647,14.59834 0.003,19.51275 1.58121,2.67996 1.86772,4.38266 1.36033,8.08446 -0.35352,2.5792 -1.02991,4.92873 -1.5031,5.22118 -0.47318,0.29244 -0.86033,4.07586 -0.86033,8.4076 0,4.33173 -0.43954,9.03196 -0.97676,10.44494 -0.65005,1.70979 -0.62777,3.335 0.0666,4.85904 0.80786,1.77306 0.57688,3.47352 -1.02324,7.53306 -2.59006,6.57102 -2.60585,8.86312 -0.0666,9.66904 2.92556,0.92854 2.65072,5.24639 -0.42308,6.64691 -3.25042,1.48099 -3.87044,4.40347 -3.62894,17.10523 0.16625,8.74424 -0.0744,10.85913 -1.28844,11.32501 -1.01597,0.38987 -1.49287,2.00189 -1.49287,5.04621 0,2.54423 -0.74079,5.60391 -1.71779,7.09501 -1.42587,2.17614 -1.60998,4.02429 -1.0834,10.875 0.60687,7.89508 0.52043,8.38876 -1.99133,11.37382 -2.19311,2.60637 -2.53558,3.79261 -2.07858,7.1998 0.63593,4.7412 0.0535,6.83301 -1.90256,6.83301 -0.76615,0 -1.41394,0.5625 -1.43952,1.25 -0.0256,0.6875 -0.28012,11.15 -0.56565,23.25 -0.50139,21.24788 -0.60236,22.12149 -2.95349,25.55375 -2.95255,4.31024 -2.97372,4.87198 -0.39686,10.52855 1.85878,4.08027 1.90263,4.6651 0.5,6.66764 -0.84562,1.20729 -1.53749,3.20839 -1.53749,4.44689 0,1.4906 -1.01413,2.77624 -3,3.80317 -3.73436,1.93111 -3.81651,4.27198 -0.25,7.12382 l 2.75,2.19895 -2.33551,2.49409 c -2.32805,2.48612 -2.32885,2.4962 -0.25,3.156 1.62844,0.51685 2.08551,1.48862 2.08551,4.43401 0,3.05315 -0.47649,3.9892 -2.5,4.91118 -1.48102,0.6748 -2.5,1.97308 -2.5,3.18526 0,1.25631 -0.95429,2.40901 -2.47207,2.98607 -2.88264,1.09598 -3.89829,4.27573 -2.71839,8.51062 0.69286,2.48679 1.36032,3.006 3.9017,3.03506 3.87144,0.0443 6.28876,2.01535 6.28876,5.12788 0,1.32992 0.99291,3.76103 2.20647,5.40246 2.16322,2.92591 2.17293,3.0749 0.4953,7.60138 -1.2876,3.47412 -1.43216,4.95315 -0.58403,5.97509 0.61993,0.74697 0.7773,1.35813 0.34972,1.35813 -0.42759,0 0.037,0.9 1.03254,2 0.99549,1.1 2.36356,2 3.04015,2 3.76814,0 14.27283,-4.34107 32.95985,-13.62068 20.63379,-10.24633 25.376,-12.00994 26.18664,-9.7387 0.40376,1.13124 -45.61734,24.3908 -50.81715,25.68353 -1.44678,0.35968 -2.83994,1.45486 -3.09592,2.43372 -0.53445,2.04374 -9.52281,5.22866 -14.86146,5.26599 -1.87666,0.0131 -5.21211,0.48728 -7.41211,1.0537 -5.19375,1.33718 -51.08803,2.05094 -55,0.85537 z m -4.74499,-26.68293 c 0.26963,-0.81874 -0.65212,-1.25 -2.67168,-1.25 -2.9709,0 -3.86026,0.88974 -2.37448,2.37552 1.07414,1.07413 4.57921,0.29235 5.04616,-1.12552 z M 210.74536,293.80264 c 0.30474,-0.49308 0.27224,-2.95267 -0.0722,-5.46576 -0.56048,-4.08919 -0.98102,-4.68632 -4.00273,-5.68357 -7.23683,-2.38837 -7.06852,-11.95416 0.21032,-11.95416 2.23949,0 2.42857,-0.37975 2.42857,-4.87756 0,-3.27821 -0.53172,-5.31884 -1.6216,-6.22336 -1.42004,-1.17853 -2.41441,-0.50899 -8,5.38668 -7.36376,7.77256 -8.00761,10.55068 -3.68206,15.88751 11.15405,13.7618 13.14587,15.50909 14.7397,12.93022 z m -7.00501,-44.63544 c 3.61293,-4.14257 6.56781,-8.30507 6.5664,-9.25 -0.001,-0.94493 -1.52733,-4.2466 -3.39092,-7.33705 -1.86359,-3.09045 -4.16371,-7.25295 -5.11137,-9.25 -2.99802,-6.31785 -6.71028,-4.39146 -8.08324,4.1946 -0.60807,3.80265 -0.47447,4.12059 1.99148,4.73951 2.84336,0.71363 5.59662,3.89472 5.59662,6.46627 0,2.79539 -2.67014,5.37035 -5.63423,5.43339 -2.77035,0.0589 -2.86025,0.22022 -2.69991,4.84424 0.15608,4.50116 1.56109,7.69099 3.38761,7.69099 0.44473,0 3.76463,-3.38938 7.37756,-7.53195 z m -10.93103,265.98231 c -8.77526,-2.50522 -14.14983,-3.45593 -20,-3.53778 -10.14647,-0.14197 -12.91411,-0.90206 -13.31336,-3.65629 -0.17234,-1.18895 -1.17891,-2.43645 -2.23681,-2.77221 -2.86128,-0.90814 -18.68435,-11.52888 -24.69808,-16.57782 -7.47417,-6.27508 -13.92428,-15.29214 -16.24759,-22.71364 -2.36222,-7.54581 -3.99331,-23.4196 -4.02718,-39.19262 -0.0136,-6.325 -0.47801,-13.3 -1.03206,-15.5 -0.55406,-2.2 -1.38259,-7.73699 -1.8412,-12.30442 -0.70658,-7.03719 -1.24701,-8.7357 -3.54151,-11.13065 -2.60923,-2.72345 -2.66959,-3.03239 -1.65968,-8.49546 1.41274,-7.64223 4.37606,-14.05068 7.41914,-16.04458 3.2941,-2.15838 5.67833,-8.31774 5.67833,-14.66927 0,-3.69742 0.97207,-7.25681 3.5275,-12.91651 1.94012,-4.29694 6.62386,-16.3085 10.40832,-26.69236 5.25846,-14.42828 7.26002,-21.45765 8.48909,-29.81325 0.88455,-6.01342 2.70878,-14.7585 4.05385,-19.4335 1.34507,-4.675 3.15481,-12.775 4.02164,-18 0.86683,-5.225 2.65347,-13.325 3.97031,-18 4.00507,-14.21869 8.24401,-32.82826 10.478,-46 2.94477,-17.3625 12.46676,-59.00103 14.92152,-65.25 2.8861,-7.34703 4.08256,-0.29848 4.20121,24.75 0.0449,9.48392 -0.39193,18.53316 -0.98809,20.46773 -0.58775,1.90725 -2.45633,12.70361 -4.15241,23.99192 -1.69609,11.2883 -4.58457,26.37783 -6.41886,33.53227 -1.83428,7.15444 -4.05526,17.95808 -4.93551,24.00808 -0.88025,6.05 -2.47633,13.79236 -3.54685,17.20524 -1.07052,3.41288 -2.41151,10.61288 -2.97998,16 -0.56847,5.38712 -1.73995,12.04476 -2.60329,14.79476 -0.86334,2.75 -3.73286,15.58323 -6.37671,28.51829 -3.51361,17.1903 -5.60805,25.12777 -7.7841,29.5 -3.66974,7.37344 -7.57961,18.75271 -9.56571,27.83998 -1.15854,5.30083 -1.25019,7.68526 -0.4036,10.5 1.68878,5.61488 1.06694,25.27831 -1.23783,39.14173 -2.28414,13.73929 -2.85845,38.65164 -1.04183,45.19238 2.08526,7.50798 18.38582,17.8752 33.46333,21.28282 3.85,0.87013 13.0386,4.47768 20.41911,8.01679 12.1296,5.8164 13.83439,6.96386 17.74069,11.94088 2.37686,3.02838 5.67577,6.20642 7.33089,7.06231 1.65512,0.8559 3.00931,1.76962 3.00931,2.0305 0,1.28782 -7.70107,0.008 -18.5,-3.07532 z m 33.77083,-0.0545 c 0.33229,-0.33229 1.19479,-0.36781 1.91667,-0.0789 0.79773,0.31922 0.56078,0.55618 -0.60417,0.60416 -1.05416,0.0434 -1.64479,-0.19293 -1.3125,-0.52522 z m 104.1703,-3.86403 c -1.8639,-1.40978 -1.83497,-1.46946 0.72708,-1.5 3.46858,-0.0413 5.96622,0.94167 5.26703,2.07298 -0.83886,1.35731 -3.81863,1.07247 -5.99411,-0.57298 z m 21.80887,-371.56299 c -2.39759,-0.96372 -2.97418,-3.84466 -1.13713,-5.68171 1.64733,-1.64733 0.15364,-3.28713 -2.99425,-3.28713 -2.13182,0 -3.37659,-0.93663 -5.44662,-4.09834 -1.47579,-2.25409 -2.96244,-5.2107 -3.30367,-6.57024 -0.34122,-1.35954 -1.46369,-2.99853 -2.49437,-3.6422 -1.03068,-0.64367 -1.87396,-2.21363 -1.87396,-3.48878 0,-1.58863 -0.39349,-2.08207 -1.25,-1.5675 -0.84936,0.51028 -0.81011,0.20868 0.12244,-0.94098 1.61822,-1.99494 5.07184,-2.20126 7.3982,-0.44196 0.90909,0.6875 2.99219,3.26333 4.62911,5.72407 1.89996,2.85616 4.17392,4.88702 6.28824,5.61598 2.4696,0.85146 3.25381,1.67121 3.08319,3.22292 -0.14731,1.33977 0.85482,2.85263 2.81348,4.24732 2.43354,1.73282 2.99036,2.79396 2.78269,5.30301 -0.4709,5.68952 -3.50241,7.66149 -8.61735,5.60554 z m 42.82095,-18.38335 c -0.74577,-0.8986 -1.05933,-1.93045 -0.69678,-2.29299 0.93392,-0.93393 2.93161,1.29016 2.45178,2.72965 -0.27581,0.82743 -0.81782,0.69257 -1.755,-0.43666 z m 18.17648,-0.83549 c -0.54861,-0.6875 -1.75673,-2.74434 -2.68472,-4.57076 -1.42861,-2.8117 -1.9216,-3.12628 -3.21594,-2.05207 -1.34523,1.11644 -1.45503,0.73493 -0.91492,-3.17924 0.62316,-4.51605 0.22028,-6.59534 -4.93074,-25.447928 -3.95563,-14.477516 -11.06135,-27.33976 -13.66527,-24.735845 -0.75811,0.758111 -0.77682,1.966383 -0.0622,4.016322 0.60445,1.733927 0.66147,3.501522 0.13955,4.325763 -0.48541,0.766568 -0.88945,1.00116 -0.89787,0.521315 -0.0405,-2.308957 -3.01532,1.973948 -3.01532,4.341252 0,1.498154 -0.77141,4.255554 -1.71424,6.127555 -2.27911,4.525198 -2.18816,9.896371 0.22829,13.482303 2.34914,3.486029 2.73742,6.421335 0.84941,6.421335 -0.7499,0 -1.36346,0.449998 -1.36346,0.999998 0,0.55 -0.68614,1 -1.52475,1 -0.83861,0 -1.95248,1.125 -2.47525,2.5 -0.52277,1.375 -1.63664,2.5 -2.47525,2.5 -2.49046,0 -5.43847,-3.61391 -4.83391,-5.92579 0.41511,-1.587368 0.0739,-2.074208 -1.45375,-2.074208 -2.09671,0 -7.68163,-6.268997 -10.24511,-11.5 -0.80859,-1.65 -3.27507,-4.8 -5.48107,-7 -3.98894,-3.978087 -4.0534,-4 -11.76688,-4 -6.50282,0 -7.65589,0.242357 -7.13654,1.5 0.34068,0.825 0.8315,2.232646 1.09072,3.128102 0.25921,0.895455 1.55816,2.123308 2.88654,2.728561 2.84865,1.297929 3.10035,3.727807 0.66525,6.422202 -1.68483,1.864236 -1.61966,2.046853 1.75,4.903704 1.925,1.632047 5.1875,3.842771 7.25,4.912722 2.0625,1.069947 3.75,2.541467 3.75,3.270047 0,1.3708 -3.09541,4.63466 -4.39546,4.63466 -0.91532,0 -7.17168,-4.54068 -10.84411,-7.870338 -1.50676,-1.366119 -2.85676,-2.291661 -3,-2.05676 -1.78464,2.926748 -2.76043,5.150598 -2.76043,6.291088 0,0.76511 -0.73034,1.99725 -1.62297,2.73806 -1.41207,1.17192 -2.02931,0.86296 -4.75,-2.3776 -1.71987,-2.04849 -3.57703,-3.72451 -4.12703,-3.72446 -0.55,4e-5 -2.25668,1.57506 -3.79263,3.50004 -2.76911,3.47048 -5.95837,4.5209 -7.27215,2.39516 -0.58712,-0.94998 -1.24619,-6.09415 -2.77549,-21.663068 -0.32611,-3.319977 -2.04624,-5.473587 -6.92521,-8.670415 -2.37066,-1.553313 -2.78787,-1.586253 -3.29669,-0.260286 -0.3204,0.834948 -1.56248,1.814676 -2.76019,2.177174 -3.39304,1.026942 -9.6888,8.858791 -10.16855,12.649563 -0.64822,5.121961 -5.62137,7.487674 -10.38317,4.939234 -0.95843,-0.512935 -3.51635,-1.141358 -5.68426,-1.396496 -2.16791,-0.255139 -5.61128,-0.78219 -7.65192,-1.171227 -2.96229,-0.564741 -4.24946,-0.283209 -6.38486,1.396497 -1.47103,1.15711 -3.20776,2.103836 -3.8594,2.103836 -0.65165,0 -2.12638,1.0829 -3.27718,2.40644 -1.74375,2.005488 -3.39828,2.523678 -9.93033,3.110138 -11.88603,1.06714 -13.00693,1.23754 -14.99587,2.2796 -1.01315,0.53083 -7.07295,1.28469 -13.46621,1.67526 -9.72398,0.59405 -12.13507,0.44589 -14.75,-0.90634 -1.71924,-0.88905 -3.12589,-1.9668 -3.12589,-2.395 0,-0.4282 1.27934,-2.79585 2.84298,-5.26145 5.26629,-8.304075 18.89041,-37.128599 22.40805,-47.408648 0.56459,-1.65 1.86409,-4.849289 2.88775,-7.109531 1.02367,-2.260242 1.86122,-5.275382 1.86122,-6.70031 0,-1.424928 0.62595,-2.950639 1.391,-3.390469 0.76504,-0.439829 3.97974,-5.425616 7.14376,-11.079526 3.16403,-5.65391 6.15787,-10.530198 6.65298,-10.836196 0.49512,-0.305997 1.94977,0.131338 3.23256,0.971856 2.08809,1.368167 2.25012,1.977922 1.54715,5.822195 -0.44633,2.44076 -0.3805,5.050199 0.15253,6.046172 0.97257,1.817258 5.1797,3.362193 8.00024,2.937834 0.89112,-0.134072 3.78488,0.907196 6.43058,2.313929 3.69685,1.965635 4.9965,2.264449 5.61447,1.290872 1.21068,-1.907366 0.99693,-3.490608 -0.55148,-4.084789 -2.09235,-0.80291 -10.61379,-13.979763 -10.61379,-16.4122915 0,-3.5367844 2.66486,-5.269745 8.10355,-5.269745 8.60623,0 16.17055,4.41853 17.4372,10.1855495 0.3655,1.664079 1.57844,3.317318 2.80188,3.81895 15.84917,6.498472 15.36477,6.022811 15.55769,15.276885 0.12662,6.073491 -1.20443,6.652377 -8.69596,3.781962 -9.45742,-3.623659 -11.38553,-4.110257 -10.94657,-2.762589 0.45404,1.393931 10.62518,5.656884 15.14932,6.349422 2.52168,0.386007 3.98712,-0.274124 7.93482,-3.574354 4.05932,-3.393552 5.16377,-3.875551 6.83318,-2.982108 2.56355,1.371967 5.34851,-0.961841 6.19432,-5.190844 0.32943,-1.647191 1.79734,-4.566027 3.262,-6.486301 2.47699,-3.247505 3.0195,-3.478498 7.7658,-3.306616 7.25532,0.262744 19.45992,-1.678871 21.43149,-3.409511 0.91921,-0.806873 4.17708,-2.866407 7.23973,-4.576741 6.24033,-3.4849125 6.83304,-3.3290125 10.93516,2.876295 4.34124,6.567023 8.49299,10.12205 17.88214,15.311965 12.179,6.732021 25.43433,18.972516 29.58887,27.323534 1.60464,3.225475 5.38711,10.364501 8.4055,15.864501 3.01838,5.5 6.48646,13.150001 7.70686,17 1.96578,6.201486 2.54227,7.057917 5.05375,7.50771 1.79496,0.321461 2.97524,1.236671 3.21756,2.494958 0.21049,1.09299 1.66812,3.85553 3.23917,6.13898 2.47583,3.59849 2.65923,4.31539 1.37635,5.38009 -1.22392,1.01576 -2.12866,0.52914 -5.22696,-2.81134 -2.88227,-3.10755 -4.72753,-4.1775 -7.99685,-4.63687 l -4.25,-0.59717 0,6.78932 c 0,8.60726 -2.87274,13.59327 -5.75257,9.98432 z m -0.68974,-25.620879 c -1.41025,-1.410254 -1.55769,-1.220255 -1.55769,2.007373 0,1.960789 0.5625,5.094706 1.25,6.964286 l 1.25,3.39922 0.30769,-5.4066 c 0.22095,-3.882507 -0.13141,-5.845691 -1.25,-6.964279 z m 8.24673,0.636152 c 0.35924,-1.851467 -2.58608,-9.316948 -3.36748,-8.535549 -1.023,1.023009 0.80457,10.856428 1.94702,10.476091 0.61382,-0.20435 1.25303,-1.077594 1.42046,-1.940542 z M 222.86819,95.143986 c 1.83031,-1.466378 1.7984,-1.487191 -0.55887,-0.364546 -3.06103,1.457812 -3.62834,1.919712 -2.3578,1.919712 0.53655,0 1.84905,-0.699825 2.91667,-1.555166 z m 39.44113,-5.444834 c 0,-0.55 -0.45,-1 -1,-1 -0.55,0 -1,0.45 -1,1 0,0.55 0.45,1 1,1 0.55,0 1,-0.45 1,-1 z M 411.59313,83.240127 C 411.4128,68.527755 397.0246,45.84526 385.05932,41.41053 c -3.10742,-1.151715 -1.99743,2.659259 1.84733,6.342455 6.6045,6.326981 12.29389,15.420105 15.99472,25.563691 6.10258,16.726523 6.61436,17.765023 7.75254,15.731215 0.54381,-0.971734 0.96646,-3.585228 0.93922,-5.807764 z m -81.28844,1.709025 c -0.007,-1.09201 -4.59304,-12.181004 -5.35173,-12.939692 -1.51859,-1.518595 -0.465,5.09152 1.46649,9.20059 1.85405,3.944324 3.89866,5.912025 3.88524,3.739102 z M 253.77256,66.045245 c 1.80277,-6.046043 1.87148,-7.021191 0.55216,-7.836574 -1.51643,-0.937206 -4.7437,5.160775 -5.47431,10.343823 -0.36026,2.555662 -0.89148,5.546658 -1.1805,6.646658 -1.1885,4.523443 4.6242,-4.195546 6.10265,-9.153907 z m 51.4259,-3.264631 c 0.0782,-3.805196 -0.2837,-7.967696 -0.80425,-9.25 -0.52056,-1.282304 -1.21119,-3.568962 -1.53473,-5.081462 -0.59221,-2.768458 -2.52757,-3.463371 -5.96837,-2.143011 -2.29045,0.878925 -2.01243,8.84624 0.50224,14.393011 1.98839,4.385921 5.55853,9 6.96375,9 0.38453,0 0.76315,-3.113342 0.84136,-6.918538 z m 30.03076,3.168538 c -4.7561,-6.281689 -8.28184,-8.350083 -7.20334,-4.225875 0.61611,2.356016 4.88101,5.975875 7.04074,5.975875 1.25484,0 1.28028,-0.273803 0.1626,-1.75 z M 311.97966,48.563539 c -0.69525,-5.870346 -0.97311,-6.345917 -3.20685,-5.488751 -1.2419,0.476562 -1.4692,1.385687 -0.96847,3.873539 1.17009,5.813547 1.616,6.750825 3.21166,6.750825 1.30411,0 1.46828,-0.87492 0.96366,-5.135613 z m -81.6046,-0.899571 c 1.06384,-0.569351 1.93426,-1.678518 1.93426,-2.464816 0,-1.789192 -3.67673,-3.838029 -5.57814,-3.108388 -1.73389,0.665354 -1.8612,3.769045 -0.22186,5.408388 1.45492,1.454923 1.45514,1.454932 3.86574,0.164817 z m 39.93426,-9.357827 c 0,-0.948631 -2.99338,-1.42672 -3.52699,-0.563315 -0.32508,0.525979 0.33551,0.956326 1.46797,0.956326 1.13246,0 2.05902,-0.176855 2.05902,-0.393011 z m -24,-3.666006 c 0,-0.582459 -0.45,-0.780902 -1,-0.440983 -0.55,0.339919 -1,0.816476 -1,1.059017 0,0.242541 0.45,0.440983 1,0.440983 0.55,0 1,-0.476558 1,-1.059017 z m 6,-0.881966 c 0,-1.357254 -1.76453,-2.249028 -2.40372,-1.214809 -0.59765,0.967019 0.26831,2.155792 1.57039,2.155792 0.45833,0 0.83333,-0.423442 0.83333,-0.940983 z m 9.23098,-23.559016 c -0.14796,-0.5500005 -1.48717,-1.3257855 -2.97603,-1.7239675 -3.20221,-0.8564026 -5.54425,0.784502 -3.24659,2.2746585 1.8694,1.212408 6.58467,0.795116 6.22262,-0.550691 z M 392.38827,112.28248 c -0.0434,-1.05416 0.19293,-1.64479 0.52522,-1.3125 0.33229,0.3323 0.36781,1.1948 0.0789,1.91667 -0.31922,0.79773 -0.55618,0.56078 -0.60416,-0.60417 z m -5.75535,-8.9768 -2.17641,-2.1825 2.42641,-0.20081 c 1.33452,-0.11045 2.4264,0.20734 2.4264,0.70619 0,0.49886 0.27314,1.61882 0.60699,2.4888 0.83589,2.1783 -0.67397,1.80505 -3.28339,-0.81168 z m -96.3236,-15.446013 c 0,-0.461716 1.0818,-1.332386 2.404,-1.93482 2.02602,-0.923118 2.69424,-0.754529 4.25,1.072253 1.02562,1.204289 1.17938,1.674655 0.346,1.058403 -0.89045,-0.658446 -2.31273,-0.781597 -3.5,-0.303051 -2.68576,1.082537 -3.5,1.107479 -3.5,0.107215 z"
     style="fill:#ff0000" />
  <path
     inkscape:connector-curvature="0"
     id="path3330"
     d="m 298.80932,529.69915 c -0.38867,-0.62888 1.72336,-0.97392 5.69098,-0.92971 4.45099,0.0496 5.72001,0.32339 4.30902,0.92971 -2.7975,1.20213 -9.25705,1.20213 -10,0 z m -0.5,-4.95034 c 0,-0.62791 2.67863,-1.04966 6.66667,-1.04966 8.09604,0 7.94781,0.50413 -0.41667,1.41712 -4.13039,0.45084 -6.25,0.32622 -6.25,-0.36746 z m 16.5,-2.04966 c 4.36654,-1.1111 12.58566,-1.1111 10,0 -1.1,0.47269 -4.475,0.83782 -7.5,0.8114 -4.53738,-0.0396 -4.97493,-0.18164 -2.5,-0.8114 z m -122,-7.54964 c -8.77526,-2.50522 -14.14983,-3.45593 -20,-3.53778 -10.14647,-0.14197 -12.91411,-0.90206 -13.31336,-3.65629 -0.17234,-1.18895 -1.17891,-2.43645 -2.23681,-2.77221 -2.86128,-0.90814 -18.68435,-11.52888 -24.69808,-16.57782 -7.47417,-6.27508 -13.92428,-15.29214 -16.24759,-22.71364 -2.36222,-7.54581 -3.99331,-23.4196 -4.02718,-39.19262 -0.0136,-6.325 -0.47801,-13.3 -1.03206,-15.5 -0.55406,-2.2 -1.38259,-7.73699 -1.8412,-12.30442 -0.70658,-7.03719 -1.24701,-8.7357 -3.54151,-11.13065 -2.60923,-2.72345 -2.66959,-3.03239 -1.65968,-8.49546 1.41274,-7.64223 4.37606,-14.05068 7.41914,-16.04458 3.2941,-2.15838 5.67833,-8.31774 5.67833,-14.66927 0,-3.69742 0.97207,-7.25681 3.5275,-12.91651 1.94012,-4.29694 6.62386,-16.3085 10.40832,-26.69236 5.25846,-14.42828 7.26002,-21.45765 8.48909,-29.81325 0.88455,-6.01342 2.70878,-14.7585 4.05385,-19.4335 1.34507,-4.675 3.15481,-12.775 4.02164,-18 0.86683,-5.225 2.65347,-13.325 3.97031,-18 4.00507,-14.21869 8.24401,-32.82826 10.478,-46 2.94477,-17.3625 12.46676,-59.00103 14.92152,-65.25 2.8861,-7.34703 4.08256,-0.29848 4.20121,24.75 0.0449,9.48392 -0.39193,18.53316 -0.98809,20.46773 -0.58775,1.90725 -2.45633,12.70361 -4.15241,23.99192 -1.69609,11.2883 -4.58457,26.37783 -6.41886,33.53227 -1.83428,7.15444 -4.05526,17.95808 -4.93551,24.00808 -0.88025,6.05 -2.47633,13.79236 -3.54685,17.20524 -1.07052,3.41288 -2.41151,10.61288 -2.97998,16 -0.56847,5.38712 -1.73995,12.04476 -2.60329,14.79476 -0.86334,2.75 -3.73286,15.58323 -6.37671,28.51829 -3.51361,17.1903 -5.60805,25.12777 -7.7841,29.5 -3.66974,7.37344 -7.57961,18.75271 -9.56571,27.83998 -1.15854,5.30083 -1.25019,7.68526 -0.4036,10.5 1.68878,5.61488 1.06694,25.27831 -1.23783,39.14173 -2.28414,13.73929 -2.85845,38.65164 -1.04183,45.19238 2.08526,7.50798 18.38582,17.8752 33.46333,21.28282 3.85,0.87013 13.07197,4.49367 20.49326,8.05231 11.53385,5.5307 13.95164,7.10191 16.64991,10.82007 2.95321,4.06946 5.53622,6.48329 9.9985,9.34361 3.73257,2.39258 -4.83485,1.27262 -17.14167,-2.24083 z m 29.69464,-148.43195 c -3.46795,-0.97053 -8.08045,-2.56504 -10.25,-3.54338 l -3.94464,-1.77878 -0.0148,-9.09812 c -0.0198,-12.17416 -1.81839,-19.10339 -8.48398,-32.68494 -3.07732,-6.27024 -6.08584,-13.34919 -6.68558,-15.731 -0.83769,-3.32675 -1.95337,-4.8753 -4.81313,-6.68059 -4.27404,-2.69809 -4.27569,-2.70444 -6.09721,-23.5016 -1.3564,-15.48653 -0.68349,-37.12886 1.57016,-50.5 0.8343,-4.95 1.51862,-9.3375 1.52071,-9.75 0.002,-0.4125 1.74871,-0.75 3.88137,-0.75 4.73382,0 5.31322,-0.67056 8.20846,-9.5 1.90637,-5.81376 2.3306,-9.45722 2.50336,-21.5 l 0.20802,-14.5 4.62637,-0.30582 c 5.73773,-0.37927 21.29248,2.43114 24.32623,4.39524 2.07471,1.3432 2.25,2.20108 2.25,11.01164 0,5.25522 0.82983,14.58235 1.84406,20.72695 1.01423,6.14459 1.87751,12.52199 1.9184,14.17199 0.0409,1.65 0.62752,9.16031 1.30361,16.68958 0.84609,9.42229 0.92772,15.56204 0.26189,19.69647 -0.54586,3.38948 -0.5939,6.67426 -0.11025,7.53849 0.5518,0.98601 0.27265,2.42363 -0.78361,4.03569 -1.48892,2.27238 -1.57606,6.9829 -0.94176,50.90893 0.50962,35.2924 0.39263,48.97725 -0.43187,50.51785 -1.34196,2.50747 -3.29804,2.52913 -11.86583,0.1314 z m -11.7586,-72.91492 c 0.30474,-0.49308 0.27224,-2.95267 -0.0722,-5.46576 -0.56048,-4.08919 -0.98102,-4.68632 -4.00273,-5.68357 -7.23683,-2.38837 -7.06852,-11.95416 0.21032,-11.95416 2.23949,0 2.42857,-0.37975 2.42857,-4.87756 0,-3.27821 -0.53172,-5.31884 -1.6216,-6.22336 -1.42004,-1.17853 -2.41441,-0.50899 -8,5.38668 -7.36376,7.77256 -8.00761,10.55068 -3.68206,15.88751 11.15405,13.7618 13.14587,15.50909 14.7397,12.93022 z m -7.00501,-44.63544 c 3.61293,-4.14257 6.56781,-8.30507 6.5664,-9.25 -0.001,-0.94493 -1.52733,-4.2466 -3.39092,-7.33705 -1.86359,-3.09045 -4.16371,-7.25295 -5.11137,-9.25 -2.99802,-6.31785 -6.71028,-4.39146 -8.08324,4.1946 -0.60807,3.80265 -0.47447,4.12059 1.99148,4.73951 2.84336,0.71363 5.59662,3.89472 5.59662,6.46627 0,2.79539 -2.67014,5.37035 -5.63423,5.43339 -2.77035,0.0589 -2.86025,0.22022 -2.69991,4.84424 0.15608,4.50116 1.56109,7.69099 3.38761,7.69099 0.44473,0 3.76463,-3.38938 7.37756,-7.53195 z M 413.58394,120.44915 c -2.4012,-3.09348 -5.14591,-9.92272 -7.13383,-17.75 -7.0822,-27.885708 -10.36335,-36.099535 -17.92885,-44.881935 -3.3919,-3.937485 -4.25761,-4.402051 -8.5352,-4.58025 -3.99725,-0.16652 -4.65295,0.05503 -4.08999,1.381937 2.10976,4.972745 1.7437,5.893876 -3.73076,9.387889 -11.59498,7.400365 -25.4385,12.165553 -33.4837,11.525692 -3.13498,-0.249336 -4.37229,0.02664 -4.37229,0.975205 0,2.007745 2.09548,5.53398 4.1587,6.998168 2.07027,1.469198 2.43699,5.197602 0.68368,6.950914 -1.56619,1.566192 0.072,3.430638 7.36733,8.384792 3.18466,2.162658 5.79029,4.295598 5.79029,4.739858 0,0.95075 -3.34578,4.11773 -4.35021,4.11773 -0.381,0 -3.55579,-2.25 -7.0551,-5 -3.95048,-3.104558 -7.35414,-4.999998 -8.97854,-4.999998 -2.82087,0 -6.61615,-3.111 -6.61615,-5.423275 0,-0.782801 1.17327,-2.817632 2.60728,-4.521846 l 2.60727,-3.098572 -2.2632,-5.728154 c -3.03797,-7.689098 -3.62347,-8.128338 -4.43467,-3.326877 -0.99178,5.870303 -3.2625,8.203034 -8.56695,8.800922 -4.35824,0.491238 -4.67804,0.325372 -12.64309,-6.557491 -8.5208,-7.363098 -11.3559,-8.725254 -35.35307,-16.98581 -13.00507,-4.476743 -15.16613,-5.43731 -19.23186,-8.548346 -4.26147,-3.260811 -4.28063,-4.575554 -0.034,-2.336189 10.68735,5.635794 12.95435,6.717735 14.08348,6.721453 0.69913,0.0023 6.59812,1.804185 13.10887,4.004185 13.32965,4.504127 15.04543,4.820031 13.03731,2.400386 -0.73016,-0.879788 -1.22703,-2.918993 -1.10416,-4.531567 0.36197,-4.750455 -1.24381,-6.556358 -6.53535,-7.3498 -2.6278,-0.394026 -5.67782,-1.211348 -6.77782,-1.816272 -1.1,-0.604923 -5.375,-1.238583 -9.5,-1.408132 -4.125,-0.169549 -8.99795,-0.417699 -10.82877,-0.551443 -6.10908,-0.446277 -8.26487,-6.951151 -3.53637,-10.670592 3.06831,-2.413535 5.08563,-2.609831 7.2864,-0.709004 1.54695,1.336119 15.5287,3.987688 27.73767,5.260313 5.28168,0.550545 6.57785,0.343698 9.09995,-1.452199 1.61756,-1.151802 4.84075,-2.521027 7.16264,-3.042722 5.17049,-1.161731 7.66112,-3.292143 8.44791,-7.226094 0.32943,-1.647191 1.79734,-4.566027 3.262,-6.486301 2.47224,-3.241268 3.02861,-3.479511 7.7658,-3.325357 2.80652,0.09133 9.57359,-0.41466 15.03792,-1.124417 15.04134,-1.953708 21.82203,-0.17048 41.95358,11.033201 12.70468,7.070455 25.87215,19.165481 30.08589,27.635499 1.60464,3.225475 5.38711,10.364501 8.4055,15.864501 3.01838,5.5 6.48646,13.150001 7.70686,17 1.96578,6.201486 2.54227,7.057917 5.05375,7.50771 1.79496,0.321461 2.97524,1.236671 3.21756,2.494958 0.21049,1.09299 1.66812,3.85553 3.23917,6.13898 2.47583,3.59849 2.65923,4.31539 1.37635,5.38009 -1.22392,1.01576 -2.12866,0.52914 -5.22696,-2.81134 -2.88227,-3.10755 -4.72753,-4.1775 -7.99685,-4.63687 l -4.25,-0.59717 0,6.78932 c 0,8.58192 -2.89509,13.63059 -5.72538,9.98432 z m -0.71693,-25.620879 c -1.41025,-1.410254 -1.55769,-1.220255 -1.55769,2.007373 0,1.960789 0.5625,5.094706 1.25,6.964286 l 1.25,3.39922 0.30769,-5.4066 c 0.22095,-3.882507 -0.13141,-5.845691 -1.25,-6.964279 z m 8.24673,0.636152 c 0.35924,-1.851467 -2.58608,-9.316948 -3.36748,-8.535549 -1.023,1.023009 0.80457,10.856428 1.94702,10.476091 0.61382,-0.20435 1.25303,-1.077594 1.42046,-1.940542 z M 411.59313,83.240127 C 411.4128,68.527755 397.0246,45.84526 385.05932,41.41053 c -3.10742,-1.151715 -1.99743,2.659259 1.84733,6.342455 6.6045,6.326981 12.29389,15.420105 15.99472,25.563691 6.10258,16.726523 6.61436,17.765023 7.75254,15.731215 0.54381,-0.971734 0.96646,-3.585228 0.93922,-5.807764 z m -96.40054,-8.790975 c 0.45857,-1.2375 1.14606,-5.791169 1.52775,-10.119265 0.66427,-7.532187 0.55253,-8.16399 -2.60851,-14.749763 -1.92278,-4.005954 -3.92918,-6.875638 -4.80251,-6.868866 -3.50572,0.02718 -12.58455,3.066834 -13.69472,4.585079 -2.07846,2.842461 0.73168,13.353502 5.18318,19.387172 2.38056,3.226669 10.99744,10.015643 12.71231,10.015643 0.4668,0 1.22393,-1.0125 1.6825,-2.25 z m 20.03663,-8.5 c -4.7561,-6.281689 -8.28184,-8.350083 -7.20334,-4.225875 0.61611,2.356016 4.88101,5.975875 7.04074,5.975875 1.25484,0 1.28028,-0.273803 0.1626,-1.75 z m -47.4199,-28.266564 c -1.1,-0.484662 -6.725,-2.521716 -12.5,-4.526786 -13.16345,-4.570326 -16.58066,-6.887351 -21.81521,-14.791709 -6.38816,-9.6463405 -5.23573,-13.6649405 3.91876,-13.6649405 8.52028,0 16.17032,4.417455 17.40788,10.0520505 0.6514,2.965784 3.36265,5.22888 7.48857,6.25075 1.375,0.340547 3.96121,1.874232 5.74714,3.408188 2.73631,2.350249 3.34792,3.693591 3.88769,8.539011 0.68154,6.118127 0.21641,6.650599 -4.13483,4.733436 z M 261.5403,10.199153 c -0.14796,-0.5500005 -1.48717,-1.3257855 -2.97603,-1.7239675 -3.20221,-0.8564026 -5.54425,0.784502 -3.24659,2.2746585 1.8694,1.212408 6.58467,0.795116 6.22262,-0.550691 z"
     style="fill:#aa0000" />
  <path
     sodipodi:nodetypes="sssssssssssssssssssssssssssssssssssssscsssssscsssssscssssssssssccssssssssssssssssssscscsssssssssssssssssssssssssssscsscssssssssssccsssssssssssssssssssccccccccsssssssssssss"
     inkscape:connector-curvature="0"
     id="path3328"
     d="m 192.80932,514.49264 c -7.13811,-2.17229 -12.7188,-3.16343 -19.5,-3.46324 -12.78329,-0.56516 -14,-0.88224 -14,-3.64841 0,-1.67319 -0.88114,-2.59869 -3.3105,-3.47715 -5.29953,-1.91634 -23.90716,-15.54068 -29.07473,-21.28826 -10.82506,-12.04008 -12.43228,-17.69303 -13.62338,-47.91643 -0.55745,-14.14491 -1.45736,-24.72802 -2.42343,-28.5 -0.84519,-3.3 -1.54374,-8.15795 -1.55233,-10.79545 -0.0123,-3.76911 -0.55069,-5.33052 -2.51563,-7.29546 -3.07125,-3.07125 -3.15615,-6.07405 -0.422,-14.92619 1.46645,-4.7478 3.07402,-7.64821 5.4624,-9.85534 4.41202,-4.07721 6.653,-9.53715 5.89997,-14.37479 -0.47624,-3.05946 0.32668,-5.87734 4.34609,-15.25277 8.90704,-20.77603 16.88449,-44.73475 18.14667,-54.5 0.6398,-4.95 2.47754,-13.95 4.08386,-20 1.60633,-6.05 4.04613,-16.625 5.42179,-23.5 1.37565,-6.875 4.3203,-19.43771 6.54366,-27.91713 2.22336,-8.47941 5.14898,-22.06058 6.50139,-30.18036 3.25018,-19.51386 12.72259,-60.46175 14.99849,-64.83634 1.17427,-2.25712 1.30767,-2.29343 1.83718,-0.5 0.31403,1.0636 0.64809,10.25883 0.74234,20.43383 0.15926,17.19269 -0.11939,20.36778 -3.94332,44.93131 -2.26309,14.53722 -5.65345,32.31222 -7.53415,39.5 -1.88069,7.18778 -3.70652,15.54369 -4.05738,18.56869 -0.9272,7.99387 -2.45436,15.86058 -4.07672,21 -0.78129,2.475 -2.10281,9.675 -2.93672,16 -0.83391,6.325 -2.21072,13.75 -3.05957,16.5 -1.69455,5.48981 -5.53975,23.35581 -8.41024,39.07663 -1.14555,6.27382 -3.00022,12.37519 -4.91449,16.16733 -4.62648,9.16501 -6.96687,15.78034 -9.22379,26.07189 -1.69091,7.71057 -1.85878,10.17458 -0.9742,14.29922 1.72126,8.02598 1.24858,19.85692 -1.54729,38.72786 -2.1746,14.67761 -2.52708,19.87226 -2.08888,30.78486 0.35817,8.91964 1.01663,14.07432 2.05413,16.08063 3.34105,6.46089 19.17668,15.97257 31.96845,19.20188 12.97088,3.27453 33.63497,13.26417 35.798,17.30584 0.61003,1.13984 2.91587,4.0325 5.12409,6.42815 4.89513,5.31058 4.20284,5.39226 -9.73976,1.1492 z m 28.5571,-149.86726 c -11.35319,-2.95685 -11.53025,-3.15464 -11.68016,-13.0469 -0.16837,-11.1115 -2.35509,-19.29037 -8.38964,-31.37933 -2.74548,-5.5 -5.71169,-12.475 -6.59158,-15.5 -1.94149,-6.67477 -2.70937,-7.69034 -6.4331,-8.50821 -3.16608,-0.69539 -2.95693,-0.049 -4.85133,-14.99179 -1.05454,-8.31808 -1.34737,-44.89981 -0.3987,-49.808 0.35683,-1.84616 1.01281,-2.62762 1.91507,-2.28138 0.75479,0.28963 1.37234,0.0907 1.37234,-0.442 0,-0.53274 -0.47757,-0.96862 -1.06127,-0.96862 -0.68585,0 -0.84341,-1.6803 -0.44541,-4.75 1.21257,-9.35218 1.15114,-9.25 5.56127,-9.25 3.81414,0 4.1147,-0.22913 5.96604,-4.54813 3.89393,-9.08416 5.30204,-16.63445 5.39946,-28.95187 l 0.0949,-12 2.4925,0.19612 c 6.81954,0.5366 18.84233,2.64755 21.59998,3.79252 4.87289,2.0232 4.94648,4.928 1.09631,43.27533 -0.73245,7.29519 -1.84234,13.77458 -2.46642,14.39866 -0.84624,0.84624 -1.76752,0.72002 -3.62418,-0.49651 -2.85738,-1.87222 -2.58503,-2.3087 -4.68378,7.50626 -1.65571,7.74307 -0.59477,55.37944 1.46609,65.82762 1.38932,7.04362 4.11951,14.58895 7.7795,21.5 0.87382,1.65 3.0078,7.14967 4.74218,12.22149 2.86267,8.37127 3.12711,10.16917 2.86812,19.5 -0.33427,12.04285 0.0354,11.76847 -11.7282,8.70474 z M 413.44616,119.36403 c -0.60943,-0.73431 -2.21049,-5.57181 -3.55793,-10.75 -3.54454,-13.621638 -11.44838,-37.680035 -14.09872,-42.914878 -3.22905,-6.377877 -7.87119,-11.907579 -13.29955,-15.842356 -5.19289,-3.764096 -15.02533,-8.646287 -15.81757,-7.854044 -0.27987,0.279868 1.58951,4.206919 4.15417,8.726782 3.87421,6.827765 4.43632,8.435865 3.32289,9.506252 -0.73707,0.708576 -6.51513,3.915206 -12.84013,7.125844 -11.48026,5.8275 -11.51502,5.837416 -20.25,5.776041 -7.87123,-0.05531 -8.75,0.124447 -8.75,1.789838 0,2.327992 3.74278,9.771643 4.91334,9.771643 1.57879,0 2.07794,3.041093 0.82774,5.04299 -0.89946,1.440265 -0.93657,2.429619 -0.13916,3.710466 1.07113,1.720505 7.87149,7.285162 11.19537,9.161032 1.30452,0.73623 1.42841,1.23813 0.52975,2.14619 -1.25898,1.27216 -5.07037,-0.85161 -10.53974,-5.872917 -1.49198,-1.369759 -4.41698,-2.765919 -6.5,-3.102579 -3.00516,-0.485698 -3.85698,-1.102111 -4.12469,-2.984802 -0.18557,-1.304981 0.5791,-3.612325 1.69927,-5.12743 l 2.03666,-2.754736 -3.19927,-8.10295 c -1.7596,-4.456622 -3.71689,-8.10572 -4.34953,-8.109107 -0.63264,-0.0034 -1.69081,2.247102 -2.35148,5.001086 -1.29821,5.411577 -4.67135,8.992757 -8.47033,8.992757 -1.21129,0 -4.6381,-1.747753 -7.61514,-3.883894 -9.41938,-6.758784 -15.00066,-15.440013 -16.46894,-25.616106 -0.39679,-2.75 -1.20709,-5.312189 -1.80065,-5.693753 -0.59357,-0.381563 -4.01861,-0.965817 -7.61121,-1.29834 -3.59259,-0.332523 -9.61587,-1.081315 -13.38506,-1.663983 -3.76918,-0.582668 -8.94418,-1.123415 -11.5,-1.20166 -3.89444,-0.119227 -4.69523,-0.480298 -4.94519,-2.229769 -0.16404,-1.148128 0.39621,-2.663859 1.245,-3.368291 1.26295,-1.048161 1.95715,-1.009585 3.82212,0.212391 1.25338,0.821247 7.66813,2.236836 14.25501,3.145755 6.58687,0.908919 13.90354,2.100454 16.25926,2.647855 3.75293,0.872072 4.80512,0.699559 8.5,-1.393619 2.31928,-1.313891 6.24457,-2.926863 8.72286,-3.584382 2.4783,-0.65752 5.56923,-1.997492 6.86874,-2.977716 1.98796,-1.499515 2.18527,-2.113863 1.24387,-3.872881 -1.30847,-2.444902 -0.26944,-5.903596 2.51664,-8.377284 2.25778,-2.004633 10.03068,-2.971183 25.36476,-3.15408 10.12953,-0.12082 12.51295,0.196784 20,2.665113 14.557,4.799151 25.74622,10.786318 34.20109,18.300434 4.2356,3.764316 8.62363,8.040858 9.75117,9.503428 3.5051,4.546569 21.04774,39.639211 21.04774,42.104319 0,2.958794 1.75683,4.736463 4.68095,4.736463 1.66398,0 2.45686,0.743841 2.9313,2.749998 0.35769,1.5125 1.71626,4.18248 3.01905,5.93328 1.30278,1.7508 2.3687,3.6633 2.3687,4.25 0,2.18444 -2.84584,0.95761 -5.32825,-2.29699 -2.34172,-3.07016 -6.06982,-4.62114 -12.17175,-5.06375 -0.56597,-0.0411 -1.02573,2.74866 -1.05928,6.42746 -0.0899,9.85549 -2.10229,13.52256 -5.30388,9.66488 z m 1.54227,-18.59179 c -1.51735,-15.786006 -4.7714,-30.232216 -8.45446,-37.533123 -0.82128,-1.62802 -3.87807,-6.12802 -6.79287,-10 -5.50079,-7.307193 -13.91554,-13.539965 -18.28004,-13.539965 -1.23808,0 -3.46621,-0.617992 -4.9514,-1.373315 -4.34183,-2.208129 -7.20034,-2.875532 -7.20034,-1.68113 0,0.594182 2.53896,2.282474 5.64214,3.75176 3.10318,1.469286 8.24813,5.084111 11.43323,8.032945 10.27663,9.514356 13.43084,15.82714 22.36935,44.76974 2.03832,6.6 4.19854,13.124998 4.80051,14.499998 0.97972,2.23789 1.14034,2.29797 1.53201,0.57309 0.24065,-1.0598 0.19649,-4.4348 -0.0981,-7.5 z m 6.16744,-5.107468 c 0.4697,-3.222611 -1.4844,-9.420169 -3.49677,-11.090293 -1.50174,-1.246333 -1.58118,-0.853243 -0.93599,4.631373 0.38777,3.296315 0.94148,6.805571 1.23048,7.798347 0.71393,2.452543 2.77527,1.590343 3.20228,-1.339427 z M 317.89711,76.205513 c 1.32761,-2.026188 1.5637,-4.544473 1.25943,-13.433933 -0.32983,-9.636322 -0.63936,-11.222263 -2.59692,-13.305996 -2.07267,-2.206255 -2.11033,-2.477826 -0.55884,-4.029322 1.5515,-1.551495 1.53371,-1.704717 -0.26392,-2.273364 -1.06015,-0.335358 -2.70893,-1.026893 -3.66397,-1.536744 -2.41476,-1.289131 -4.59847,-1.165197 -10.53557,0.597931 -6.52556,1.937883 -8.228,3.680208 -8.228,8.420769 0,8.354584 5.07897,17.558401 13.30253,24.1061 5.7652,4.590325 8.96076,5.002201 11.28526,1.45456 z m 19.41221,-8.218509 c 0,-0.984897 -8.23176,-9.287852 -9.20821,-9.287852 -1.87618,0 -0.55342,4.392215 2.13129,7.076923 2.62986,2.629862 7.07692,4.019185 7.07692,2.210929 z m 19.81193,-20.916268 c -0.50122,0.895629 -1.37109,1.628416 -1.93305,1.628416 -7.93898,6.584445 -12.33327,12.800125 -22.62888,6.789007 -1.7875,-1.073669 -3.25,-1.475798 -3.25,-0.893619 3.35503,8.998797 34.76532,-14.14837 27.81193,-7.523804 z m -1.76609,-1.45723 c 2.3637,-7.220039 -5.99439,1.712761 -2.08102,2.085646 0.53065,0 1.4671,-0.938541 2.08102,-2.085646 z M 261.11278,25.21157 c -2.01344,-1.368169 -3.93503,-3.351597 -4.2702,-4.407619 -0.33517,-1.05602 -1.24693,-2.164683 -2.02615,-2.463695 -0.77921,-0.299013 -2.34949,-2.371981 -3.48951,-4.606596 -2.57777,-5.0528635 -1.51972,-7.662082 3.48798,-8.6015322 4.05326,-0.7603955 7.38283,-0.085349 13.13889,2.6638157 4.84781,2.3153735 6.89039,6.2198565 6.0294,11.5254965 -1.3639,8.404702 -6.02839,10.539403 -12.87041,5.89013 z m 0.69654,-15.012417 c 0,-1.6380405 -0.76917,-2.0556515 -4.25,-2.3074985 -3.67786,-0.2661023 -4.25,-0.03988 -4.25,1.680449 0,1.2613995 0.82232,2.1526295 2.25,2.4385425 4.2528,0.851684 6.25,0.272818 6.25,-1.811493 z"
     style="fill:#800000" />
</svg>
