<?xml version="1.0" encoding="UTF-8" standalone="no"?>
<!-- Created with Inkscape (http://www.inkscape.org/) -->
<svg id="svg2985" xmlns:rdf="http://www.w3.org/1999/02/22-rdf-syntax-ns#" xmlns="http://www.w3.org/2000/svg" height="126.36" width="195.56" version="1.1" xmlns:cc="http://creativecommons.org/ns#" xmlns:dc="http://purl.org/dc/elements/1.1/">
 <metadata id="metadata2991">
  <rdf:RDF>
   <cc:Work rdf:about="">
    <dc:format>image/svg+xml</dc:format>
    <dc:type rdf:resource="http://purl.org/dc/dcmitype/StillImage"/>
    <dc:title/>
   </cc:Work>
  </rdf:RDF>
 </metadata>
 <g id="g3792" transform="translate(-240.22 -160.58)">
  <path id="path3799" d="m240.5 274.68 0.28082-12.255h97.5 97.5v12 12l-97.781 0.25493-97.781 0.25493z" fill="#056598"/>
  <path id="path3797" d="m240.25 238.44v-12.5l10.75-0.006c19.555-0.0101 23.861-2.9574 29.218-19.994 4.5071-14.336 8.3785-21.343 16.032-29.018 11.136-11.167 24.92-16.528 42-16.335 11.776 0.13277 22.267 3.3829 32.17 9.9661 12.009 7.9834 18.555 17.239 24.338 34.411 6.3081 18.732 8.266 20.198 27.992 20.968l13 0.50762v12 12l-11.161 0.28192c-30.091 0.76008-46.27-10.228-50.929-34.59-6.9977-20.758-19.061-30.651-36.91-30.667-20.183 1.4963-31.084 13.082-34.089 28.629-6.6323 28.262-29.264 36.759-51.595 36.846h-10.816v-12.5z" fill="#059865"/>
  <path id="path3811" d="m-205.21 56.3c-12.156 5.3565-26.26-0.36724-31.504-12.784-5.2437-12.417 0.35951-26.825 12.515-32.182 12.156-5.3565 26.26 0.36724 31.504 12.784 5.1784 12.262-0.21738 26.502-12.129 32.007" fill-rule="evenodd" transform="matrix(1.0105 0 0 1.0105 554.96 188.02)" fill="#9a140c"/>
 </g>
</svg>
