<?xml version="1.0" encoding="UTF-8" standalone="no"?>
<!-- Created with Inkscape (http://www.inkscape.org/) -->

<svg
   xmlns:dc="http://purl.org/dc/elements/1.1/"
   xmlns:cc="http://creativecommons.org/ns#"
   xmlns:rdf="http://www.w3.org/1999/02/22-rdf-syntax-ns#"
   xmlns:svg="http://www.w3.org/2000/svg"
   xmlns="http://www.w3.org/2000/svg"
   xmlns:xlink="http://www.w3.org/1999/xlink"
   xmlns:sodipodi="http://sodipodi.sourceforge.net/DTD/sodipodi-0.dtd"
   xmlns:inkscape="http://www.inkscape.org/namespaces/inkscape"
   id="svg12792"
   sodipodi:docname="massif.svg"
   inkscape:export-filename="/home/joseluis/Desktop/SpiderOak/Design/GK/LogoI.png"
   viewBox="0 0 99.999943 99.999379"
   inkscape:export-xdpi="300.01001"
   version="1.1"
   inkscape:export-ydpi="300.01001"
   inkscape:version="0.92.1 r15371"
   width="106.6666"
   height="106.666">
  <defs
     id="defs12794">
    <radialGradient
       inkscape:collect="always"
       xlink:href="#linearGradient17583"
       id="radialGradient17589"
       cx="1332.7068"
       cy="-116.07687"
       fx="1332.7068"
       fy="-116.07687"
       r="286.18933"
       gradientTransform="matrix(-0.0589255,1.8652111,-2.0165094,-0.06370532,850.08237,-2500.946)"
       gradientUnits="userSpaceOnUse" />
    <linearGradient
       inkscape:collect="always"
       id="linearGradient17583">
      <stop
         style="stop-color:#808080;stop-opacity:1;"
         offset="0"
         id="stop17585" />
      <stop
         style="stop-color:#808080;stop-opacity:0;"
         offset="1"
         id="stop17587" />
    </linearGradient>
    <filter
       inkscape:collect="always"
       style="color-interpolation-filters:sRGB"
       id="filter17659"
       x="-0.035970315"
       width="1.0719405"
       y="-0.036029734"
       height="1.0720595">
      <feGaussianBlur
         inkscape:collect="always"
         stdDeviation="8.5786001"
         id="feGaussianBlur17661" />
    </filter>
  </defs>
  <sodipodi:namedview
     id="base"
     bordercolor="#666666"
     inkscape:pageshadow="2"
     inkscape:window-y="-8"
     fit-margin-left="0"
     pagecolor="#ffffff"
     fit-margin-top="0"
     inkscape:window-maximized="1"
     inkscape:zoom="1.883651"
     inkscape:window-x="-8"
     inkscape:window-height="1017"
     showgrid="false"
     borderopacity="1.0"
     inkscape:current-layer="g8529"
     inkscape:cx="240.99569"
     inkscape:cy="-38.109236"
     fit-margin-right="0"
     fit-margin-bottom="0"
     inkscape:window-width="1920"
     inkscape:pageopacity="0.0"
     inkscape:document-units="px" />
  <g
     id="layer1"
     inkscape:label="Layer 1"
     inkscape:groupmode="layer"
     transform="translate(-187.9,-527.14062)">
    <g
       id="g8529"
       transform="translate(-103.55607,-416.91781)">
      <path
         inkscape:connector-curvature="0"
         id="path3093-4"
         d="m 760.84225,275.97378 c -11.2971,-4.00843 -26.8238,-17.4746 -33.733,-29.25628 l -7.6575,-13.05766 -0.019,-239.9999953 c -0.01,-132.0000047 0.9639,-243.5121447 2.1651,-247.8047447 3.0309,-10.83038 18.0213,-27.16938 31.003,-33.79216 10.5069,-5.3602 18.9495,-5.54596 252.06445,-5.54596 265.0726,0 252.0181,-0.85447 269.4057,17.63382 17.7359,18.85882 16.6976,4.73361 17.6066,239.509045 0.4594,118.642864 -0.303,230.206905 -1.6942,247.920135 -2.3173,29.50455 -3.24,33.09923 -11.0009,42.85715 -4.6592,5.8582 -14.1336,13.54414 -21.054,17.07985 l -12.5827,6.42857 -240.1088,-0.22542 c -132.05995,-0.1242 -242.03755,-0.91 -244.39465,-1.74635 z"
         style="opacity:0.88399999;fill:url(#radialGradient17589);fill-opacity:1;fill-rule:nonzero;stroke:none;stroke-width:20;stroke-miterlimit:4;stroke-dasharray:none;stroke-opacity:1;filter:url(#filter17659)"
         transform="matrix(0.16302767,0,0,0.16318349,178.01472,995.45822)" />
      <path
         inkscape:connector-curvature="0"
         id="path3093"
         d="m 299.17731,1035.6747 c -1.81254,-0.6345 -4.30371,-2.766 -5.41224,-4.6309 l -1.22859,-2.0668 -0.003,-37.98887 c -0.002,-20.89387 0.15464,-38.54478 0.34738,-39.22425 0.48628,-1.7143 2.89139,-4.30055 4.97422,-5.34885 1.68575,-0.84845 3.04033,-0.87785 40.44207,-0.87785 42.52915,0 40.43464,-0.13526 43.22436,2.7912 2.84561,2.9851 2.67902,0.74927 2.82487,37.91115 0.0737,18.77957 -0.0486,36.43877 -0.27183,39.24247 -0.37179,4.6702 -0.51983,5.2392 -1.76502,6.7838 -0.74754,0.9272 -2.26764,2.1438 -3.37797,2.7035 l -2.01882,1.0175 -38.52387,-0.036 c -21.18814,-0.02 -38.83331,-0.144 -39.2115,-0.2764 z"
         style="fill:#9a140c;fill-opacity:1;fill-rule:nonzero;stroke:#ffffff;stroke-width:3.18723011;stroke-miterlimit:4;stroke-dasharray:none;stroke-opacity:1" />
      <path
         style="opacity:1;fill:#059865;fill-opacity:1;fill-rule:evenodd;stroke:#000000;stroke-width:0.29860017;stroke-miterlimit:4;stroke-dasharray:none;stroke-dashoffset:0;stroke-opacity:1"
         d="m 299.95765,1009.511 c 0.22108,-0.3745 1.05933,-1.4936 1.40809,-1.8801 0.17762,-0.1968 0.32296,-0.4336 0.32296,-0.526 0,-0.091 0.24914,-0.4006 0.55364,-0.6851 0.30452,-0.2845 0.55365,-0.594 0.55365,-0.6878 0,-0.094 0.20762,-0.3657 0.46137,-0.6041 0.25377,-0.2383 0.46138,-0.5312 0.46138,-0.6506 0,-0.1191 0.22928,-0.458 0.50952,-0.7522 0.28023,-0.2942 0.71224,-0.8256 0.96,-1.1808 0.24774,-0.3554 0.49646,-0.6875 0.55268,-0.7382 0.29784,-0.2689 1.11513,-1.4796 1.11513,-1.6519 0,-0.1104 0.2699,-0.47323 0.59978,-0.80702 0.68134,-0.68944 0.8693,-0.92418 1.874,-2.33938 0.39632,-0.55825 0.79079,-1.04271 0.87662,-1.07656 0.0858,-0.0335 0.15603,-0.16083 0.15603,-0.28223 0,-0.12151 0.16609,-0.34037 0.36908,-0.48669 0.20302,-0.14632 0.36922,-0.35154 0.36934,-0.45594 1.2e-4,-0.1042 0.19859,-0.42062 0.44103,-0.70258 0.24244,-0.28186 0.63683,-0.80029 0.87639,-1.15208 0.23957,-0.35191 0.49786,-0.64021 0.57398,-0.64095 0.0761,0 0.1384,-0.13405 0.1384,-0.29624 0,-0.16232 0.22839,-0.51782 0.50752,-0.79001 0.27912,-0.27217 0.59056,-0.62532 0.69206,-0.78465 0.18822,-0.29561 1.21558,-1.68639 1.62121,-2.19466 0.20169,-0.25272 1.68272,-2.20992 2.02125,-2.67095 0.0748,-0.10172 0.42773,-0.58057 0.78433,-1.06354 0.35657,-0.48299 0.64832,-0.92281 0.64832,-0.97725 0,-0.0546 0.20382,-0.30293 0.45297,-0.55204 0.49402,-0.49401 1.02341,-0.59928 1.02341,-0.2036 0,0.13726 0.24914,0.51025 0.55363,0.82881 0.30451,0.31867 0.55366,0.66315 0.55366,0.76556 0,0.10291 0.0622,0.18638 0.13842,0.1865 0.0761,1.3e-4 0.4706,0.49836 0.87659,1.10707 0.40602,0.60871 0.80049,1.10694 0.87662,1.10706 0.0761,1.3e-4 0.13841,0.0843 0.13841,0.18651 0,0.10289 0.24914,0.44689 0.55364,0.76543 0.30451,0.31869 0.55366,0.69168 0.55366,0.82894 0,0.13714 0.0651,0.24937 0.14475,0.24937 0.0797,0 0.30415,0.26981 0.49898,0.59965 0.19481,0.32984 0.54491,0.79037 0.77798,1.02337 0.23308,0.23312 0.42377,0.49935 0.42377,0.5916 0,0.0918 0.19675,0.36443 0.43721,0.60499 0.24048,0.24043 0.66675,0.78405 0.94728,1.20788 0.28052,0.42396 0.58207,0.77078 0.67008,0.77078 0.0881,0 0.16002,0.11284 0.16002,0.24949 0,0.13714 0.24914,0.51012 0.55363,0.82881 0.30451,0.31855 0.55377,0.64231 0.55389,0.71944 1.2e-4,0.0769 0.19858,0.37063 0.44103,0.65262 0.24245,0.28184 0.63681,0.80041 0.87638,1.15219 0.23958,0.35166 0.49786,0.64009 0.57399,0.64083 0.0761,0 0.13841,0.11036 0.13841,0.24353 0,0.1333 0.24914,0.48099 0.55365,0.77277 0.30451,0.29165 0.55365,0.59866 0.55365,0.68212 0,0.0831 0.24914,0.41242 0.55363,0.73095 0.30452,0.3187 0.55366,0.6387 0.55366,0.7112 0,0.072 0.22837,0.4205 0.5075,0.7733 0.27914,0.3526 0.67256,0.8623 0.87429,1.1325 0.43862,0.5876 0.66253,0.6146 1.01735,0.1229 0.14631,-0.2031 0.34038,-0.3693 0.43124,-0.3693 0.20978,0 1.96294,-1.2641 2.35864,-1.7006 0.16414,-0.1812 0.37687,-0.3294 0.47271,-0.3294 0.0958,0 0.33523,-0.1476 0.53199,-0.3279 0.19677,-0.1804 0.62766,-0.51834 0.95756,-0.75084 0.94452,-0.66576 0.85215,-0.95145 -0.98021,-3.03067 -0.24753,-0.28086 -0.45005,-0.5766 -0.45005,-0.6572 0,-0.0806 -0.14533,-0.30764 -0.32298,-0.50455 -0.17762,-0.19679 -0.5677,-0.68993 -0.86685,-1.0959 -0.29914,-0.40598 -0.5981,-0.77959 -0.66437,-0.83031 -0.0662,-0.0508 -0.15371,-0.18351 -0.19432,-0.29487 -0.0721,-0.19765 -0.85427,-1.18195 -1.8702,-2.35312 -0.27751,-0.31993 -0.50589,-0.66998 -0.50751,-0.77773 -10e-4,-0.10789 -0.25209,-0.43486 -0.5566,-0.72663 -0.3045,-0.29178 -0.55364,-0.60611 -0.55364,-0.69874 0,-0.093 -0.24914,-0.40089 -0.55365,-0.68535 -0.3045,-0.28445 -0.55364,-0.5766 -0.55364,-0.64913 0,-0.0719 -0.29067,-0.52786 -0.64593,-1.01184 -0.62444,-0.85064 -0.7955,-1.28749 -0.50752,-1.29592 0.0761,0 0.38757,-0.37571 0.69207,-0.83004 0.30451,-0.45434 0.61593,-0.82622 0.69205,-0.82646 0.0761,-2.5e-4 0.13841,-0.11284 0.13841,-0.24986 0,-0.13714 0.23046,-0.49054 0.51211,-0.78528 0.28167,-0.29475 0.92498,-1.11675 1.4296,-1.82676 1.01955,-1.43443 1.20914,-1.6771 2.06796,-2.64776 0.32753,-0.37027 0.59743,-0.73904 0.59977,-0.81964 0.002,-0.0806 0.21191,-0.37025 0.46566,-0.64406 0.25376,-0.27354 0.46139,-0.56133 0.46139,-0.63945 0,-0.0781 0.24913,-0.40263 0.55363,-0.7213 0.30451,-0.31869 0.55365,-0.65286 0.55365,-0.74263 0,-0.0892 0.29067,-0.4541 0.64592,-0.80934 0.35526,-0.35527 0.64611,-0.70544 0.64636,-0.7781 2.3e-4,-0.0732 0.24918,-0.42296 0.55321,-0.77823 0.30403,-0.35525 0.55297,-0.7192 0.55321,-0.80885 2e-4,-0.0892 0.14846,-0.29722 0.32941,-0.4614 0.18093,-0.16417 0.72036,-0.82521 1.19875,-1.46901 0.71932,-0.96819 0.89166,-1.11178 0.9962,-0.83055 0.0695,0.18712 0.27751,0.47455 0.46219,0.63871 0.18467,0.16406 0.33577,0.37263 0.33577,0.46314 0,0.0905 0.18685,0.37164 0.41523,0.62434 0.22838,0.25272 0.62286,0.77028 0.8766,1.15034 0.25377,0.37994 0.52366,0.6913 0.59978,0.69205 0.0761,0 0.13842,0.0955 0.13842,0.2103 0,0.11531 0.15304,0.34335 0.34009,0.50753 0.18706,0.16405 0.55183,0.63065 0.81062,1.03664 0.25879,0.40596 0.64555,0.92156 0.85947,1.14574 0.21393,0.22407 0.38896,0.45322 0.38896,0.50914 0,0.0557 0.24915,0.36233 0.55365,0.68101 0.3045,0.31868 0.55364,0.69154 0.55364,0.82882 0,0.13713 0.0651,0.24947 0.14477,0.24947 0.0795,0 0.30416,0.26983 0.49896,0.59955 0.19482,0.32983 0.54492,0.79036 0.77799,1.02349 0.23308,0.23299 0.42378,0.49921 0.42378,0.59147 0,0.0917 0.20761,0.37547 0.46136,0.62917 0.25377,0.2537 0.46138,0.54127 0.46138,0.63897 0,0.0979 0.0702,0.20522 0.15602,0.23908 0.0858,0.0335 0.47773,0.51819 0.87088,1.07655 0.39316,0.55824 0.86275,1.14922 1.04354,1.3134 0.18077,0.16418 0.32869,0.35589 0.32869,0.42607 0,0.0707 0.23739,0.43411 0.52754,0.80884 0.29014,0.3746 1.0143,1.34565 1.60923,2.15759 0.59495,0.81207 1.22955,1.61075 1.41024,1.77492 0.18068,0.16418 0.32852,0.37759 0.32852,0.4743 0,0.0968 0.29067,0.51534 0.64592,0.93036 0.35527,0.41504 0.64592,0.81195 0.64592,0.88202 0,0.0694 0.24915,0.35996 0.55365,0.64442 0.30452,0.28445 0.55365,0.61218 0.55365,0.72837 0,0.11656 0.20761,0.41874 0.46136,0.67256 0.25377,0.25371 0.46138,0.52502 0.46138,0.60278 0,0.0781 0.1476,0.3023 0.32798,0.49909 0.18039,0.19679 0.53215,0.64839 0.7817,1.00365 0.47281,0.67306 0.87453,1.18568 1.20948,1.54304 0.10825,0.11533 0.35496,0.4593 0.54823,0.76384 0.55441,0.87345 1.42405,1.98039 1.97702,2.51657 0.27914,0.27057 0.50751,0.62479 0.50751,0.78699 0,0.1624 0.0622,0.2986 0.13841,0.303 0.0761,0 0.51213,0.5523 0.96888,1.2177 0.45677,0.6653 0.99742,1.3884 1.20148,1.6068 0.20405,0.2186 0.78057,0.9785 1.28115,1.689 0.50058,0.7106 1.06029,1.4261 1.24381,1.5904 0.1835,0.1641 0.33364,0.3803 0.33364,0.4801 0,0.1 0.23381,0.4265 0.51958,0.7254 0.28576,0.2991 0.57526,0.6643 0.64332,0.8116 0.068,0.1475 0.2596,0.4551 0.42567,0.6833 l 0.30194,0.4153 H 338.241 c -30.68529,0 -38.39214,-0.046 -38.28335,-0.2307 z"
         id="path4538"
         inkscape:connector-curvature="0" />
    </g>
  </g>
  <metadata
     id="metadata7680">
    <rdf:RDF>
      <cc:Work>
        <dc:format>image/svg+xml</dc:format>
        <dc:type
           rdf:resource="http://purl.org/dc/dcmitype/StillImage" />
        <cc:license
           rdf:resource="http://creativecommons.org/publicdomain/zero/1.0/" />
        <dc:publisher>
          <cc:Agent
             rdf:about="http://openclipart.org/">
            <dc:title>Openclipart</dc:title>
          </cc:Agent>
        </dc:publisher>
        <dc:title></dc:title>
        <dc:date>2012-02-15T13:25:42</dc:date>
        <dc:description />
        <dc:source>https://openclipart.org/detail/168263/volcano-mountain-by-josephluis</dc:source>
        <dc:creator>
          <cc:Agent>
            <dc:title>josephluis</dc:title>
          </cc:Agent>
        </dc:creator>
        <dc:subject>
          <rdf:Bag>
            <rdf:li>lava</rdf:li>
            <rdf:li>mountain</rdf:li>
            <rdf:li>volcano</rdf:li>
          </rdf:Bag>
        </dc:subject>
      </cc:Work>
      <cc:License
         rdf:about="http://creativecommons.org/publicdomain/zero/1.0/">
        <cc:permits
           rdf:resource="http://creativecommons.org/ns#Reproduction" />
        <cc:permits
           rdf:resource="http://creativecommons.org/ns#Distribution" />
        <cc:permits
           rdf:resource="http://creativecommons.org/ns#DerivativeWorks" />
      </cc:License>
    </rdf:RDF>
  </metadata>
</svg>
