<?xml version="1.0" encoding="UTF-8" standalone="no"?>
<!-- Created with Inkscape (http://www.inkscape.org/) -->

<svg
   xmlns:a="http://ns.adobe.com/AdobeSVGViewerExtensions/3.0/"
   xmlns:dc="http://purl.org/dc/elements/1.1/"
   xmlns:cc="http://creativecommons.org/ns#"
   xmlns:rdf="http://www.w3.org/1999/02/22-rdf-syntax-ns#"
   xmlns:svg="http://www.w3.org/2000/svg"
   xmlns="http://www.w3.org/2000/svg"
   xmlns:xlink="http://www.w3.org/1999/xlink"
   xmlns:sodipodi="http://sodipodi.sourceforge.net/DTD/sodipodi-0.dtd"
   xmlns:inkscape="http://www.inkscape.org/namespaces/inkscape"
   width="100"
   height="100"
   id="svg7094"
   version="1.1"
   inkscape:version="0.91pre4 r13712"
   sodipodi:docname="precise-coordonates.svg"
   inkscape:export-filename="C:\Users\urien\Dropbox\icones FLAT\precise-coordonates.png"
   inkscape:export-xdpi="10.08"
   inkscape:export-ydpi="10.08">
  <defs
     id="defs7096">
    <linearGradient
       gradientTransform="matrix(0.9543562,0,0,0.9543562,-0.00886922,7.441347)"
       gradientUnits="userSpaceOnUse"
       y2="181.69441"
       x2="10.120342"
       y1="181.69441"
       x1="-11.372747"
       id="linearGradient3396"
       xlink:href="#linearGradient3355"
       inkscape:collect="always" />
    <linearGradient
       id="linearGradient3355">
      <stop
         id="stop3357"
         offset="0"
         style="stop-color:#2c0000;stop-opacity:1;" />
      <stop
         id="stop3359"
         offset="1"
         style="stop-color:#b7b7b7;stop-opacity:1;" />
    </linearGradient>
    <linearGradient
       gradientTransform="matrix(0.9543562,0,0,0.9543562,-0.00886922,7.441347)"
       gradientUnits="userSpaceOnUse"
       y2="181.69441"
       x2="44.460838"
       y1="181.69441"
       x1="-11.372747"
       id="linearGradient3404"
       xlink:href="#linearGradient3355"
       inkscape:collect="always" />
    <linearGradient
       id="linearGradient6955">
      <stop
         id="stop6957"
         offset="0"
         style="stop-color:#2c0000;stop-opacity:1;" />
      <stop
         id="stop6959"
         offset="1"
         style="stop-color:#b7b7b7;stop-opacity:1;" />
    </linearGradient>
    <linearGradient
       gradientTransform="matrix(0.9543557,0,0,0.9543562,5.2555551,5.2681)"
       gradientUnits="userSpaceOnUse"
       y2="167.07732"
       x2="192.57306"
       y1="195.20656"
       x1="164.44382"
       id="linearGradient3349"
       xlink:href="#linearGradient3343"
       inkscape:collect="always" />
    <linearGradient
       id="linearGradient3343">
      <stop
         id="stop3345"
         offset="0"
         style="stop-color:#2a0000;stop-opacity:1;" />
      <stop
         style="stop-color:#6b1d07;stop-opacity:1;"
         offset="0.5"
         id="stop3384" />
      <stop
         id="stop3347"
         offset="1"
         style="stop-color:#c04a20;stop-opacity:1;" />
    </linearGradient>
    <linearGradient
       gradientTransform="matrix(0.9543557,0,0,0.9543562,5.2555551,5.2681)"
       gradientUnits="userSpaceOnUse"
       y2="149.4189"
       x2="176.04047"
       y1="175.13809"
       x1="150.32127"
       id="linearGradient3324"
       xlink:href="#linearGradient3318"
       inkscape:collect="always" />
    <linearGradient
       id="linearGradient3318">
      <stop
         id="stop3320"
         offset="0"
         style="stop-color:#000000;stop-opacity:1;" />
      <stop
         id="stop3322"
         offset="1"
         style="stop-color:#721700;stop-opacity:1;" />
    </linearGradient>
    <linearGradient
       gradientTransform="matrix(0.9543558,0,0,0.9543562,5.2555556,5.2681003)"
       y2="2.5005"
       y1="146.4561"
       x2="74.477997"
       x1="74.477997"
       id="XMLID_1_"
       gradientUnits="userSpaceOnUse">
      <stop
         id="stop18"
         style="stop-color:#FFFFFF"
         offset="0" />
      <stop
         id="stop20"
         style="stop-color:#b8d2dd;stop-opacity:1;"
         offset="1" />
      <a:midPointStop
         style="stop-color:#FFFFFF"
         offset="0" />
      <a:midPointStop
         style="stop-color:#FFFFFF"
         offset="0.5" />
      <a:midPointStop
         style="stop-color:#8DB7C8"
         offset="1" />
    </linearGradient>
    <radialGradient
       gradientTransform="matrix(0.9543558,0,0,0.9543562,5.2555556,5.2681003)"
       gradientUnits="userSpaceOnUse"
       r="71.977997"
       fy="74.477997"
       fx="74.477997"
       cy="74.477997"
       cx="74.477997"
       id="radialGradient3267"
       xlink:href="#linearGradient3269"
       inkscape:collect="always" />
    <linearGradient
       gradientUnits="userSpaceOnUse"
       id="linearGradient3269"
       x1="74.477997"
       x2="74.477997"
       y1="146.4561"
       y2="2.5005">
      <stop
         offset="0"
         style="stop-color:#ffffff;stop-opacity:0;"
         id="stop3271" />
      <stop
         id="stop3275"
         style="stop-color:#ffffff;stop-opacity:0;"
         offset="0.36170211" />
      <stop
         offset="1"
         style="stop-color:#294a56;stop-opacity:1;"
         id="stop3273" />
      <a:midPointStop
         offset="0"
         style="stop-color:#FFFFFF" />
      <a:midPointStop
         offset="0.5"
         style="stop-color:#FFFFFF" />
      <a:midPointStop
         offset="1"
         style="stop-color:#8DB7C8" />
    </linearGradient>
    <linearGradient
       gradientTransform="matrix(1.0460278,0,0,1,-3.4509596,0)"
       y2="7.8955002"
       x2="74.976097"
       y1="77.523903"
       x1="74.976097"
       gradientUnits="userSpaceOnUse"
       id="linearGradient3293"
       xlink:href="#XMLID_2_"
       inkscape:collect="always" />
    <linearGradient
       y2="7.8955002"
       y1="77.523903"
       x2="74.976097"
       x1="74.976097"
       id="XMLID_2_"
       gradientUnits="userSpaceOnUse">
      <stop
         id="stop27"
         style="stop-color:#ffffff;stop-opacity:1;"
         offset="0" />
      <stop
         id="stop29"
         style="stop-color:#FCFDFE"
         offset="0.2414" />
      <stop
         id="stop31"
         style="stop-color:#F2F7F9"
         offset="0.4222" />
      <stop
         id="stop33"
         style="stop-color:#E2EDF1"
         offset="0.5833" />
      <stop
         id="stop35"
         style="stop-color:#CCDEE6"
         offset="0.7329" />
      <stop
         id="stop37"
         style="stop-color:#AECCD8"
         offset="0.8733" />
      <stop
         id="stop39"
         style="stop-color:#8DB7C8"
         offset="1" />
      <a:midPointStop
         style="stop-color:#FFFFFF"
         offset="0" />
      <a:midPointStop
         style="stop-color:#FFFFFF"
         offset="0.7627" />
      <a:midPointStop
         style="stop-color:#8DB7C8"
         offset="1" />
    </linearGradient>
    <linearGradient
       gradientUnits="userSpaceOnUse"
       y2="-2"
       x2="74.484375"
       y1="150.96875"
       x1="74.484375"
       id="linearGradient3361"
       xlink:href="#linearGradient3355"
       inkscape:collect="always" />
    <linearGradient
       id="linearGradient6990">
      <stop
         id="stop6992"
         offset="0"
         style="stop-color:#2c0000;stop-opacity:1;" />
      <stop
         id="stop6994"
         offset="1"
         style="stop-color:#b7b7b7;stop-opacity:1;" />
    </linearGradient>
    <linearGradient
       id="linearGradient5541-5">
      <stop
         id="stop5543-1"
         offset="0"
         style="stop-color: rgb(254, 255, 229); stop-opacity: 1;" />
      <stop
         style="stop-color: rgb(255, 249, 140); stop-opacity: 1;"
         offset="0.34513274"
         id="stop5551-7" />
      <stop
         id="stop5545-1"
         offset="1"
         style="stop-color: rgb(255, 244, 26); stop-opacity: 1;" />
    </linearGradient>
    <linearGradient
       id="linearGradient7210-4">
      <stop
         id="stop7212-8"
         offset="0"
         style="stop-color: rgb(41, 221, 27); stop-opacity: 1;" />
      <stop
         id="stop7214-8"
         offset="1.0000000"
         style="stop-color: rgb(150, 242, 143); stop-opacity: 1;" />
    </linearGradient>
    <linearGradient
       id="linearGradient2764-7">
      <stop
         id="stop2766-4"
         offset="0"
         style="stop-color: rgb(55, 146, 179); stop-opacity: 1;" />
      <stop
         id="stop2768-0"
         offset="1.0000000"
         style="stop-color: rgb(255, 255, 255); stop-opacity: 1;" />
    </linearGradient>
    <radialGradient
       r="155.9536"
       fy="666.49115"
       fx="1189.6907"
       cy="666.49115"
       cx="1189.6907"
       gradientTransform="matrix(1,0,0,0.30922882,606.22046,457.78061)"
       gradientUnits="userSpaceOnUse"
       id="radialGradient3798"
       xlink:href="#linearGradient6932-7"
       inkscape:collect="always" />
    <linearGradient
       inkscape:collect="always"
       id="linearGradient6932-7">
      <stop
         style="stop-color:#00b400;stop-opacity:1;"
         offset="0"
         id="stop6934-6" />
      <stop
         style="stop-color:#00b400;stop-opacity:0;"
         offset="1"
         id="stop6936-1" />
    </linearGradient>
    <inkscape:path-effect
       effect="spiro"
       id="path-effect6804-4"
       is_visible="true" />
    <radialGradient
       r="155.9536"
       fy="666.49115"
       fx="1189.6907"
       cy="666.49115"
       cx="1189.6907"
       gradientTransform="matrix(1,0,0,0.30922882,-701.11385,252.44029)"
       gradientUnits="userSpaceOnUse"
       id="radialGradient7092"
       xlink:href="#linearGradient6932-7"
       inkscape:collect="always" />
    <radialGradient
       inkscape:collect="always"
       xlink:href="#linearGradient17583"
       id="radialGradient17589"
       cx="1332.7068"
       cy="-116.07687"
       fx="1332.7068"
       fy="-116.07687"
       r="286.18933"
       gradientTransform="matrix(-0.0589255,1.8652111,-2.0165094,-0.06370532,850.08237,-2500.946)"
       gradientUnits="userSpaceOnUse" />
    <linearGradient
       inkscape:collect="always"
       id="linearGradient17583">
      <stop
         style="stop-color:#808080;stop-opacity:1;"
         offset="0"
         id="stop17585" />
      <stop
         style="stop-color:#808080;stop-opacity:0;"
         offset="1"
         id="stop17587" />
    </linearGradient>
    <filter
       inkscape:collect="always"
       style="color-interpolation-filters:sRGB"
       id="filter17659"
       x="-0.035970315"
       width="1.0719405"
       y="-0.036029734"
       height="1.0720595">
      <feGaussianBlur
         inkscape:collect="always"
         stdDeviation="8.5786001"
         id="feGaussianBlur17661" />
    </filter>
  </defs>
  <sodipodi:namedview
     id="base"
     pagecolor="#ffffff"
     bordercolor="#666666"
     borderopacity="1.0"
     inkscape:pageopacity="0.0"
     inkscape:pageshadow="2"
     inkscape:zoom="1.050338"
     inkscape:cx="324.07554"
     inkscape:cy="268.98079"
     inkscape:document-units="px"
     inkscape:current-layer="layer1"
     showgrid="false"
     inkscape:window-width="1920"
     inkscape:window-height="1017"
     inkscape:window-x="-8"
     inkscape:window-y="-8"
     inkscape:window-maximized="1"
     units="px" />
  <metadata
     id="metadata7099">
    <rdf:RDF>
      <cc:Work
         rdf:about="">
        <dc:format>image/svg+xml</dc:format>
        <dc:type
           rdf:resource="http://purl.org/dc/dcmitype/StillImage" />
        <dc:title></dc:title>
      </cc:Work>
    </rdf:RDF>
  </metadata>
  <g
     inkscape:label="Calque 1"
     inkscape:groupmode="layer"
     id="layer1"
     transform="translate(0,-952.36216)">
    <g
       id="g22659"
       transform="translate(-237.19556,540.42695)">
      <path
         inkscape:connector-curvature="0"
         id="path3093-4"
         d="m 760.84225,275.97378 c -11.2971,-4.00843 -26.8238,-17.4746 -33.733,-29.25628 l -7.6575,-13.05766 -0.019,-239.9999953 c -0.01,-132.0000047 0.9639,-243.5121447 2.1651,-247.8047447 3.0309,-10.83038 18.0213,-27.16938 31.003,-33.79216 10.5069,-5.3602 18.9495,-5.54596 252.06445,-5.54596 265.0726,0 252.0181,-0.85447 269.4057,17.63382 17.7359,18.85882 16.6976,4.73361 17.6066,239.509045 0.4594,118.642864 -0.303,230.206905 -1.6942,247.920135 -2.3173,29.50455 -3.24,33.09923 -11.0009,42.85715 -4.6592,5.8582 -14.1336,13.54414 -21.054,17.07985 l -12.5827,6.42857 -240.1088,-0.22542 c -132.05995,-0.1242 -242.03755,-0.91 -244.39465,-1.74635 z"
         style="opacity:0.88399999;fill:url(#radialGradient17589);fill-opacity:1;fill-rule:nonzero;stroke:none;stroke-width:20;stroke-miterlimit:4;stroke-dasharray:none;stroke-opacity:1;filter:url(#filter17659)"
         transform="matrix(0.14960915,0,0,0.14995458,140.84748,467.16969)" />
      <path
         inkscape:connector-curvature="0"
         id="path4068"
         d="m 242.70379,503.02002 c -1.81937,-0.94751 -3.27596,-2.34771 -4.4979,-4.32374 l -0.9993,-1.61597 -0.005,-39.05462 -0.005,-39.05463 1.21698,-2.06758 c 2.24437,-3.81311 3.36212,-4.29991 10.713,-4.66572 8.21136,-0.40862 60.50269,-0.40327 68.36804,0.007 6.83775,0.35667 8.04477,0.90505 10.25416,4.65872 l 1.21699,2.06759 0,38.59516 c 0,21.22734 -0.16009,39.16895 -0.35578,39.87027 -0.43548,1.56077 -3.24764,4.75041 -4.9784,5.64663 -1.07741,0.5579 -7.30041,0.65901 -40.41291,0.65662 -34.56482,-0.003 -39.30029,-0.0866 -40.51594,-0.71973 z"
         style="fill:#008000;fill-opacity:1;fill-rule:nonzero;stroke:none;stroke-width:10;stroke-miterlimit:4;stroke-dasharray:none;stroke-opacity:1" />
      <path
         sodipodi:nodetypes="ssscsssssssssscssscccccccsssscssssscssscccccccs"
         inkscape:connector-curvature="0"
         id="path13886-0"
         d="m 278.827,467.17015 c -1.703,-1.75091 -2.06937,-2.85247 -1.062,-3.19307 0.24528,-0.0829 1.74761,1.17683 3.33852,2.79947 l 2.89253,2.95025 -0.20144,1.72704 c -0.24531,2.10311 0.35415,2.90477 2.17208,2.90477 1.34607,0 4.1042,-1.27322 5.95048,-2.7469 0.66122,-0.52779 1.37611,-1.06444 1.58866,-1.1926 0.40911,-0.24665 3.43242,0.65788 4.17303,1.24852 0.72603,0.57903 0.93642,-0.0577 0.35318,-1.06898 -0.30083,-0.52159 -0.70171,-1.52361 -0.89082,-2.22668 -0.32145,-1.19518 -0.25356,-1.39937 1.04362,-3.13888 2.48514,-3.33263 3.41035,-6.45491 2.3112,-7.79966 -0.38492,-0.47091 -0.85373,-0.5563 -2.25091,-0.40988 l -1.7647,0.18494 -3.01125,-3.07177 c -2.85157,-2.90887 -3.33084,-3.84285 -1.9719,-3.84285 0.31352,0 1.34773,0.77965 2.29825,1.73257 l 1.72824,1.73259 13.52324,-13.63154 13.52324,-13.63151 -5.2767,-5.3662 -5.27672,-5.36619 -13.48054,13.68444 -13.48054,13.68445 1.89825,1.94774 c 1.33938,1.37429 1.83297,2.12046 1.67654,2.53439 -0.12195,0.32267 -0.40204,0.58667 -0.62238,0.58667 -0.22038,0 -1.62762,-1.25315 -3.1272,-2.78476 l -2.72653,-2.78478 -0.96948,0.94311 c -0.85965,0.83623 -1.05167,0.89098 -1.69485,0.48314 -0.67588,-0.42858 -1.00547,-0.17555 -4.83133,3.7091 -3.84498,3.90409 -4.07682,4.21646 -3.64747,4.91451 0.40783,0.66309 0.3607,0.84473 -0.42664,1.64417 l -0.88514,0.89874 2.69343,2.82067 c 1.48139,1.55137 2.69342,3.03154 2.69342,3.28929 0,1.05459 -1.61826,0.42042 -3.26872,-1.28099 l -1.6972,-1.74959 -13.48791,13.69191 -13.48791,13.69192 5.23408,5.32282 5.23406,5.32282 13.48013,-13.68401 13.48013,-13.68402 z"
         style="fill:#ffffff;fill-opacity:1" />
      <path
         sodipodi:nodetypes="ssccsccssss"
         inkscape:connector-curvature="0"
         id="path13886-07"
         d="m 278.05765,461.27804 c -3.03688,-2.98559 -5.5216,-5.58355 -5.5216,-5.77325 0,-0.18969 0.37088,-0.68699 0.82417,-1.10512 0.77167,-0.71176 0.78952,-0.79778 0.27993,-1.35063 -0.51478,-0.55849 -0.37305,-0.761 2.6163,-3.73925 3.03757,-3.02627 3.18491,-3.12715 3.78635,-2.59273 0.59531,0.52894 0.66353,0.51661 1.40006,-0.25316 0.42586,-0.44503 0.9356,-0.8092 1.13276,-0.8092 0.45021,0 11.40166,10.73958 11.40166,11.18108 0,0.42287 -9.63719,9.87055 -10.06852,9.87055 -0.18122,0 -2.81423,-2.44272 -5.85111,-5.42829 z"
         style="fill:#008000" />
      <path
         sodipodi:nodetypes="scsssssscscss"
         inkscape:connector-curvature="0"
         id="path13886"
         d="m 285.42283,472.2542 c -0.55031,-0.67316 -0.003,-2.51138 1.42274,-4.77306 3.19395,-5.06898 10.28957,-10.21348 11.87169,-8.60727 0.67087,0.68107 0.3348,2.14565 -1.02967,4.48728 -1.21456,2.08436 -2.07375,2.49507 -2.40622,1.15027 -0.10509,-0.42509 -0.38177,-0.77291 -0.61484,-0.77291 -0.51688,0 -0.52882,0.34527 -0.0662,1.9128 0.33413,1.13223 0.30527,1.26472 -0.44063,2.02196 -0.7459,0.75725 -0.87638,0.78656 -1.99166,0.44732 -0.65638,-0.19965 -1.34885,-0.36302 -1.53878,-0.36302 -0.62457,0 -0.36046,0.62457 0.416,0.98376 1.02184,0.47267 0.95861,0.99895 -0.22841,1.90105 -2.28367,1.73549 -4.70214,2.45818 -5.39401,1.61182 z"
         style="fill:#008000" />
      <path
         sodipodi:nodetypes="csscc"
         inkscape:connector-curvature="0"
         id="path13886-8"
         d="m 246.65268,485.66982 c 0,-0.58651 5.41356,-6.5919 5.94227,-6.5919 0.52748,0 7.00376,7.22325 7.00376,7.81159 0,0.58652 -5.41352,6.59191 -5.94224,6.59191 -1.45182,-1.36373 -6.72969,-6.28362 -7.00379,-7.8116 z"
         style="fill:#008000" />
      <path
         sodipodi:nodetypes="csscc"
         inkscape:connector-curvature="0"
         id="path13886-8-6"
         d="m 254.38916,478.01291 c 0,-0.58651 5.41353,-6.59192 5.94225,-6.59192 0.52749,0 7.00379,7.22326 7.00379,7.81161 0,0.58651 -5.41355,6.5919 -5.94226,6.5919 -1.45183,-1.36374 -6.72971,-6.28362 -7.00378,-7.81159 z"
         style="fill:#008000" />
      <path
         sodipodi:nodetypes="csscc"
         inkscape:connector-curvature="0"
         id="path13886-8-9"
         d="m 262.35697,469.74285 c 0,-0.58651 5.41354,-6.59191 5.94225,-6.59191 0.5275,0 7.00379,7.22325 7.00379,7.81159 0,0.58651 -5.41354,6.59192 -5.94227,6.59192 -1.4518,-1.36374 -6.72968,-6.28362 -7.00377,-7.8116 z"
         style="fill:#008000" />
      <path
         sodipodi:nodetypes="csscc"
         inkscape:connector-curvature="0"
         id="path13886-8-3"
         d="m 306.09142,425.33622 c 0,-0.5865 5.41354,-6.5919 5.94225,-6.5919 0.5275,0 7.00378,7.22326 7.00378,7.8116 0,0.58651 -5.41354,6.59192 -5.94225,6.59192 -1.45182,-1.36375 -6.72969,-6.28362 -7.00378,-7.81162 z"
         style="fill:#008000" />
      <path
         sodipodi:nodetypes="csscc"
         inkscape:connector-curvature="0"
         id="path13886-8-0"
         d="m 298.12361,433.6063 c 0,-0.58652 5.41353,-6.59192 5.94224,-6.59192 0.52751,0 7.00379,7.22326 7.00379,7.8116 0,0.58652 -5.41355,6.59191 -5.94226,6.59191 -1.45182,-1.36375 -6.7297,-6.28362 -7.00377,-7.81159 z"
         style="fill:#008000" />
      <path
         sodipodi:nodetypes="csscc"
         inkscape:connector-curvature="0"
         id="path13886-8-37"
         d="m 289.97873,441.337 c 0,-0.58651 5.41354,-6.59192 5.94225,-6.59192 0.52751,0 7.00379,7.22326 7.00379,7.8116 0,0.58652 -5.41354,6.59192 -5.94226,6.59192 -1.45182,-1.36374 -6.7297,-6.28363 -7.00378,-7.8116 z"
         style="fill:#008000" />
    </g>
  </g>
</svg>
