<?xml version="1.0" encoding="UTF-8" standalone="no"?>
<!-- Generator: Adobe Illustrator 16.0.0, SVG Export Plug-In . SVG Version: 6.00 Build 0)  -->

<svg
   xmlns:dc="http://purl.org/dc/elements/1.1/"
   xmlns:cc="http://creativecommons.org/ns#"
   xmlns:rdf="http://www.w3.org/1999/02/22-rdf-syntax-ns#"
   xmlns:svg="http://www.w3.org/2000/svg"
   xmlns="http://www.w3.org/2000/svg"
   xmlns:sodipodi="http://sodipodi.sourceforge.net/DTD/sodipodi-0.dtd"
   xmlns:inkscape="http://www.inkscape.org/namespaces/inkscape"
   version="1.1"
   id="Layer_1"
   x="0px"
   y="0px"
   width="100"
   height="100"
   viewBox="-28.364 -29.444 99.999997 100"
   enable-background="new -28.364 -29.444 42.324 42.822"
   xml:space="preserve"
   inkscape:version="0.91pre4 r13712"
   sodipodi:docname="rss.svg"><metadata
   id="metadata26205"><rdf:RDF><cc:Work
       rdf:about=""><dc:format>image/svg+xml</dc:format><dc:type
         rdf:resource="http://purl.org/dc/dcmitype/StillImage" /><dc:title></dc:title></cc:Work></rdf:RDF></metadata><defs
   id="defs26203" /><sodipodi:namedview
   pagecolor="#ffffff"
   bordercolor="#666666"
   borderopacity="1"
   objecttolerance="10"
   gridtolerance="10"
   guidetolerance="10"
   inkscape:pageopacity="0"
   inkscape:pageshadow="2"
   inkscape:window-width="1920"
   inkscape:window-height="1017"
   id="namedview26201"
   showgrid="false"
   inkscape:zoom="5.511186"
   inkscape:cx="21.162001"
   inkscape:cy="14.153033"
   inkscape:window-x="-8"
   inkscape:window-y="-8"
   inkscape:window-maximized="1"
   inkscape:current-layer="Layer_1" />

<g
   id="g26762"
   transform="translate(109.69678,-48.911304)"><rect
     style="opacity:0.88399999;fill:#ff6600;fill-opacity:1;fill-rule:nonzero;stroke:none"
     id="rect26192"
     width="100"
     height="100"
     x="-138.06078"
     y="19.467304"
     ry="13.370249"
     rx="13.131978" /><path
     style="fill:#ffffff"
     inkscape:connector-curvature="0"
     id="path26199"
     d="m -108.12907,101.24179 c 0,5.97308 -4.85745,10.83052 -10.8325,10.83052 -5.97505,0 -10.8325,-4.85744 -10.8325,-10.83052 0,-5.975051 4.85745,-10.832495 10.8325,-10.832495 5.97505,0 10.8325,4.859419 10.8325,10.832495 z m 61.904764,10.8325 C -46.060417,87.161125 -57.580064,62.477014 -76.881495,46.721911 -91.586126,34.446003 -110.62493,27.487615 -129.79407,27.552777 c 0,6.433152 0,12.899872 0,19.334997 22.6819,-0.262617 45.036011,12.078452 56.68598,31.57734 6.140915,10.040695 9.454246,21.791366 9.454246,33.575606 5.809187,0 11.62035,0 17.429538,0 l 0,0.0336 z m -29.539583,0 c 0.09675,-16.017722 -7.517192,-31.772824 -19.956988,-41.817467 -9.519403,-7.811403 -21.761743,-12.210747 -34.071213,-12.143612 0,5.416249 0,10.86409 0,16.280339 13.39153,-0.16389 26.52243,7.517192 32.922012,19.299457 3.117847,5.613705 4.76069,12.013293 4.76069,18.414853 5.447842,0 10.897659,0 16.345499,0 l 0,-0.0336 z" /></g></svg>