<?xml version="1.0" encoding="UTF-8" standalone="no"?>
<!-- Generator: Adobe Illustrator 16.0.0, SVG Export Plug-In . SVG Version: 6.00 Build 0)  -->

<svg
   xmlns:dc="http://purl.org/dc/elements/1.1/"
   xmlns:cc="http://creativecommons.org/ns#"
   xmlns:rdf="http://www.w3.org/1999/02/22-rdf-syntax-ns#"
   xmlns:svg="http://www.w3.org/2000/svg"
   xmlns="http://www.w3.org/2000/svg"
   xmlns:sodipodi="http://sodipodi.sourceforge.net/DTD/sodipodi-0.dtd"
   xmlns:inkscape="http://www.inkscape.org/namespaces/inkscape"
   version="1.1"
   id="Layer_1"
   x="0px"
   y="0px"
   width="100"
   height="100"
   viewBox="-0.25 -0.25 100 100"
   xml:space="preserve"
   inkscape:version="0.91pre4 r13712"
   sodipodi:docname="twitter.svg"><metadata
   id="metadata25650"><rdf:RDF><cc:Work
       rdf:about=""><dc:format>image/svg+xml</dc:format><dc:type
         rdf:resource="http://purl.org/dc/dcmitype/StillImage" /><dc:title></dc:title></cc:Work></rdf:RDF></metadata><defs
   id="defs25648" /><sodipodi:namedview
   pagecolor="#ffffff"
   bordercolor="#666666"
   borderopacity="1"
   objecttolerance="10"
   gridtolerance="10"
   guidetolerance="10"
   inkscape:pageopacity="0"
   inkscape:pageshadow="2"
   inkscape:window-width="1920"
   inkscape:window-height="1017"
   id="namedview25646"
   showgrid="false"
   inkscape:zoom="0.51"
   inkscape:cx="-356.35451"
   inkscape:cy="450.75"
   inkscape:window-x="-8"
   inkscape:window-y="-8"
   inkscape:window-maximized="1"
   inkscape:current-layer="Layer_1" />

<path
   style="fill:#ffffff;stroke:#ffffff;stroke-width:0.5"
   d="m 0,-402.5 0,-399 370.5,0 370.5,0 0,0.2 c 0,0.2 -4.333,0.966 -13,2.3 -8.666,1.333 -19.333,4.167 -32,8.5 -12.666,4.333 -26.5,10.667 -41.5,19 -15,8.333 -28.333,17.833 -40,28.5 -11.666,10.667 -21.166,21 -28.5,31 -7.333,10 -13.266,18.9 -17.8,26.7 -4.466,7.866 -9.033,18.3 -13.7,31.3 -4.666,13 -8.166,25.833 -10.5,38.5 -2.333,12.667 -3.5,26.5 -3.5,41.5 0,15 0.667,26.667 2,35 l 2,12.5 0.301,1.5 0.199,1.5 -7,-0.2 c -4.666,-0.2 -13.333,-0.966 -26,-2.3 -12.666,-1.333 -31.5,-4.333 -56.5,-9 -25,-4.667 -42.666,-8.5 -53,-11.5 -10.333,-3 -28.333,-9.333 -54,-19 -25.666,-9.667 -49.666,-20.5 -72,-32.5 -22.333,-12 -42.666,-24.167 -61,-36.5 -18.333,-12.333 -33.166,-23.167 -44.5,-32.5 -11.333,-9.333 -18,-15.233 -20,-17.7 -2,-2.533 -3.666,-4.066 -5,-4.6 -1.333,-0.467 -8.166,-6.867 -20.5,-19.2 -12.333,-12.333 -23,-23.5 -32,-33.5 l -13.5,-15 -0.199,-0.3 -0.301,-0.2 -0.5,-1 -0.5,-1 -0.3,-0.2 -0.2,-0.3 -0.199,-0.3 -0.301,-0.2 -0.3,-0.2 -0.2,-0.3 -0.199,-0.3 -0.301,-0.2 -0.3,0.2 -0.2,0.3 -0.199,0.3 -0.301,0.2 -0.5,1.5 -0.5,1.5 -8.5,19 c -5.666,12.667 -10,24.667 -13,36 -3,11.333 -5,21.5 -6,30.5 -1,9 -1.333,19.833 -1,32.5 0.334,12.667 1.834,25.5 4.5,38.5 2.667,13 6.567,25.9 11.7,38.7 5.2,12.866 10.134,23.466 14.8,31.8 4.667,8.333 10,16.167 16,23.5 6,7.333 12,14.333 18,21 6,6.667 11.733,12.1 17.2,16.3 5.533,4.134 8.4,6.267 8.601,6.4 l 0.199,0.3 1,0.5 1,0.5 0.2,0.3 0.3,0.2 0.301,0.2 0.199,0.3 1,0.5 1,0.5 0.2,0.3 0.3,0.2 0.301,0.2 0.199,0.3 0.2,0.3 0.3,0.2 0.301,0.2 0.199,0.3 -4.5,0 -4.5,0 -4.5,-0.5 c -3,-0.333 -12.166,-2.167 -27.5,-5.5 -15.333,-3.333 -28.166,-7.333 -38.5,-12 l -15.5,-7 -1,-0.5 -1,-0.5 -1,-0.5 -1,-0.5 -1,-0.3 -1,-0.2 1.801,21 c 1.133,14 3.533,27.833 7.199,41.5 3.667,13.667 9.167,28 16.5,43 7.334,15 15.667,28.167 25,39.5 9.334,11.333 17.9,20.6 25.7,27.8 7.867,7.134 16.134,13.7 24.8,19.7 8.667,6 20.334,12.167 35,18.5 14.667,6.333 23.667,10 27,11 3.334,1 5.667,1.667 7,2 l 2,0.5 2,0.5 2,0.5 2,0.5 2,0.5 -0.199,0.3 -0.301,0.2 -0.3,0.2 -0.2,0.3 -2.5,0.5 -2.5,0.5 -2,0.5 c -1.333,0.333 -5,1 -11,2 -6,1 -16.833,1.667 -32.5,2 -15.666,0.333 -27.166,0 -34.5,-1 l -11,-1.5 -1.5,-0.3 -1.5,-0.2 0.2,1 0.3,1 0.5,1.5 0.5,1.5 8.301,18.2 c 5.465,12.199 11.199,22.967 17.199,32.3 6,9.333 13.067,18.434 21.2,27.3 8.2,8.801 14.867,15.6 20,20.4 5.2,4.866 13.634,10.967 25.3,18.3 11.667,7.333 23.667,13.667 36,19 12.334,5.333 23.834,9.333 34.5,12 10.667,2.667 18.5,4.167 23.5,4.5 5,0.333 10.167,0.667 15.5,1 l 8,0.5 -0.199,0.3 -0.301,0.2 -0.3,1 -0.2,1 -1,0.2 -1,0.3 -0.199,0.3 -0.301,0.2 -0.3,0.2 -0.2,0.3 -0.199,0.3 -0.301,0.2 -0.3,0.2 -0.2,0.3 -23,15.5 c -15.333,10.333 -26.733,17.4 -34.199,21.2 -7.534,3.866 -20.2,9.733 -38,17.6 -17.867,7.8 -37.467,14.533 -58.801,20.2 -21.333,5.667 -39.833,9.667 -55.5,12 -15.666,2.333 -31,3.833 -46,4.5 C 58.5,-0.333 44.334,-0.333 31,-1 17.667,-1.667 9.5,-2.167 6.5,-2.5 L 2,-3 1,-3.3 0,-3.5 l 0,-399 z"
   id="path25638"
   inkscape:connector-curvature="0" />
<path
   style="fill:#ffffff;stroke:#ffffff;stroke-width:0.5"
   d="m 1107.801,-691.7 0.199,-0.3 0.5,-0.3 0.5,-0.2 0,396 0,396 -363.5,0 -363.5,0 0,-0.2 0,-0.3 35.5,-3.5 c 23.667,-2.333 44.834,-5.167 63.5,-8.5 18.667,-3.333 38,-8 58,-14 20,-6 39,-12.5 57,-19.5 18,-7 34.734,-14.6 50.2,-22.8 C 661.734,22.566 675,15.333 686,9 c 11,-6.333 23.067,-14.233 36.2,-23.7 13.2,-9.533 25.534,-19.066 37,-28.6 11.534,-9.467 18.067,-14.934 19.601,-16.4 1.467,-1.533 10.133,-10.2 26,-26 15.8,-15.866 28.866,-30.133 39.199,-42.8 10.334,-12.667 20.5,-26.167 30.5,-40.5 10,-14.333 21,-31.833 33,-52.5 12,-20.667 23.5,-44 34.5,-70 11,-26 20.334,-52.667 28,-80 7.667,-27.333 13.334,-51.833 17,-73.5 3.667,-21.667 6.167,-41.833 7.5,-60.5 1.334,-18.667 2.101,-35.4 2.301,-50.2 0.133,-14.866 6.467,-27.4 19,-37.6 12.467,-10.134 25.199,-21.7 38.199,-34.7 13,-13 20.067,-20.434 21.2,-22.3 1.2,-1.8 2.134,-2.8 2.8,-3 0.667,-0.134 5.167,-5.8 13.5,-17 8.334,-11.134 12.567,-16.8 12.7,-17 l 0.3,-0.2 0.5,-1 0.5,-1 0.301,-0.2 0.199,-0.3 0.2,-0.3 0.3,-0.2 0.301,-0.2 0.199,-0.3 0.2,-0.3 0.3,-0.2 0.301,-0.2 z"
   id="path25640"
   inkscape:connector-curvature="0" />
<path
   style="fill:#ffffff;stroke:#ffffff;stroke-width:0.5"
   d="m 812,-797.7 -19,-3.8 158,0 158,0 0,53.5 0,53.5 -2,0.2 -2,0.3 -1,0.5 -1,0.5 -1,0.5 -1,0.5 -1.5,0.5 c -1,0.333 -2,0.667 -3,1 -1,0.333 -10,3.333 -27,9 -17,5.667 -34.833,10.5 -53.5,14.5 l -28,6 -2.5,0 -2.5,0 0.2,-0.3 0.3,-0.2 0.301,-0.2 0.199,-0.3 0.2,-0.3 0.3,-0.2 0.301,-0.2 0.199,-0.3 1,-0.5 1,-0.5 0.2,-0.3 0.3,-0.2 0.301,-0.2 0.199,-0.3 1,-0.5 1,-0.5 5,-3.3 c 3.334,-2.134 6.167,-4.467 8.5,-7 2.334,-2.467 7.101,-6.8 14.301,-13 7.132,-6.134 15.199,-15.2 24.199,-27.2 9,-12 16.5,-23.833 22.5,-35.5 6,-11.667 9.167,-18.333 9.5,-20 0.334,-1.667 0.667,-3 1,-4 l 0.5,-1.5 0.5,-1 0.5,-1 0.5,-1.5 0.5,-1.5 0.301,-1.5 0.199,-1.5 -1,0.2 -1,0.3 -0.199,0.3 -0.301,0.2 -0.3,0.2 -0.2,0.3 -1,0.5 -1,0.5 -1,0.5 -1,0.5 -0.199,0.3 c -0.2,0.134 -1.867,1.134 -5,3 -3.2,1.8 -12.134,6.034 -26.801,12.7 -14.666,6.667 -29.5,12.667 -44.5,18 -15,5.333 -29,9.5 -42,12.5 -13,3 -22.566,1.4 -28.699,-4.8 -6.2,-6.134 -13.2,-11.934 -21,-17.4 -7.867,-5.533 -16.634,-10.966 -26.301,-16.3 -9.666,-5.333 -19.666,-10 -30,-14 -10.333,-4 -21.833,-7.233 -34.5,-9.7 z"
   id="path25642"
   inkscape:connector-curvature="0" />
<path
   style="fill:#ffffff;stroke:#ffffff;stroke-width:0.5"
   d="m 0,49 0,-50.5 0.2,0 0.3,0 0.301,0.2 L 1,-1 1.2,-0.7 1.5,-0.5 1.801,-0.3 2,0 3,0.5 4,1 4.2,1.3 4.5,1.5 4.801,1.7 5,2 14,7.5 c 6,3.667 11.4,6.733 16.2,9.2 4.867,2.533 16.867,8.533 36,18 19.2,9.533 42.3,18.967 69.3,28.3 27,9.333 47.334,15.667 61,19 13.667,3.333 32.5,6.667 56.5,10 24,3.333 37.834,5.167 41.5,5.5 3.667,0.333 8.334,0.667 14,1 l 8.5,0.5 0,0.3 0,0.2 -158.5,0 L 0,99.5 0,49 Z"
   id="path25644"
   inkscape:connector-curvature="0" />
<g
   id="g26194"
   transform="matrix(0.48478873,0,0,0.47597439,812.83414,95.907917)"><rect
     rx="27.088043"
     ry="28.090269"
     y="-202.0233"
     x="-1677.1927"
     height="210.09534"
     width="206.27542"
     id="rect26192"
     style="opacity:0.88399999;fill:#5da8dc;fill-opacity:1;fill-rule:nonzero;stroke:none" /><path
     inkscape:connector-curvature="0"
     id="path25636"
     d="m -1545.9452,-180.49927 0,-0.0372 3.9181,0 3.9181,0 2.8633,0.70484 c 1.9088,0.45758 3.6418,1.05725 5.1991,1.79919 1.5571,0.74193 3.0641,1.60758 4.5208,2.59678 1.4567,0.9892 2.7778,1.9971 3.9634,3.02339 1.1755,1.01405 2.2302,2.08986 3.1646,3.22743 0.9241,1.15 2.3658,1.44678 4.3249,0.89032 1.9589,-0.55645 4.0687,-1.32936 6.3292,-2.31854 2.2603,-0.9892 4.4958,-2.1021 6.7059,-3.33873 2.2103,-1.23662 3.5565,-2.02177 4.0387,-2.35565 0.4721,-0.34611 0.7233,-0.5316 0.7536,-0.55645 l 0.031,-0.0557 0.1505,-0.0928 0.1504,-0.0928 0.1506,-0.0928 0.1504,-0.0928 0.031,-0.0557 0.046,-0.0371 0.045,-0.0371 0.03,-0.0557 0.1505,-0.0557 0.1505,-0.0371 -0.031,0.27823 -0.046,0.27823 -0.075,0.27823 -0.075,0.27823 -0.075,0.18547 -0.075,0.18549 -0.075,0.27823 c -0.05,0.18547 -0.1003,0.43274 -0.1505,0.74193 -0.05,0.30919 -0.5276,1.54564 -1.4316,3.70969 -0.9042,2.16403 -2.0344,4.35888 -3.3907,6.58468 -1.3563,2.22581 -2.5719,3.90741 -3.6467,5.04518 -1.085,1.15 -1.8034,1.9537 -2.1551,2.4113 -0.3516,0.46982 -0.7785,0.90257 -1.281,1.29839 l -0.7533,0.61208 -0.1506,0.0928 -0.1504,0.0928 -0.03,0.0557 -0.046,0.0371 -0.045,0.0371 -0.031,0.0557 -0.1506,0.0928 -0.1504,0.0928 -0.031,0.0557 -0.046,0.0371 -0.045,0.0371 -0.03,0.0557 -0.031,0.0557 -0.045,0.0371 -0.045,0.0371 -0.03,0.0557 0.3767,0 0.3767,0 4.2195,-1.11292 c 2.813,-0.74193 5.5003,-1.63837 8.0622,-2.68952 2.5618,-1.05113 3.9181,-1.60759 4.0688,-1.66936 0.1505,-0.0617 0.3015,-0.12373 0.4521,-0.18548 l 0.2261,-0.0928 0.1505,-0.0928 0.1505,-0.0928 0.1504,-0.0928 0.1506,-0.0928 0.3012,-0.0557 0.3015,-0.0371 0,0.18549 0,0.18549 -0.075,0.0371 -0.075,0.0557 -0.031,0.0557 -0.046,0.0371 -0.045,0.0371 -0.031,0.0557 -0.031,0.0557 -0.045,0.0372 -0.045,0.0371 -0.031,0.0557 -0.031,0.0557 -0.045,0.0371 -0.075,0.18548 -0.075,0.18548 -0.046,0.0372 c -0.02,0.0371 -0.6579,1.08804 -1.9138,3.15323 -1.2559,2.07742 -1.934,3.12837 -2.0344,3.15322 -0.1002,0.0371 -0.2411,0.22258 -0.4221,0.55645 -0.1707,0.34612 -1.2356,1.72501 -3.1947,4.1363 -1.959,2.41129 -3.8777,4.55661 -5.7563,6.43631 -1.8889,1.89193 -2.8432,4.21662 -2.8633,6.97422 -0.031,2.74516 -0.1455,5.84905 -0.3467,9.3113 -0.2009,3.46243 -0.5776,7.2029 -1.1302,11.22179 -0.5525,4.01889 -1.4066,8.56327 -2.5619,13.63311 -1.1552,5.069835 -2.5618,10.01614 -4.2195,14.838732 -1.6576,4.822591 -3.3907,9.150507 -5.199,12.983897 -1.8084,3.833406 -3.466,7.079389 -4.9729,9.737931 -1.507,2.658541 -3.0389,5.162586 -4.5963,7.512116 -1.5572,2.34953 -3.5261,4.995832 -5.9069,7.938722 -2.3912,2.930651 -3.6971,4.538242 -3.9182,4.822592 -0.231,0.272109 -1.2156,1.28614 -2.9539,3.041942 -1.7278,1.768225 -3.5865,3.536451 -5.5758,5.304843 -1.9789,1.755987 -3.7973,3.221303 -5.4549,4.395985 -1.6577,1.174665 -3.6568,2.516284 -5.9979,4.025007 -2.3306,1.52098 -4.8523,2.930651 -7.5649,4.229048 -2.7125,1.298379 -5.5757,2.504027 -8.5896,3.616943 -3.0139,1.112899 -5.9272,1.978553 -8.7402,2.596776 -2.813,0.618224 -6.0027,1.143882 -9.5693,1.576609 l -5.3496,0.649206 0,0.05568 0,0.03712 -4.8976,0 -4.8977,0 0,-0.03712 0,-0.05568 -1.2809,-0.0928 c -0.8537,-0.0617 -1.5571,-0.123731 -2.1098,-0.18548 -0.5525,-0.0617 -2.6372,-0.401944 -6.2538,-1.020167 -3.6167,-0.618224 -6.4547,-1.236631 -8.5142,-1.854838 -2.0595,-0.618224 -5.1237,-1.793089 -9.1925,-3.524212 -4.0688,-1.731122 -7.5499,-3.480972 -10.4432,-5.249198 -2.8833,-1.755986 -4.6917,-2.868885 -5.425,-3.338714 -0.7233,-0.45759 -1.5371,-1.026287 -2.4414,-1.70646 l -1.3562,-1.020167 -0.031,-0.05568 -0.045,-0.03712 -0.046,-0.03712 -0.03,-0.05568 -0.1505,-0.0928 -0.1505,-0.0928 -0.03,-0.05568 -0.045,-0.03712 -0.046,-0.03712 -0.031,-0.05568 -0.031,-0.05568 -0.045,-0.03712 -0.045,0 -0.031,0 0,-0.185481 0,-0.185479 0.1504,0.03712 0.1505,0.05568 0.6782,0.0928 c 0.452,0.06169 1.6828,0.154497 3.692,0.278229 2.0094,0.123731 4.1441,0.123731 6.4045,0 2.2604,-0.123732 4.5712,-0.401945 6.932,-0.834687 2.3609,-0.432727 5.1489,-1.174665 8.3635,-2.225815 3.2151,-1.051135 6.1688,-2.300004 8.8611,-3.746779 2.6825,-1.459013 4.5911,-2.54725 5.7265,-3.264525 1.1251,-0.704835 2.8431,-2.015656 5.1537,-3.932259 l 3.466,-2.875005 0.03,-0.05568 0.046,-0.03712 0.045,-0.03712 0.031,-0.05568 0.031,-0.05568 0.045,-0.03712 0.045,-0.03712 0.031,-0.05568 0.1505,-0.05568 0.1504,-0.03712 0.031,-0.185497 0.045,-0.18548 0.046,-0.03712 0.03,-0.05568 -1.2056,-0.0928 c -0.8038,-0.06169 -1.5824,-0.123731 -2.3358,-0.18548 -0.7535,-0.06169 -1.934,-0.339995 -3.5414,-0.834687 -1.6073,-0.494692 -3.3403,-1.236614 -5.1989,-2.225815 -1.8586,-0.989185 -3.667,-2.164034 -5.4251,-3.524195 -1.758,-1.360162 -3.029,-2.491788 -3.8125,-3.39436 -0.7737,-0.890517 -1.7783,-2.151626 -3.014,-3.783881 -1.2257,-1.64451 -2.2906,-3.332595 -3.1949,-5.063718 -0.904,-1.731122 -1.768,-3.728418 -2.5916,-5.991153 l -1.251,-3.375801 -0.075,-0.278228 -0.075,-0.278229 -0.045,-0.185481 -0.031,-0.185497 0.226,0.03712 0.2261,0.05568 1.6577,0.278229 c 1.1052,0.185481 2.838,0.247246 5.1988,0.185481 2.3612,-0.0617 3.9936,-0.185481 4.8977,-0.370962 0.9042,-0.185497 1.4568,-0.309211 1.6577,-0.370977 l 0.3014,-0.0928 0.3767,-0.0928 0.3767,-0.0928 0.031,-0.05568 0.045,-0.03712 0.046,-0.03712 0.031,-0.05568 -0.3014,-0.0928 -0.3014,-0.0928 -0.3013,-0.0928 -0.3015,-0.0928 -0.3013,-0.0928 c -0.2009,-0.06169 -0.5526,-0.18548 -1.0549,-0.37096 -0.5022,-0.185497 -1.8586,-0.865653 -4.0687,-2.040335 -2.2101,-1.174665 -3.9684,-2.318548 -5.2745,-3.431463 -1.3059,-1.1129 -2.5517,-2.330787 -3.7373,-3.65403 -1.1753,-1.335499 -2.4662,-3.054382 -3.8728,-5.156465 -1.4064,-2.102101 -2.6622,-4.544362 -3.7674,-7.326638 -1.105,-2.78226 -1.9339,-5.4408 -2.4864,-7.97583 -0.5525,-2.53501 -0.9142,-5.1008 -1.0849,-7.69759 l -0.2714,-3.89516 0.1505,0.0371 0.1504,0.0557 0.1506,0.0928 0.1504,0.0928 0.1505,0.0928 0.1506,0.0928 2.3358,1.29838 c 1.5571,0.86565 3.4911,1.60759 5.8016,2.22581 2.3108,0.61823 3.6921,0.95841 4.1442,1.02017 l 0.6782,0.0928 0.6781,0 0.6781,0 -0.03,-0.0557 -0.046,-0.0371 -0.045,-0.0371 -0.031,-0.0557 -0.031,-0.0557 -0.045,-0.0371 -0.046,-0.0371 -0.031,-0.0557 -0.1505,-0.0928 -0.1504,-0.0928 -0.031,-0.0557 -0.045,-0.0371 -0.045,-0.0371 -0.03,-0.0557 -0.1504,-0.0928 -0.1505,-0.0928 -0.031,-0.0557 c -0.031,-0.0249 -0.4621,-0.42049 -1.2961,-1.18709 -0.8238,-0.77904 -1.6878,-1.78678 -2.5921,-3.02339 -0.904,-1.23663 -1.8083,-2.53501 -2.7123,-3.89517 -0.9042,-1.36016 -1.7079,-2.81324 -2.4111,-4.35888 -0.7033,-1.54565 -1.4468,-3.51196 -2.2304,-5.89841 -0.7735,-2.37419 -1.3611,-4.76695 -1.7631,-7.17824 -0.4018,-2.41129 -0.6279,-4.7916 -0.6782,-7.14114 -0.05,-2.34953 0,-4.35888 0.1504,-6.02824 0.1506,-1.66935 0.4522,-3.55517 0.9043,-5.65726 0.4521,-2.10209 1.1052,-4.32792 1.959,-6.67744 l 1.2809,-3.5242 0.075,-0.27823 0.075,-0.27823 0.046,-0.0371 0.031,-0.0557 0.031,-0.0557 0.046,-0.0371 0.045,0.0371 0.03,0.0557 0.031,0.0557 0.045,0.0371 0.045,0.0371 0.031,0.0557 0.031,0.0557 0.045,0.0371 0.075,0.1855 0.075,0.18549 0.045,0.0371 0.031,0.0557 2.0344,2.78227 c 1.3562,1.85484 2.9637,3.92613 4.8222,6.21372 1.8588,2.28758 2.8884,3.47468 3.0893,3.56129 0.2011,0.0988 0.4521,0.38322 0.7536,0.85323 0.3013,0.4576 1.306,1.55195 3.0139,3.28307 1.7079,1.73113 3.9432,3.74066 6.7058,6.02824 2.7629,2.28758 5.827,4.54436 9.1924,6.77018 3.3657,2.22582 6.9824,4.23516 10.8502,6.02824 3.8679,1.79307 6.5804,2.96775 8.1375,3.52419 1.5573,0.55646 4.2196,1.26743 7.9869,2.13308 3.7675,0.86566 6.6055,1.4221 8.5142,1.66937 1.909,0.24724 3.215,0.38949 3.9182,0.4266 l 1.0548,0.0371 -0.031,-0.27822 -0.046,-0.27823 -0.3013,-2.31855 c -0.2009,-1.54564 -0.3015,-3.70969 -0.3015,-6.49195 0,-2.78227 0.1759,-5.34806 0.5274,-7.69759 0.3518,-2.34953 0.8792,-4.72986 1.5824,-7.14116 0.7033,-2.4113 1.3915,-4.34664 2.0645,-5.80565 0.6833,-1.44677 1.5772,-3.09759 2.6824,-4.95242 1.1052,-1.85484 2.5367,-3.77146 4.2947,-5.75002 1.7582,-1.97856 3.7675,-3.74066 6.0279,-5.2863 2.2605,-1.54564 4.3452,-2.72051 6.2539,-3.52421 1.9089,-0.80371 3.5162,-1.32937 4.8223,-1.57661 1.306,-0.24725 1.9589,-0.38952 1.9589,-0.42662 z"
     style="fill:#ffffff;stroke:#ffffff;stroke-width:0.08359373" /></g></svg>