<?xml version="1.0" encoding="UTF-8" standalone="no"?>
<!-- Generator: Adobe Illustrator 16.0.0, SVG Export Plug-In . SVG Version: 6.00 Build 0)  -->

<svg
   xmlns:dc="http://purl.org/dc/elements/1.1/"
   xmlns:cc="http://creativecommons.org/ns#"
   xmlns:rdf="http://www.w3.org/1999/02/22-rdf-syntax-ns#"
   xmlns:svg="http://www.w3.org/2000/svg"
   xmlns="http://www.w3.org/2000/svg"
   xmlns:sodipodi="http://sodipodi.sourceforge.net/DTD/sodipodi-0.dtd"
   xmlns:inkscape="http://www.inkscape.org/namespaces/inkscape"
   version="1.1"
   id="Layer_1"
   x="0px"
   y="0px"
   width="100"
   height="100"
   viewBox="0 0 99.999998 100"
   xml:space="preserve"
   inkscape:version="0.92.2 (5c3e80d, 2017-08-06)"
   sodipodi:docname="bats.svg"><metadata
     id="metadata26785"><rdf:RDF><cc:Work
         rdf:about=""><dc:format>image/svg+xml</dc:format><dc:type
           rdf:resource="http://purl.org/dc/dcmitype/StillImage" /><dc:title></dc:title></cc:Work></rdf:RDF></metadata><defs
     id="defs26783" /><sodipodi:namedview
     pagecolor="#ffffff"
     bordercolor="#666666"
     borderopacity="1"
     objecttolerance="10"
     gridtolerance="10"
     guidetolerance="10"
     inkscape:pageopacity="0"
     inkscape:pageshadow="2"
     inkscape:window-width="1865"
     inkscape:window-height="1056"
     id="namedview26781"
     showgrid="false"
     inkscape:zoom="1.89"
     inkscape:cx="-77.442107"
     inkscape:cy="133.44749"
     inkscape:window-x="55"
     inkscape:window-y="24"
     inkscape:window-maximized="1"
     inkscape:current-layer="g27327" /><g
     id="g27327"
     transform="matrix(0.37468199,0,0,0.37467918,-1.7853499e-7,62.532078)"><path
       style="fill:#d7ccc8;fill-opacity:1;stroke-width:2.66894007"
       d="m 10.884956,98.657348 c -2.83307,-0.826598 -5.72122,-3.122758 -7.40841,-5.889896 -2.68892,-4.41005 -2.7652,-7.885263 -2.7652,-125.97944 0,-117.797972 0.0824,-121.579472 2.74553,-125.947092 1.84486,-3.02567 4.5068,-4.9919 8.11448,-5.99373 7.31301,-2.03078 236.298324,-2.06651 243.602024,-0.038 2.87721,0.7991 6.5311,3.10538 8.11976,5.12507 2.85984,3.63572 2.88851,4.8961 2.88851,127.021942 v 123.34978 l -4.12017,4.611732 -4.12015,4.61175 -121.20658,0.241326 C 62.756016,99.918087 13.718956,99.484246 10.884956,98.657368 Z M 56.459916,79.66843 c 9.45284,-7.144467 35.22418,-9.941724 45.118594,-4.897227 6.26484,3.194015 7.85645,2.728996 7.85645,-2.295439 0,-5.449726 3.9569,-12.658968 11.44508,-20.852292 6.56991,-7.188583 21.10038,-16.346533 25.93624,-16.346533 2.13455,0 2.07595,-0.50609 -0.5507,-4.75613 -4.15688,-6.72604 -3.75807,-11.5882 1.37126,-16.71756 l 4.31069,-4.3107401 -3.10142,-3.301347 c -4.49154,-4.78105 -5.142,-15.18388 -1.3982,-22.3611099 1.5929,-3.05373 2.63065,-5.81779 2.30609,-6.14234 -1.57642,-1.57643 -11.30004,3.36192 -17.37605,8.82482 -8.04569,7.2338099 -12.25279,14.6545999 -19.52451,34.438687 -2.95615,8.04276 -6.21047,14.94388 -7.23181,15.3358 -3.24743,1.24616 -9.063434,-3.85422 -12.022114,-10.54283 l -2.86208,-6.47027 -2.62296,3.41205 c -1.44263,1.87662 -2.63708,3.78664 -2.65435,4.24448 -0.0736,1.95028 -7.42604,3.97266 -11.48874,3.16012 l -4.41201,-0.88241 5.11041,7.42928 c 4.99808,7.26599 6.83944,15.762075 3.82049,17.627898 -0.70946,0.438468 -7.85838,-0.794133 -15.88649,-2.739119 -19.36911,-4.69258 -23.12537,-4.519168 -38.02465,1.755547 -11.83514,4.984269 -15.27627,7.41375 -10.50087,7.41375 3.97401,0 14.63739,6.11472 16.39696,9.402527 1.90041,3.550961 3.42819,4.151149 4.8228,1.894616 2.54772,-4.122327 14.82739,2.254091 14.82739,7.699355 0,2.744259 2.6856,2.734275 6.3345,-0.02349 z M 208.99029,62.107657 c 1.18013,-1.909514 5.79906,-1.783013 9.051,0.247865 2.15567,1.346253 3.13461,1.183517 5.17901,-0.860899 1.9111,-1.91111 3.99624,-2.354633 8.6198,-1.833483 7.48197,0.843332 7.87315,-0.968674 1.50947,-6.992027 -5.8818,-5.567246 -8.31581,-6.76408 -19.44982,-9.563714 -13.44841,-3.38157 -13.01811,-3.13881 -11.28945,-6.36887 0.82969,-1.55031 3.23917,-3.72552 5.35437,-4.8338 l 3.84584,-2.01505 -3.88134,-1.76847 c -2.62371,-1.19545 -3.88134,-2.83893 -3.88134,-5.07217 0,-4.09665 -0.12414,-4.09268 -6.4593,0.20655 -2.84492,1.93063 -5.77104,3.14037 -6.50248,2.6883 -0.78379,-0.48441 -0.9344,-5.3562 -0.36673,-11.86372 0.93514,-10.7203671 0.8268,-11.2801571 -3.72162,-19.2300271 l -4.68479,-8.1882399 -1.25598,4.8915499 c -0.69079,2.69036 -2.10179,5.84475 -3.13558,7.00977 -1.06626,1.20160005 -1.5625,3.75429 -1.1468,5.89907 0.53407,2.75551 -0.0205,4.251347 -2.0452,5.515767 -2.71525,1.6957201 -2.68345,1.9133701 1.40798,9.6344901 3.65057,6.88916 4.10244,8.98336 3.53276,16.37245 l -0.65324,8.47286 4.11645,0.15411 c 5.23537,0.19598 14.96404,7.104612 19.38595,13.766552 3.53065,5.319191 4.97491,6.15193 6.47104,3.731136 z M 115.72788,-41.809908 c 9.68485,-2.96386 32.01589,-4.09145 42.42565,-2.14225 4.66003,0.87258 11.95995,3.32835 16.22204,5.45727 4.26208,2.12892 8.2337,4.08258 8.82582,4.34148 0.59212,0.25889 1.07658,-1.65742 1.07658,-4.25846 0,-11.67132 9.74216,-20.25081 21.53502,-18.96493 l 6.70763,0.73139 v -5.9571 c 0,-3.27641 1.17687,-8.17132 2.61525,-10.87758 3.412,-6.41947 13.09698,-13.78036 20.86494,-15.85799 3.39602,-0.9083 6.17459,-2.37646 6.17459,-3.26258 0,-3.22427 -11.87546,-6.63263 -25.49272,-7.316627 -17.69995,-0.889065 -25.36936,1.155267 -54.26697,14.465187 -12.63608,5.82005 -23.65317,10.5819 -24.4824,10.5819 -6.02237,0 -7.82315,-16.32647 -2.91831,-26.458572 1.64225,-3.39247 2.62788,-6.52616 2.19028,-6.96376 -0.4376,-0.4376 -2.82927,-0.0867 -5.31484,0.77977 -9.34853,3.25895 -17.91397,0.51953 -21.78565,-6.96751 -1.21123,-2.34229 -2.71981,-3.93882 -3.3524,-3.54786 -0.63258,0.39097 -1.52179,4.31172 -1.97602,8.71279 -0.46153,4.47181 -2.57524,11.498602 -4.791266,15.928012 -3.477888,6.95164 -4.479888,7.92606 -8.150378,7.92606 -3.83177,0 -5.15961,-1.54942 -15.73245,-18.357862 -16.74382,-26.61889 -18.64652,-28.31499 -41.51032,-37.00291 -10.48508,-3.98419 -19.22799,-7.07983 -19.42868,-6.87921 -0.20069,0.20063 1.93175,4.75473 4.73876,10.12023 4.65857,8.90472 5.03094,10.46357 4.26991,17.87529 -0.79777,7.76951 -0.69386,8.11982 2.40866,8.11982 4.93203,0 8.95997,4.69602 10.00493,11.664385 0.96537,6.437637 -0.8277,13.754187 -3.37076,13.754187 -0.79589,0 -1.44708,0.5828 -1.44708,1.29513 0,0.71231 3.27529,1.99755 7.27843,2.85608 22.78503,4.88655 50.5543,26.54746 54.98656,42.89126 0.88193,3.25209 1.84795,6.75734 2.14673,7.78945 0.36795,1.27111 2.460158,0.23572 6.484664,-3.20914 3.2678,-2.79713 9.14651,-6.06654 13.0638,-7.26535 z"
       id="path851"
       inkscape:connector-curvature="0" /></g><g
     id="g26769"
     transform="translate(0,-166.89499)" /><g
     id="g26771"
     transform="translate(0,-166.89499)" /><g
     id="g26773"
     transform="translate(0,-166.89499)" /><g
     id="g26775"
     transform="translate(0,-166.89499)" /><g
     id="g26777"
     transform="translate(0,-166.89499)" /><g
     id="g26779"
     transform="translate(0,-166.89499)" /></svg>